<svg xmlns="http://www.w3.org/2000/svg" width="174" height="201" viewBox="0 0 174 201" role="img" aria-label="A procedural coat of arms"><g class="vellum-arms"><clipPath id="vellum-arms-hero2"><path d="M12 12L162 12L162 93.42Q162 157.14 87 189Q12 157.14 12 93.42Z"/></clipPath><g clip-path="url(#vellum-arms-hero2)"><rect x="12" y="12" width="150" height="177" fill="#a83232"/><g><path d="M36 74.01Q61.5 58.71 87 74.01Q112.5 89.31 138 74.01" fill="none" stroke="#efe8d6" stroke-width="6.63" stroke-linecap="round" stroke-linejoin="round"/><path d="M36 99.51Q61.5 84.21 87 99.51Q112.5 114.81 138 99.51" fill="none" stroke="#efe8d6" stroke-width="6.63" stroke-linecap="round" stroke-linejoin="round"/><path d="M36 125.01Q61.5 109.71 87 125.01Q112.5 140.31 138 125.01" fill="none" stroke="#efe8d6" stroke-width="6.63" stroke-linecap="round" stroke-linejoin="round"/></g></g><path d="M12 12L162 12L162 93.42Q162 157.14 87 189Q12 157.14 12 93.42Z" fill="none" stroke="#4a3826" stroke-width="6.75" stroke-linejoin="round"/></g></svg>