<svg xmlns="http://www.w3.org/2000/svg" viewBox="0 0 520 384" width="520" height="384" role="img" aria-label="The prospect of Laukuwelua, chart 42"><filter id="prospect-parch-antique-42-0" x="0%" y="0%" width="100%" height="100%"><feTurbulence type="fractalNoise" baseFrequency="0.012 0.014" numOctaves="3" seed="1302" stitchTiles="stitch"/><feColorMatrix values="0 0 0 0 0.29  0 0 0 0 0.22  0 0 0 0 0.15  0.45 0 0 0 0"/></filter><radialGradient id="prospect-vig-antique-42-0" cx="50%" cy="48%" r="72%"><stop offset="62%" stop-color="#4a3826" stop-opacity="0"/><stop offset="100%" stop-color="#4a3826" stop-opacity="0.16"/></radialGradient><rect x="0" y="0" width="520" height="384" fill="#f2e8cf"/><path d="M29 234L29 165.8L32.6 166.4L36.2 167.4L39.8 168.4L43.4 169.2L47 170.7L50.7 172.3L54.3 173.7L57.9 175.6L61.5 177.5L65.1 177.6L68.7 178.2L72.3 178.8L75.9 179L79.5 179.2L83.1 179.7L86.8 180.6L90.4 181.2L94 182.1L97.6 183L101.2 182.9L104.8 182.8L108.4 182.1L112 180.9L115.6 179.2L119.2 178.9L122.8 179.5L126.5 180.1L130.1 182.7L133.7 186.2L137.3 188.5L140.9 189.5L144.5 190.9L148.1 191.7L151.7 192.1L155.3 193.3L158.9 195.5L162.5 198L166.2 199.6L169.8 200.9L173.4 201.9L177 202L180.6 201.8L184.2 201.8L187.8 201.9L191.4 202.4L195 204.1L198.6 205.7L202.3 207.8L205.9 210.3L209.5 212.9L213.1 216.2L216.7 219.7L220.3 223.1L223.9 226L227.5 228.4L231.1 229.2L234.7 229.8L238.3 230.1L242 229.8L245.6 229.8L249.2 230.7L252.8 231.9L256.4 232.8L260 232.3L263.6 231.1L267.2 229.1L270.8 227.3L274.4 225.9L278 225.1L281.7 224.1L285.3 223.3L288.9 222.3L292.5 221.4L296.1 223.7L299.7 226L303.3 228.2L306.9 230L310.5 231.8L314.1 233.8L317.8 234L321.4 234L325 234L328.6 234L332.2 234L335.8 234L339.4 234L343 234L346.6 234L350.2 234L353.8 234L357.5 234L361.1 234L364.7 234L368.3 234L371.9 234L375.5 234L379.1 234L382.7 234L386.3 234L389.9 234L393.5 234L397.2 234L400.8 234L404.4 234L408 234L411.6 234L415.2 234L418.8 234L422.4 234L426 234L429.6 234L433.3 234L436.9 234L440.5 234L444.1 234L447.7 234L451.3 234L454.9 234L458.5 234L462.1 234L465.7 234L469.3 234L473 234L476.6 234L480.2 234L483.8 234L487.4 234L491 234L491 234Z" fill="#f2e8cf" stroke="#4a3826" stroke-width="1.2" stroke-linecap="round" stroke-linejoin="round"/><path d="M70.6 180.1l6 10.9M128.3 182.9l8 10.9M186.1 203.4l10 10.9" fill="none" stroke="#4a3826" stroke-width="0.7" stroke-linecap="round" stroke-linejoin="round"/><path d="M29 232L37 232L45 232L53 232L61 232L69 232L77 232L85 232L93 232L101 232L109 232L117 232L125 232L133 232L141 232L149 232L157 232L165 232L173 232L181 232L189 232L197 232L205 232L213 232L221 232L229 232L237 232L245 232L253 232L261 232L269 232L277 232L285 232L293 232L301 232L309 232L317 232L325 232L333 232L341 232L349 232L357 232L365 232L373 232L381 232L389 232L397 232L405 232L413 232L421 232L429 232L437 232L445 232L453 232L461 232L469 232L477 232L485 232" fill="none" stroke="#4a3826" stroke-width="1.3" stroke-linecap="round" stroke-linejoin="round"/><path d="M195.8 224L195.8 200.7L202.2 193.7L216.2 193.7L222.6 200.7L222.6 224Z" fill="#f2e8cf" stroke="#4a3826" stroke-width="0.9" stroke-linecap="round" stroke-linejoin="round"/><rect x="203.1" y="209.6" width="1.4" height="2.6" fill="#4a3826"/><rect x="213.9" y="209.6" width="1.4" height="2.6" fill="#4a3826"/><path d="M207.6 224L207.6 221Q209.2 219.5 210.8 221L210.8 224Z" fill="#4a3826"/><path d="M203.2 194.9l2.7 5.6M207.2 195.5l2.7 5.6M211.2 196l2.7 5.6" fill="none" stroke="#4a3826" stroke-width="0.7" stroke-linecap="round" stroke-linejoin="round"/><path d="M216.6 224L216.6 197.9L228.1 188.9L239.5 197.9L239.5 224Z" fill="#f2e8cf" stroke="#4a3826" stroke-width="0.9" stroke-linecap="round" stroke-linejoin="round"/><rect x="222.8" y="207.8" width="1.4" height="2.6" fill="#4a3826"/><rect x="231.9" y="207.8" width="1.4" height="2.6" fill="#4a3826"/><path d="M226.5 224L226.5 221Q228.1 219.5 229.7 221L229.7 224Z" fill="#4a3826"/><path d="M229.2 192.9l3.7 5M232.4 193.4l3.7 5" fill="none" stroke="#4a3826" stroke-width="0.7" stroke-linecap="round" stroke-linejoin="round"/><path d="M235.8 224L235.8 204.3L244.7 195.4L253.5 204.3L253.5 224Z" fill="#f2e8cf" stroke="#4a3826" stroke-width="0.9" stroke-linecap="round" stroke-linejoin="round"/><rect x="244" y="211.8" width="1.4" height="2.6" fill="#4a3826"/><path d="M243.1 224L243.1 221Q244.7 219.5 246.3 221L246.3 224Z" fill="#4a3826"/><path d="M245.5 199.4l2.8 4.9M248 199.7l2.8 4.9" fill="none" stroke="#4a3826" stroke-width="0.7" stroke-linecap="round" stroke-linejoin="round"/><path d="M249.5 224L249.5 203.8L258.5 194.8L267.5 203.8L267.5 224Z" fill="#f2e8cf" stroke="#4a3826" stroke-width="0.9" stroke-linecap="round" stroke-linejoin="round"/><rect x="257.8" y="211.5" width="1.4" height="2.6" fill="#4a3826"/><path d="M256.9 224L256.9 221Q258.5 219.5 260.1 221L260.1 224Z" fill="#4a3826"/><path d="M259.4 198.9l2.9 5M261.9 199.2l2.9 5" fill="none" stroke="#4a3826" stroke-width="0.7" stroke-linecap="round" stroke-linejoin="round"/><path d="M263 224L263 205L274.6 196.4L286.2 205L286.2 224Z" fill="#f2e8cf" stroke="#4a3826" stroke-width="0.9" stroke-linecap="round" stroke-linejoin="round"/><rect x="269.3" y="212.2" width="1.4" height="2.6" fill="#4a3826"/><rect x="278.6" y="212.2" width="1.4" height="2.6" fill="#4a3826"/><path d="M273 224L273 221Q274.6 219.5 276.2 221L276.2 224Z" fill="#4a3826"/><path d="M275.8 200.3l3.7 4.7M279 200.7l3.7 4.7" fill="none" stroke="#4a3826" stroke-width="0.7" stroke-linecap="round" stroke-linejoin="round"/><path d="M277.9 224L277.9 202L282.5 195L292.4 195L296.9 202L296.9 224Z" fill="#f2e8cf" stroke="#4a3826" stroke-width="0.9" stroke-linecap="round" stroke-linejoin="round"/><rect x="286.7" y="210.4" width="1.4" height="2.6" fill="#4a3826"/><path d="M285.8 224L285.8 221Q287.4 219.5 289 221L289 224Z" fill="#4a3826"/><path d="M283.5 196.2l1.9 5.6M286.1 196.6l1.9 5.6M288.7 197l1.9 5.6" fill="none" stroke="#4a3826" stroke-width="0.7" stroke-linecap="round" stroke-linejoin="round"/><path d="M295 224L295 199.6L307.4 190.6L319.9 199.6L319.9 224Z" fill="#f2e8cf" stroke="#4a3826" stroke-width="0.9" stroke-linecap="round" stroke-linejoin="round"/><rect x="301.7" y="208.9" width="1.4" height="2.6" fill="#4a3826"/><rect x="311.7" y="208.9" width="1.4" height="2.6" fill="#4a3826"/><path d="M305.8 224L305.8 221Q307.4 219.5 309 221L309 224Z" fill="#4a3826"/><path d="M308.7 194.7l4 5M312.2 195.2l4 5" fill="none" stroke="#4a3826" stroke-width="0.7" stroke-linecap="round" stroke-linejoin="round"/><path d="M314.3 224L314.3 209.6L325.2 203.1L336.2 209.6L336.2 224Z" fill="#f2e8cf" stroke="#4a3826" stroke-width="0.9" stroke-linecap="round" stroke-linejoin="round"/><rect x="320.1" y="215.1" width="1.4" height="2.6" fill="#4a3826"/><rect x="328.9" y="215.1" width="1.4" height="2.6" fill="#4a3826"/><path d="M323.6 224L323.6 221Q325.2 219.5 326.8 221L326.8 224Z" fill="#4a3826"/><path d="M326.3 206l3.5 3.6M329.4 206.5l3.5 3.6" fill="none" stroke="#4a3826" stroke-width="0.7" stroke-linecap="round" stroke-linejoin="round"/><path d="M138.2 232L138.2 219L146.2 219L154.2 219L162.2 219L170.2 219L178.2 219L186.2 219L194.2 219L202.2 219L210.2 219L218.2 219L226.2 219L234.2 219L242.2 219L250.2 219L258.2 219L266.2 219L274.2 219L282.2 219L290.2 219L298.2 219L306.2 219L314.2 219L322.2 219L330.2 219L338.2 219L346.2 219L354.2 219L362.2 219L370.2 219L378.2 219L381.8 232Z" fill="#f2e8cf" stroke="#4a3826" stroke-width="1.1" stroke-linecap="round" stroke-linejoin="round"/><path d="M141.2 219L141.2 216.6L144.6 216.6L144.6 219M148.2 219L148.2 216.6L151.6 216.6L151.6 219M155.2 219L155.2 216.6L158.6 216.6L158.6 219M162.2 219L162.2 216.6L165.6 216.6L165.6 219M169.2 219L169.2 216.6L172.6 216.6L172.6 219M176.2 219L176.2 216.6L179.6 216.6L179.6 219M183.2 219L183.2 216.6L186.6 216.6L186.6 219M190.2 219L190.2 216.6L193.6 216.6L193.6 219M197.2 219L197.2 216.6L200.6 216.6L200.6 219M204.2 219L204.2 216.6L207.6 216.6L207.6 219M211.2 219L211.2 216.6L214.6 216.6L214.6 219M218.2 219L218.2 216.6L221.6 216.6L221.6 219M225.2 219L225.2 216.6L228.6 216.6L228.6 219M232.2 219L232.2 216.6L235.6 216.6L235.6 219M239.2 219L239.2 216.6L242.6 216.6L242.6 219M246.2 219L246.2 216.6L249.6 216.6L249.6 219M253.2 219L253.2 216.6L256.6 216.6L256.6 219M260.2 219L260.2 216.6L263.6 216.6L263.6 219M267.2 219L267.2 216.6L270.6 216.6L270.6 219M274.2 219L274.2 216.6L277.6 216.6L277.6 219M281.2 219L281.2 216.6L284.6 216.6L284.6 219M288.2 219L288.2 216.6L291.6 216.6L291.6 219M295.2 219L295.2 216.6L298.6 216.6L298.6 219M302.2 219L302.2 216.6L305.6 216.6L305.6 219M309.2 219L309.2 216.6L312.6 216.6L312.6 219M316.2 219L316.2 216.6L319.6 216.6L319.6 219M323.2 219L323.2 216.6L326.6 216.6L326.6 219M330.2 219L330.2 216.6L333.6 216.6L333.6 219M337.2 219L337.2 216.6L340.6 216.6L340.6 219M344.2 219L344.2 216.6L347.6 216.6L347.6 219M351.2 219L351.2 216.6L354.6 216.6L354.6 219M358.2 219L358.2 216.6L361.6 216.6L361.6 219M365.2 219L365.2 216.6L368.6 216.6L368.6 219M372.2 219L372.2 216.6L375.6 216.6L375.6 219" fill="none" stroke="#4a3826" stroke-width="0.8" stroke-linecap="round" stroke-linejoin="round"/><path d="M256 232L256 226Q260 222 264 226L264 232Z" fill="#4a3826"/><path d="M243 228L243 177.4L277 177.4L277 228Z" fill="#f2e8cf" stroke="#4a3826" stroke-width="1.3" stroke-linecap="round" stroke-linejoin="round"/><path d="M243 177.4L243 174.4L247.9 174.4L247.9 177.4M257.6 177.4L257.6 174.4L262.4 174.4L262.4 177.4M272.1 177.4L272.1 174.4L277 174.4L277 177.4" fill="none" stroke="#4a3826" stroke-width="1.105" stroke-linecap="round" stroke-linejoin="round"/><path d="M245 228L245 168.4L249 168.4L249 228Z" fill="#f2e8cf" stroke="#4a3826" stroke-width="1.1700000000000002" stroke-linecap="round" stroke-linejoin="round"/><path d="M244.4 168.4L247 163.4L249.6 168.4Z" fill="#f2e8cf" stroke="#4a3826" stroke-width="1.1700000000000002" stroke-linecap="round" stroke-linejoin="round"/><path d="M247 163.4L247 159.4l4 1.4l-4 1.4" fill="none" stroke="#4a3826" stroke-width="0.7" stroke-linecap="round" stroke-linejoin="round"/><path d="M271 228L271 168.4L275 168.4L275 228Z" fill="#f2e8cf" stroke="#4a3826" stroke-width="1.1700000000000002" stroke-linecap="round" stroke-linejoin="round"/><path d="M270.4 168.4L273 163.4L275.6 168.4Z" fill="#f2e8cf" stroke="#4a3826" stroke-width="1.1700000000000002" stroke-linecap="round" stroke-linejoin="round"/><path d="M273 163.4L273 159.4l4 1.4l-4 1.4" fill="none" stroke="#4a3826" stroke-width="0.7" stroke-linecap="round" stroke-linejoin="round"/><path d="M257.8 228L257.8 223.8Q260 221.7 262.2 223.8L262.2 228Z" fill="#4a3826"/><rect x="253.2" y="192.6" width="1.4" height="3" fill="#4a3826"/><rect x="265.4" y="192.6" width="1.4" height="3" fill="#4a3826"/><path d="M150.2 232L150.2 201.5L160.3 192.5L170.4 201.5L170.4 232Z" fill="#f2e8cf" stroke="#4a3826" stroke-width="1.2" stroke-linecap="round" stroke-linejoin="round"/><rect x="155.6" y="213.1" width="1.4" height="2.6" fill="#4a3826"/><rect x="163.6" y="213.1" width="1.4" height="2.6" fill="#4a3826"/><path d="M158.7 232L158.7 229Q160.3 227.5 161.9 229L161.9 232Z" fill="#4a3826"/><path d="M161.3 196.5l3.2 5M164.1 196.9l3.2 5" fill="none" stroke="#4a3826" stroke-width="0.7" stroke-linecap="round" stroke-linejoin="round"/><path d="M163.6 232L163.6 202.8L177.3 193.8L191.1 202.8L191.1 232Z" fill="#f2e8cf" stroke="#4a3826" stroke-width="1.2" stroke-linecap="round" stroke-linejoin="round"/><rect x="171.1" y="213.9" width="1.4" height="2.6" fill="#4a3826"/><rect x="182.2" y="213.9" width="1.4" height="2.6" fill="#4a3826"/><path d="M175.7 232L175.7 229Q177.3 227.5 178.9 229L178.9 232Z" fill="#4a3826"/><path d="M178.7 197.8l4.4 5M182.6 198.3l4.4 5" fill="none" stroke="#4a3826" stroke-width="0.7" stroke-linecap="round" stroke-linejoin="round"/><path d="M188.3 232L188.3 201.8L194.5 194.8L207.9 194.8L214.1 201.8L214.1 232Z" fill="#f2e8cf" stroke="#4a3826" stroke-width="1.2" stroke-linecap="round" stroke-linejoin="round"/><rect x="195.3" y="213.3" width="1.4" height="2.6" fill="#4a3826"/><rect x="205.6" y="213.3" width="1.4" height="2.6" fill="#4a3826"/><path d="M199.6 232L199.6 229Q201.2 227.5 202.8 229L202.8 232Z" fill="#4a3826"/><path d="M195.5 196l2.6 5.6M199.3 196.5l2.6 5.6M203.1 197.1l2.6 5.6" fill="none" stroke="#4a3826" stroke-width="0.7" stroke-linecap="round" stroke-linejoin="round"/><path d="M211 232L211 209.4L215.2 202.4L224.2 202.4L228.3 209.4L228.3 232Z" fill="#f2e8cf" stroke="#4a3826" stroke-width="1.2" stroke-linecap="round" stroke-linejoin="round"/><rect x="219" y="218" width="1.4" height="2.6" fill="#4a3826"/><path d="M218.1 232L218.1 229Q219.7 227.5 221.3 229L221.3 232Z" fill="#4a3826"/><path d="M216.2 203.6l1.7 5.6M218.5 204l1.7 5.6M220.8 204.3l1.7 5.6" fill="none" stroke="#4a3826" stroke-width="0.7" stroke-linecap="round" stroke-linejoin="round"/><path d="M222.4 232L222.4 209.2L234.3 200.2L246.1 209.2L246.1 232Z" fill="#f2e8cf" stroke="#4a3826" stroke-width="1.2" stroke-linecap="round" stroke-linejoin="round"/><rect x="228.8" y="217.9" width="1.4" height="2.6" fill="#4a3826"/><rect x="238.3" y="217.9" width="1.4" height="2.6" fill="#4a3826"/><path d="M232.7 232L232.7 229Q234.3 227.5 235.9 229L235.9 232Z" fill="#4a3826"/><path d="M235.5 204.3l3.8 5M238.8 204.7l3.8 5" fill="none" stroke="#4a3826" stroke-width="0.7" stroke-linecap="round" stroke-linejoin="round"/><path d="M240.7 232L240.7 212.7L250.3 204L259.9 212.7L259.9 232Z" fill="#f2e8cf" stroke="#4a3826" stroke-width="1.2" stroke-linecap="round" stroke-linejoin="round"/><rect x="249.6" y="220" width="1.4" height="2.6" fill="#4a3826"/><path d="M248.7 232L248.7 229Q250.3 227.5 251.9 229L251.9 232Z" fill="#4a3826"/><path d="M251.3 207.9l3.1 4.8M254 208.3l3.1 4.8" fill="none" stroke="#4a3826" stroke-width="0.7" stroke-linecap="round" stroke-linejoin="round"/><path d="M254.4 232L254.4 208.5L262 199.5L269.6 208.5L269.6 232Z" fill="#f2e8cf" stroke="#4a3826" stroke-width="1.2" stroke-linecap="round" stroke-linejoin="round"/><rect x="261.3" y="217.4" width="1.4" height="2.6" fill="#4a3826"/><path d="M262.8 203.6l2.4 5M264.9 203.9l2.4 5" fill="none" stroke="#4a3826" stroke-width="0.7" stroke-linecap="round" stroke-linejoin="round"/><path d="M266.2 232L266.2 209.6L279.8 200.6L293.4 209.6L293.4 232Z" fill="#f2e8cf" stroke="#4a3826" stroke-width="1.2" stroke-linecap="round" stroke-linejoin="round"/><rect x="273.6" y="218.1" width="1.4" height="2.6" fill="#4a3826"/><rect x="284.5" y="218.1" width="1.4" height="2.6" fill="#4a3826"/><path d="M278.2 232L278.2 229Q279.8 227.5 281.4 229L281.4 232Z" fill="#4a3826"/><path d="M281.1 204.7l4.4 5M284.9 205.2l4.4 5" fill="none" stroke="#4a3826" stroke-width="0.7" stroke-linecap="round" stroke-linejoin="round"/><path d="M286.9 232L286.9 207L298.4 198L309.8 207L309.8 232Z" fill="#f2e8cf" stroke="#4a3826" stroke-width="1.2" stroke-linecap="round" stroke-linejoin="round"/><rect x="293.1" y="216.5" width="1.4" height="2.6" fill="#4a3826"/><rect x="302.3" y="216.5" width="1.4" height="2.6" fill="#4a3826"/><path d="M296.8 232L296.8 229Q298.4 227.5 300 229L300 232Z" fill="#4a3826"/><path d="M299.5 202l3.7 5M302.7 202.5l3.7 5" fill="none" stroke="#4a3826" stroke-width="0.7" stroke-linecap="round" stroke-linejoin="round"/><path d="M307.2 232L307.2 205.4L315.2 196.4L323.2 205.4L323.2 232Z" fill="#f2e8cf" stroke="#4a3826" stroke-width="1.2" stroke-linecap="round" stroke-linejoin="round"/><rect x="314.5" y="215.5" width="1.4" height="2.6" fill="#4a3826"/><path d="M316 200.4l2.6 5M318.2 200.8l2.6 5" fill="none" stroke="#4a3826" stroke-width="0.7" stroke-linecap="round" stroke-linejoin="round"/><path d="M319.9 232L319.9 209.7L328.4 200.7L336.9 209.7L336.9 232Z" fill="#f2e8cf" stroke="#4a3826" stroke-width="1.2" stroke-linecap="round" stroke-linejoin="round"/><rect x="327.7" y="218.2" width="1.4" height="2.6" fill="#4a3826"/><path d="M326.8 232L326.8 229Q328.4 227.5 330 229L330 232Z" fill="#4a3826"/><path d="M329.3 204.7l2.7 5M331.7 205.1l2.7 5" fill="none" stroke="#4a3826" stroke-width="0.7" stroke-linecap="round" stroke-linejoin="round"/><path d="M332.6 232L332.6 211.1L342.1 202.1L351.5 211.1L351.5 232Z" fill="#f2e8cf" stroke="#4a3826" stroke-width="1.2" stroke-linecap="round" stroke-linejoin="round"/><rect x="341.4" y="219" width="1.4" height="2.6" fill="#4a3826"/><path d="M340.5 232L340.5 229Q342.1 227.5 343.7 229L343.7 232Z" fill="#4a3826"/><path d="M343 206.1l3 5M345.7 206.5l3 5" fill="none" stroke="#4a3826" stroke-width="0.7" stroke-linecap="round" stroke-linejoin="round"/><path d="M345.8 232L345.8 206L357.8 197L369.8 206L369.8 232Z" fill="#f2e8cf" stroke="#4a3826" stroke-width="1.2" stroke-linecap="round" stroke-linejoin="round"/><rect x="352.3" y="215.9" width="1.4" height="2.6" fill="#4a3826"/><rect x="361.9" y="215.9" width="1.4" height="2.6" fill="#4a3826"/><path d="M356.2 232L356.2 229Q357.8 227.5 359.4 229L359.4 232Z" fill="#4a3826"/><path d="M359 201l3.8 5M362.3 201.5l3.8 5" fill="none" stroke="#4a3826" stroke-width="0.7" stroke-linecap="round" stroke-linejoin="round"/><path d="M154.3 232L154.3 184.5L164.4 184.5L164.4 232Z" fill="#f2e8cf" stroke="#4a3826" stroke-width="1.2" stroke-linecap="round" stroke-linejoin="round"/><path d="M153.7 184.5L159.3 158.3L165 184.5Z" fill="#f2e8cf" stroke="#4a3826" stroke-width="1.2" stroke-linecap="round" stroke-linejoin="round"/><path d="M159.3 157.3L159.3 153.9M157.5 155.1L161.1 155.1" fill="none" stroke="#4a3826" stroke-width="0.8" stroke-linecap="round" stroke-linejoin="round"/><rect x="158.7" y="197.8" width="1.2" height="3" fill="#4a3826"/><rect x="158.7" y="210.6" width="1.2" height="3" fill="#4a3826"/><path d="M160.1 170.1l2 7.8M161.9 170.3l2 7.8" fill="none" stroke="#4a3826" stroke-width="0.7" stroke-linecap="round" stroke-linejoin="round"/><path d="M350.6 232L350.6 186.5L361.2 186.5L361.2 232Z" fill="#f2e8cf" stroke="#4a3826" stroke-width="1.2" stroke-linecap="round" stroke-linejoin="round"/><path d="M350.1 186.5L350.1 183.9L352.7 183.9L352.7 186.5M354.8 186.5L354.8 183.9L357 183.9L357 186.5M359.1 186.5L359.1 183.9L361.7 183.9L361.7 186.5" fill="none" stroke="#4a3826" stroke-width="1.02" stroke-linecap="round" stroke-linejoin="round"/><rect x="355.3" y="199.2" width="1.2" height="3" fill="#4a3826"/><rect x="355.3" y="211.5" width="1.2" height="3" fill="#4a3826"/><path d="M227.2 232L227.2 182.9L236.7 182.9L236.7 232Z" fill="#f2e8cf" stroke="#4a3826" stroke-width="1.2" stroke-linecap="round" stroke-linejoin="round"/><path d="M226.7 182.9L226.7 180.3L229.1 180.3L229.1 182.9M231 182.9L231 180.3L232.9 180.3L232.9 182.9M234.8 182.9L234.8 180.3L237.2 180.3L237.2 182.9" fill="none" stroke="#4a3826" stroke-width="1.02" stroke-linecap="round" stroke-linejoin="round"/><rect x="231.3" y="196.6" width="1.2" height="3" fill="#4a3826"/><rect x="231.3" y="209.9" width="1.2" height="3" fill="#4a3826"/><rect x="23" y="238" width="474" height="38" fill="#d9e2d2"/><path d="M23 238H497" fill="none" stroke="#a3b8a3" stroke-width="5.5" stroke-opacity="0.16"/><path d="M23 238H497" fill="none" stroke="#a3b8a3" stroke-width="3.3" stroke-opacity="0.26"/><path d="M23 238H497" fill="none" stroke="#a3b8a3" stroke-width="1.6" stroke-opacity="0.42"/><path d="M23 238H497" fill="none" stroke="#5b4a33" stroke-width="1.2"/><path d="M253.3 264.7q4.5 -3.4 9 0q4.5 3.4 9 0" fill="none" stroke="#857257" stroke-width="0.9" stroke-opacity="0.5" stroke-linecap="round"/><path d="M97.9 248.1q4.5 -3.3 8.9 0q4.5 3.3 8.9 0" fill="none" stroke="#857257" stroke-width="0.9" stroke-opacity="0.5" stroke-linecap="round"/><path d="M324.6 256.7q4 -3 8 0q4 3 8 0" fill="none" stroke="#857257" stroke-width="0.9" stroke-opacity="0.5" stroke-linecap="round"/><path d="M227.9 259.2h8m5 0h10m4 0h7" fill="none" stroke="#857257" stroke-width="0.8" stroke-opacity="0.55"/><path d="M222.5 261.7h8m5 0h10m4 0h7" fill="none" stroke="#857257" stroke-width="0.8" stroke-opacity="0.55"/><path d="M130 234L300 234L300 242L130 242Z" fill="#f2e8cf" stroke="#4a3826" stroke-width="1.1" stroke-linecap="round" stroke-linejoin="round"/><path d="M131.5 235.6H298.5" fill="none" stroke="#4a3826" stroke-width="0.8" stroke-opacity="0.4"/><path d="M139.2 242L139.2 239.2Q150.8 236 162.3 239.2L162.3 242Z" fill="#4a3826" fill-opacity="0.9"/><path d="M164.7 242L164.7 239.2Q176.3 236 187.8 239.2L187.8 242Z" fill="#4a3826" fill-opacity="0.9"/><path d="M190.2 242L190.2 239.2Q201.8 236 213.3 239.2L213.3 242Z" fill="#4a3826" fill-opacity="0.9"/><path d="M215.7 242L215.7 239.2Q227.3 236 238.8 239.2L238.8 242Z" fill="#4a3826" fill-opacity="0.9"/><path d="M136 234.6V241.4M143 234.6V241.4M150 234.6V241.4M157 234.6V241.4M164 234.6V241.4M171 234.6V241.4M178 234.6V241.4M185 234.6V241.4M192 234.6V241.4M199 234.6V241.4M206 234.6V241.4M213 234.6V241.4M220 234.6V241.4M227 234.6V241.4M234 234.6V241.4M241 234.6V241.4M248 234.6V241.4M255 234.6V241.4M262 234.6V241.4M269 234.6V241.4M276 234.6V241.4M283 234.6V241.4M290 234.6V241.4M297 234.6V241.4" fill="none" stroke="#4a3826" stroke-width="0.55" stroke-opacity="0.75"/><path d="M282 234v2.7h3.6v2.7h3.6v2.7h3.6" fill="none" stroke="#4a3826" stroke-width="0.8" stroke-linecap="round" stroke-linejoin="round"/><circle cx="140" cy="232.4" r="1.1" fill="#4a3826"/><circle cx="215" cy="232.4" r="1.1" fill="#4a3826"/><circle cx="290" cy="232.4" r="1.1" fill="#4a3826"/><path d="M319.8 253q8.8 4.4 17.6 0l-2 -2.4h-13.6Z" fill="#f2e8cf" stroke="#4a3826" stroke-width="1.1" stroke-linecap="round" stroke-linejoin="round"/><path d="M328.6 251V210.9" fill="none" stroke="#4a3826" stroke-width="1" stroke-linecap="round" stroke-linejoin="round"/><path d="M321.6 222.7h14" fill="none" stroke="#4a3826" stroke-width="0.8" stroke-linecap="round" stroke-linejoin="round"/><path d="M328.6 210.9l4 1.4l-4 1.4" fill="none" stroke="#4a3826" stroke-width="0.7" stroke-linecap="round" stroke-linejoin="round"/><path d="M328.6 222.7L320.6 251M328.6 222.7L336.6 251" fill="none" stroke="#4a3826" stroke-width="0.45" stroke-opacity="0.8"/><path d="M343.3 248.8q8.8 4.4 17.6 0l-2 -2.4h-13.6Z" fill="#f2e8cf" stroke="#4a3826" stroke-width="1.1" stroke-linecap="round" stroke-linejoin="round"/><path d="M352.1 246.8V196.2" fill="none" stroke="#4a3826" stroke-width="1" stroke-linecap="round" stroke-linejoin="round"/><path d="M345.1 210.9h14" fill="none" stroke="#4a3826" stroke-width="0.8" stroke-linecap="round" stroke-linejoin="round"/><path d="M352.1 196.2l4 1.4l-4 1.4" fill="none" stroke="#4a3826" stroke-width="0.7" stroke-linecap="round" stroke-linejoin="round"/><path d="M352.1 210.9L344.1 246.8M352.1 210.9L360.1 246.8" fill="none" stroke="#4a3826" stroke-width="0.45" stroke-opacity="0.8"/><path d="M368.6 252.7q8.8 4.4 17.6 0l-2 -2.4h-13.6Z" fill="#f2e8cf" stroke="#4a3826" stroke-width="1.1" stroke-linecap="round" stroke-linejoin="round"/><path d="M377.4 250.7V198.5" fill="none" stroke="#4a3826" stroke-width="1" stroke-linecap="round" stroke-linejoin="round"/><path d="M370.4 213.7h14" fill="none" stroke="#4a3826" stroke-width="0.8" stroke-linecap="round" stroke-linejoin="round"/><path d="M377.4 198.5l4 1.4l-4 1.4" fill="none" stroke="#4a3826" stroke-width="0.7" stroke-linecap="round" stroke-linejoin="round"/><path d="M377.4 213.7L369.4 250.7M377.4 213.7L385.4 250.7" fill="none" stroke="#4a3826" stroke-width="0.45" stroke-opacity="0.8"/><path d="M391.7 253.2q8.8 4.4 17.6 0l-2 -2.4h-13.6Z" fill="#f2e8cf" stroke="#4a3826" stroke-width="1.1" stroke-linecap="round" stroke-linejoin="round"/><path d="M400.5 251.2V190.6" fill="none" stroke="#4a3826" stroke-width="1" stroke-linecap="round" stroke-linejoin="round"/><path d="M393.5 208.1h14" fill="none" stroke="#4a3826" stroke-width="0.8" stroke-linecap="round" stroke-linejoin="round"/><path d="M400.5 190.6l4 1.4l-4 1.4" fill="none" stroke="#4a3826" stroke-width="0.7" stroke-linecap="round" stroke-linejoin="round"/><path d="M400.5 208.1L392.5 251.2M400.5 208.1L408.5 251.2" fill="none" stroke="#4a3826" stroke-width="0.45" stroke-opacity="0.8"/><path d="M419.9 252.8q8.8 4.4 17.6 0l-2 -2.4h-13.6Z" fill="#f2e8cf" stroke="#4a3826" stroke-width="1.1" stroke-linecap="round" stroke-linejoin="round"/><path d="M428.7 250.8V195" fill="none" stroke="#4a3826" stroke-width="1" stroke-linecap="round" stroke-linejoin="round"/><path d="M421.7 211.1h14" fill="none" stroke="#4a3826" stroke-width="0.8" stroke-linecap="round" stroke-linejoin="round"/><path d="M428.7 195l4 1.4l-4 1.4" fill="none" stroke="#4a3826" stroke-width="0.7" stroke-linecap="round" stroke-linejoin="round"/><path d="M428.7 211.1L420.7 250.8M428.7 211.1L436.7 250.8" fill="none" stroke="#4a3826" stroke-width="0.45" stroke-opacity="0.8"/><g opacity="0.9"><path d="M79.4 257.7q15 8 29.9 0l-3.4 -2.8h-23Z" fill="#f2e8cf" stroke="#4a3826" stroke-width="1.3" stroke-linecap="round" stroke-linejoin="round"/><path d="M94.4 254.9V234.7" fill="none" stroke="#4a3826" stroke-width="1.3" stroke-linecap="round" stroke-linejoin="round"/><path d="M94.4 235.9q-12.6 8 0 17.3Z" fill="#f2e8cf" stroke="#4a3826" stroke-width="1.3" stroke-linecap="round" stroke-linejoin="round"/><path d="M96 237q9.2 6.9 1.2 15Z" fill="#f2e8cf" stroke="#4a3826" stroke-width="1.3" stroke-linecap="round" stroke-linejoin="round"/><path d="M94.4 234.7l5.8 2.1l-5.7 2.1Z" fill="#4a3826"/><path d="M73.7 263.5h9.2m5.8 0h11.5m4.6 0h8" fill="none" stroke="#857257" stroke-width="0.8" stroke-opacity="0.55"/></g><path d="M487 236Q463 240 445 248L445 254" fill="none" stroke="#4a3826" stroke-width="1.6" stroke-linecap="round" stroke-linejoin="round"/><path d="M442 254L443 232L447 232L448 254Z" fill="#f2e8cf" stroke="#4a3826" stroke-width="1" stroke-linecap="round" stroke-linejoin="round"/><path d="M442.4 232L445 228L447.6 232Z" fill="#f2e8cf" stroke="#4a3826" stroke-width="0.9" stroke-linecap="round" stroke-linejoin="round"/><circle cx="445" cy="230.6" r="1" fill="#4a3826"/><path d="M222.1 95q2.6 -3.3 5.3 -0.7q2.7 -2.6 5.3 0.7" fill="none" stroke="#4a3826" stroke-width="0.8" stroke-linecap="round" stroke-linejoin="round"/><path d="M427.7 78.1q2.4 -3 4.9 -0.6q2.5 -2.4 4.9 0.6" fill="none" stroke="#4a3826" stroke-width="0.8" stroke-linecap="round" stroke-linejoin="round"/><path d="M455 46.1L458 23M467 46.1L464 23" fill="none" stroke="#4a3826" stroke-width="0.6" stroke-opacity="0.7"/><g class="vellum-arms"><clipPath id="vellum-arms-antique-42-0"><path d="M447.5 46.07L474.5 46.07L474.5 60.73Q474.5 72.2 461 77.93Q447.5 72.2 447.5 60.73Z"/></clipPath><g clip-path="url(#vellum-arms-antique-42-0)"><rect x="447.5" y="46.07" width="27" height="31.86" fill="#efe8d6"/><path d="M461 46.07L461 77.93" fill="none" stroke="#2f5a86" stroke-width="5.4" stroke-linejoin="round"/></g><path d="M447.5 46.07L474.5 46.07L474.5 60.73Q474.5 72.2 461 77.93Q447.5 72.2 447.5 60.73Z" fill="none" stroke="#4a3826" stroke-width="1.21" stroke-linejoin="round"/></g><rect x="0" y="0" width="520" height="384" filter="url(#prospect-parch-antique-42-0)" opacity="0.5"/><rect x="0" y="0" width="520" height="384" fill="url(#prospect-vig-antique-42-0)"/><line x1="184" y1="290" x2="336" y2="290" stroke="#4a3826" stroke-width="0.9"/><path d="M260 286.8L263.2 290L260 293.2L256.8 290Z" fill="#4a3826"/><text x="260" y="308" text-anchor="middle" font-family="&apos;Iowan Old Style&apos;, &apos;Palatino&apos;, &apos;Georgia&apos;, serif" font-size="14.5" letter-spacing="1.3" fill="#4a3826">THE PROSPECT OF LAUKUWELUA</text><text x="260" y="324" text-anchor="middle" font-family="&apos;Iowan Old Style&apos;, &apos;Palatino&apos;, &apos;Georgia&apos;, serif" font-size="8.5" letter-spacing="1.6" fill="#4a3826">FOUNDED AN. 451</text><text x="260" y="340" text-anchor="middle" font-family="&apos;Iowan Old Style&apos;, &apos;Palatino&apos;, &apos;Georgia&apos;, serif" font-size="9.5" font-style="italic" fill="#857257">chief port of the Chiefdom of Rekekoa</text><text x="260" y="353" text-anchor="middle" font-family="&apos;Iowan Old Style&apos;, &apos;Palatino&apos;, &apos;Georgia&apos;, serif" font-size="8" font-style="italic" letter-spacing="1.1" fill="#857257">A. The Keep.  B. The Quay.  C. The Mole.</text><text x="260" y="167.4" text-anchor="middle" font-family="&apos;Iowan Old Style&apos;, &apos;Palatino&apos;, &apos;Georgia&apos;, serif" font-size="9.5" font-style="italic" fill="#f2e8cf" stroke="#f2e8cf" stroke-width="2.6">A</text><text x="260" y="167.4" text-anchor="middle" font-family="&apos;Iowan Old Style&apos;, &apos;Palatino&apos;, &apos;Georgia&apos;, serif" font-size="9.5" font-style="italic" fill="#4a3826">A</text><line x1="260" y1="169.9" x2="260" y2="175.4" stroke="#4a3826" stroke-width="0.5" stroke-dasharray="1.2 1.6"/><text x="215" y="226" text-anchor="middle" font-family="&apos;Iowan Old Style&apos;, &apos;Palatino&apos;, &apos;Georgia&apos;, serif" font-size="9.5" font-style="italic" fill="#f2e8cf" stroke="#f2e8cf" stroke-width="2.6">B</text><text x="215" y="226" text-anchor="middle" font-family="&apos;Iowan Old Style&apos;, &apos;Palatino&apos;, &apos;Georgia&apos;, serif" font-size="9.5" font-style="italic" fill="#4a3826">B</text><line x1="215" y1="228.5" x2="215" y2="234" stroke="#4a3826" stroke-width="0.5" stroke-dasharray="1.2 1.6"/><text x="445" y="236" text-anchor="middle" font-family="&apos;Iowan Old Style&apos;, &apos;Palatino&apos;, &apos;Georgia&apos;, serif" font-size="9.5" font-style="italic" fill="#f2e8cf" stroke="#f2e8cf" stroke-width="2.6">C</text><text x="445" y="236" text-anchor="middle" font-family="&apos;Iowan Old Style&apos;, &apos;Palatino&apos;, &apos;Georgia&apos;, serif" font-size="9.5" font-style="italic" fill="#4a3826">C</text><line x1="445" y1="238.5" x2="445" y2="244" stroke="#4a3826" stroke-width="0.5" stroke-dasharray="1.2 1.6"/><text x="260" y="366" text-anchor="middle" font-family="&apos;Iowan Old Style&apos;, &apos;Palatino&apos;, &apos;Georgia&apos;, serif" font-size="8" letter-spacing="2.2" fill="#857257">VELLUM · CHART № 42</text><rect x="10" y="10" width="500" height="364" fill="none" stroke="#4a3826" stroke-width="2"/><rect x="14" y="14" width="492" height="356" fill="none" stroke="#4a3826" stroke-width="0.7"/></svg>