<svg xmlns="http://www.w3.org/2000/svg" viewBox="0 0 520 384" width="520" height="384" role="img" aria-label="Direction B, Homaitani"><rect x="0" y="0" width="520" height="384" fill="#faf7ef"/><path d="M28.6 147.4H490.8M27.3 145.9H492.8M27.7 144.1H490.2M27.4 142.5H492.5M28.3 140.3H490.4M29.7 137.8H492.1M27.7 135.4H492.8M27.4 132.7H492.8M29.9 129.9H492.1M27.6 127H188.5M257.4 126.9H490.6M29.4 123.7H129.9M167.8 123.4H491.3M29.3 120H100.9M154.7 120.3H356.7M394.7 120.1H492.2M27.8 116.7H289.5M334.2 116.5H491.5M29.6 113H285.6M320.2 112.9H491.2M27.1 109.2H93.3M129.7 109.2H374M426.9 109.1H492.2M28.5 104.9H129.2M358.9 104.9H492.2M190 105H252.8M28.8 100.8H103.5M427.2 100.7H492.8M356.2 100.6H373.6M143.6 100.6H255.2M29.5 96.2H107M178.1 96.3H246.5M398.1 96.2H490M325.7 96.3H351M29 91.7H115.6M136.1 91.6H226.4M459.6 91.5H491.6M272.4 91.7H383M29.6 86.5H130.4M189.3 86.7H393.4M448.9 86.6H491.2M27.8 81.7H143.7M210.1 81.7H492.4M29.2 76.1H97.9M157.1 76.1H254.1M282.2 76.4H358.8M402.3 76.1H490.6M27 70.5H60.3M86.1 70.9H261.9M310 70.7H369M421.2 70.8H490M27.5 64.8H229.1M289 65.1H490.9M29.9 58.9H93.4M147.6 59.1H293.7M315.9 59H491.5M27.7 52.8H227.9M297.6 52.9H491.3M28.9 46.2H100.3M144.8 46.5H255.7M301.8 46.4H337.3M399.4 46.4H490.5M27.6 39.6H310.6M355.1 39.8H491.3" fill="none" stroke="#241c10" stroke-width="0.32" stroke-opacity="0.55" stroke-linecap="butt"/><path d="M383.7 91.1q12.3 -5.2 24.6 0q12.3 -7.7 24.6 0q12.3 -5.3 24.6 0M391.1 92.1H450.2M397.3 93.7H444M407.4 95.3H433.9M411.3 96.9H430.1M450.6 88.8q3.6 -1.4 6.7 0.6M448.7 90.5q3 -1.4 6.9 0.6M394.5 86.7q4 -1.4 6.7 0.6M429 88.4q2.1 -1.4 5.7 0.6M423 87.9q3.5 -1.4 5.9 0.6M435.9 90.4q2.7 -1.4 6.2 0.6" fill="none" stroke="#241c10" stroke-width="0.4" stroke-opacity="0.7"/><path d="M251.6 103.3q10.7 -6.3 21.5 0q10.7 -8.2 21.5 0q10.7 -13.2 21.5 0q10.7 -7.7 21.5 0q10.7 -6.3 21.5 0M261.6 104.3H349.1M268.5 105.9H342.1M271.6 107.5H339M278.8 109.1H331.8M352.4 102.7q2.7 -1.4 5.5 0.6M348.5 100.3q2.4 -1.4 6.4 0.6M276.5 102.7q3.2 -1.4 6 0.6M310.1 98.2q3.4 -1.4 5.7 0.6M285 99.2q2.9 -1.4 4.9 0.6M328.6 98.8q3.1 -1.4 5.8 0.6M298.1 99.5q3 -1.4 5.1 0.6M280.6 101.8q2.7 -1.4 5.7 0.6M348.7 101.3q3.1 -1.4 6.5 0.6M305.4 101.5q2.6 -1.4 6.3 0.6" fill="none" stroke="#241c10" stroke-width="0.4" stroke-opacity="0.7"/><path d="M137.9 77.5q1.1 -1.5 2.2 -0.3q1.1 -1.2 2.2 0.3M144.6 79.1q0.8 -1.1 1.6 -0.2q0.8 -0.8 1.6 0.2M148.9 77.2q0.9 -1.3 1.9 -0.3q0.9 -1 1.9 0.3M153.7 80.6q1.1 -1.4 2.1 -0.3q1.1 -1.1 2.1 0.3M158.8 77.5q0.8 -1.1 1.7 -0.2q0.8 -0.9 1.7 0.2" fill="none" stroke="#241c10" stroke-width="0.6" stroke-linecap="round" stroke-linejoin="round"/><g transform="translate(0 -84)"><path d="M29 234L32.6 234L36.2 234L39.8 234L43.4 234L47 234L50.7 234L54.3 234L57.9 234L61.5 234L65.1 234L68.7 234L72.3 234L75.9 234L79.5 234L83.1 234L86.8 234L90.4 234L94 234L97.6 234L101.2 234L104.8 234L108.4 234L112 234L115.6 234L119.2 234L122.8 234L126.5 234L130.1 234L133.7 234L137.3 234L140.9 234L144.5 234L148.1 234L151.7 234L155.3 234L158.9 234L162.5 234L166.2 234L169.8 234L173.4 234L177 234L180.6 234L184.2 234L187.8 234L191.4 234L195 234L198.6 234L202.3 234L205.9 234L209.5 234L213.1 234L216.7 234L220.3 234L223.9 234L227.5 234L231.1 234L234.7 234L238.3 234L242 234L245.6 234L249.2 234L252.8 234L256.4 234L260 234L263.6 234L267.2 231.7L270.8 228.9L274.4 226L278 223.1L281.7 220.1L285.3 219.6L288.9 219.2L292.5 219.5L296.1 219.8L299.7 222.5L303.3 225.1L306.9 229.7L310.5 234L314.1 234L317.8 234L321.4 234L325 234L328.6 234L332.2 234L335.8 234L339.4 234L343 234L346.6 234L350.2 234L353.8 234L357.5 234L361.1 234L364.7 234L368.3 234L371.9 234L375.5 234L379.1 234L382.7 234L386.3 234L389.9 234L393.5 234L397.2 234L400.8 234L404.4 234L408 234L411.6 234L415.2 234L418.8 234L422.4 234L426 234L429.6 234L433.3 234L436.9 234L440.5 234L444.1 234L447.7 234L451.3 234L454.9 234L458.5 234L462.1 234L465.7 234L469.3 234L473 234L476.6 234L480.2 234L483.8 234L487.4 234L491 234Z" fill="#faf7ef" stroke="#241c10" stroke-width="0.9" stroke-linecap="round" stroke-linejoin="round"/><path d="M300.4 223L304.6 226.8M293.3 219.6L309.3 234M289.6 219.2L306 234M288.9 221.6L302.7 234M288.9 224.6L299.3 234M288.9 227.6L296 234M288.9 230.6L292.7 234" fill="none" stroke="#241c10" stroke-width="0.42" stroke-opacity="0.6" stroke-linecap="butt"/><path d="M294.8 225.1L296.5 228.8M291.3 221.1L297.2 234M289.5 220.8L295.6 234M288.9 222.9L293.9 234M288.9 226.5L292.3 234M288.9 230.1L290.6 234" fill="none" stroke="#241c10" stroke-width="0.38" stroke-opacity="0.5" stroke-linecap="butt"/><path d="M71.3 234.9l0.8 0.3M56.9 234l0.8 0.3M83.2 234.3l0.8 0.3M30.1 234l0.8 0.3M229.7 234.4l0.8 0.3M116.5 234l0.8 0.3M103.3 234.3l0.8 0.3M64.3 234.1l0.8 0.3M41.9 234.1l0.8 0.3M247.5 234.3l0.8 0.3M51.4 234.1l0.8 0.3M92.1 234.8l0.8 0.3M87.2 234.1l0.8 0.3M111.2 234.6l0.8 0.3M166.6 234.1l0.8 0.3M203.6 234.9l0.8 0.3M175.4 234.3l0.8 0.3M151.4 234.2l0.8 0.3M221.2 234.3l0.8 0.3M221.9 234.3l0.8 0.3M217.1 234.5l0.8 0.3M109.5 234.4l0.8 0.3M38.2 234.5l0.8 0.3M236.3 234.6l0.8 0.3M247.2 235l0.8 0.3" fill="none" stroke="#241c10" stroke-width="0.5" stroke-opacity="0.6"/><path d="M286 230.5V229.1M285.2 230.5q0.8 -0.3 1.6 0" fill="none" stroke="#241c10" stroke-width="0.9" stroke-linecap="round" stroke-linejoin="round"/><path d="M287.5 228.3Q287.7 227.4 286.8 227.1Q286 226.5 285.2 227.1Q284.2 227.4 284.3 228.3Q284.2 229.1 285.3 229.4Q286 230 286.8 229.5Q287.6 229.1 287.5 228.3Z" fill="#faf7ef" stroke="#241c10" stroke-width="0.8" stroke-linecap="round" stroke-linejoin="round"/><path d="M285.2 227.4L286 228.5" fill="none" stroke="#241c10" stroke-width="0.4" stroke-opacity="0.8" stroke-linecap="butt"/><path d="M285.9 228.6q0.6 -0.8 0.5 -1.4M286.2 229.1q0.8 -0.5 0.8 -1.1" fill="none" stroke="#241c10" stroke-width="0.45" stroke-linecap="round" stroke-linejoin="round"/><path d="M296 228.8V227.6M295.2 228.8q0.7 -0.3 1.5 0" fill="none" stroke="#241c10" stroke-width="0.9" stroke-linecap="round" stroke-linejoin="round"/><path d="M297.5 226.9Q297.6 225.9 296.8 225.6Q296 225.1 295.2 225.6Q294.4 226 294.7 226.9Q294.5 227.7 295.3 228Q296 228.5 296.7 228Q297.6 227.7 297.5 226.9Z" fill="#faf7ef" stroke="#241c10" stroke-width="0.8" stroke-linecap="round" stroke-linejoin="round"/><path d="M295.2 225.9L296 227" fill="none" stroke="#241c10" stroke-width="0.4" stroke-opacity="0.8" stroke-linecap="butt"/><path d="M295.8 227.1q0.6 -0.7 0.4 -1.3M296.1 227.6q0.7 -0.4 0.7 -1" fill="none" stroke="#241c10" stroke-width="0.45" stroke-linecap="round" stroke-linejoin="round"/><path d="M305.1 233.1V231.5M304.2 233.1q0.9 -0.4 1.8 0" fill="none" stroke="#241c10" stroke-width="0.9" stroke-linecap="round" stroke-linejoin="round"/><path d="M306.9 230.7Q307 229.6 306 229.2Q305.1 228.7 304.2 229.3Q303.1 229.7 303.2 230.7Q303.1 231.7 304.2 232Q305.1 232.7 306 232Q307 231.7 306.9 230.7Z" fill="#faf7ef" stroke="#241c10" stroke-width="0.8" stroke-linecap="round" stroke-linejoin="round"/><path d="M304.2 229.3L305.1 230.5M304.2 231L305 232" fill="none" stroke="#241c10" stroke-width="0.4" stroke-opacity="0.8" stroke-linecap="butt"/><path d="M304.9 231q0.7 -0.9 0.5 -1.6M305.3 231.5q0.9 -0.5 0.9 -1.2" fill="none" stroke="#241c10" stroke-width="0.45" stroke-linecap="round" stroke-linejoin="round"/><path d="M29 232L37 232L45 232L53 232L61 232L69 232L77 232L85 232L93 232L101 232L109 232L117 232L125 232L133 232L141 232L149 232L157 232L165 232L173 232L181 232L189 232L197 232L205 232L213 232L221 232L229 232L237 232L245 232L253 232L261 232L269 232L277 232L285 232L293 232L301 232L309 232L317 232L325 232L333 232L341 232L349 232L357 232L365 232L373 232L381 232L389 232L397 232L405 232L413 232L421 232L429 232L437 232L445 232L453 232L461 232L469 232L477 232L485 232" fill="none" stroke="#241c10" stroke-width="1.1" stroke-linecap="round" stroke-linejoin="round"/><path d="M237.4 224L237.4 217.2L242.6 219.9L246.9 217.7L250.9 220.4L254.7 219L254.7 224Z" fill="#faf7ef" stroke="#241c10" stroke-width="0.8" stroke-linecap="round" stroke-linejoin="round"/><path d="M254 219.3L254.7 220.1M252.6 219.8L254.7 222.3M251.2 220.3L254.1 223.8M247.5 218.1L251.6 222.9M245.8 218.2L249.1 222.1M244.6 218.9L246.5 221.2M243.3 219.6L244 220.4" fill="none" stroke="#241c10" stroke-width="0.4" stroke-opacity="0.7" stroke-linecap="butt"/><path d="M254.1 219L254.7 222.8M253.9 219L254.7 224M253.6 219L254.4 224M253.4 219L254.2 224M253.1 219L253.9 224M252.9 219L253.7 224M252.6 219L253.4 224M252.4 219L253.2 224M252.1 219L252.9 224M251.9 219L252.7 224M251.6 219L252.4 224M251.4 219L252.2 224M251.1 219L251.9 224M250.9 219L251.7 224M250.6 219L251.4 224M250.4 219L251.2 224M250.1 219L250.9 224M249.9 219L250.7 224M249.6 219L250.4 224M249.5 220L250.2 224" fill="none" stroke="#241c10" stroke-width="0.42" stroke-opacity="0.9" stroke-linecap="butt"/><path d="M239.1 224l2.4 -1.8l2 1.8ZM244.9 224l2.4 -1.8l2 1.8ZM250.7 224l2.4 -1.8l2 1.8Z" fill="#faf7ef" stroke="#241c10" stroke-width="0.7" stroke-linecap="round" stroke-linejoin="round"/><path d="M249.9 224L249.9 214.3L254.7 218.2L258.7 215L262.4 218.8L265.9 216.9L265.9 224Z" fill="#faf7ef" stroke="#241c10" stroke-width="0.8" stroke-linecap="round" stroke-linejoin="round"/><path d="M265.2 217.2L265.9 218M264 217.9L265.9 220.2M262.7 218.6L265.9 222.4M258.2 215.4L265 223.5M257.1 216.3L261.7 221.9M256 217.2L258.5 220.2" fill="none" stroke="#241c10" stroke-width="0.4" stroke-opacity="0.7" stroke-linecap="butt"/><path d="M265.2 216.9L265.9 220.6M265 216.9L265.9 222.1M264.7 216.9L265.9 223.6M264.5 216.9L265.7 224M264.2 216.9L265.4 224M264 216.9L265.2 224M263.7 216.9L264.9 224M263.5 216.9L264.7 224M263.2 216.9L264.4 224M263 216.9L264.2 224M262.7 216.9L263.9 224M262.5 216.9L263.7 224M262.2 216.9L263.4 224M262 216.9L263.2 224M261.7 216.9L262.9 224M261.5 216.9L262.7 224M261.2 216.9L262.4 224M261.1 217.5L262.2 224M261.1 219L261.9 224" fill="none" stroke="#241c10" stroke-width="0.42" stroke-opacity="0.9" stroke-linecap="butt"/><path d="M251.5 224l2.4 -1.8l2 1.8ZM256.8 224l2.4 -1.8l2 1.8ZM262.1 224l2.4 -1.8l2 1.8Z" fill="#faf7ef" stroke="#241c10" stroke-width="0.7" stroke-linecap="round" stroke-linejoin="round"/><path d="M263.7 224L263.7 215L268.4 218.6L272.3 215.6L275.9 219.2L279.4 217.4L279.4 224Z" fill="#faf7ef" stroke="#241c10" stroke-width="0.8" stroke-linecap="round" stroke-linejoin="round"/><path d="M278.7 217.8L279.4 218.5M277.5 218.4L279.4 220.7M276.2 219.1L279.4 222.9M271.8 216L277.8 223.2M270.7 216.9L274.7 221.7M269.6 217.8L271.6 220.2" fill="none" stroke="#241c10" stroke-width="0.4" stroke-opacity="0.7" stroke-linecap="butt"/><path d="M278.8 217.4L279.4 221.2M278.5 217.4L279.4 222.7M278.3 217.4L279.4 224M278 217.4L279.1 224M277.8 217.4L278.9 224M277.5 217.4L278.6 224M277.3 217.4L278.4 224M277 217.4L278.1 224M276.8 217.4L277.9 224M276.5 217.4L277.6 224M276.3 217.4L277.4 224M276 217.4L277.1 224M275.8 217.4L276.9 224M275.5 217.4L276.6 224M275.3 217.4L276.4 224M275 217.4L276.1 224M274.8 217.4L275.9 224M274.7 218.5L275.6 224M274.7 220L275.4 224" fill="none" stroke="#241c10" stroke-width="0.42" stroke-opacity="0.9" stroke-linecap="butt"/><path d="M265.3 224l2.4 -1.8l2 1.8ZM270.5 224l2.4 -1.8l2 1.8ZM275.7 224l2.4 -1.8l2 1.8Z" fill="#faf7ef" stroke="#241c10" stroke-width="0.7" stroke-linecap="round" stroke-linejoin="round"/><path d="M274 224L274 217.1L280.2 219.9L285.4 217.6L290.1 220.3L294.6 219L294.6 224Z" fill="#faf7ef" stroke="#241c10" stroke-width="0.8" stroke-linecap="round" stroke-linejoin="round"/><path d="M293.9 219.2L294.6 220.1M292.4 219.6L294.6 222.3M291 220.1L294.1 223.9M288.6 219.5L291.7 223.2M285.3 217.6L289.3 222.5M283.9 218.2L286.9 221.8M282.6 218.8L284.5 221.1M281.2 219.4L282.1 220.4" fill="none" stroke="#241c10" stroke-width="0.4" stroke-opacity="0.7" stroke-linecap="butt"/><path d="M294 219L294.6 222.7M293.7 219L294.6 224M293.5 219L294.3 224M293.2 219L294.1 224M293 219L293.8 224M292.7 219L293.6 224M292.5 219L293.3 224M292.2 219L293.1 224M292 219L292.8 224M291.7 219L292.6 224M291.5 219L292.3 224M291.2 219L292.1 224M291 219L291.8 224M290.7 219L291.6 224M290.5 219L291.3 224M290.2 219L291.1 224M290 219L290.8 224M289.7 219L290.6 224M289.5 219L290.3 224M289.2 219L290.1 224M289 219L289.8 224M288.7 219L289.6 224M288.5 219L289.3 224M288.4 220.2L289.1 224" fill="none" stroke="#241c10" stroke-width="0.42" stroke-opacity="0.9" stroke-linecap="butt"/><path d="M276.1 224l2.4 -1.8l2 1.8ZM282.9 224l2.4 -1.8l2 1.8ZM289.8 224l2.4 -1.8l2 1.8Z" fill="#faf7ef" stroke="#241c10" stroke-width="0.7" stroke-linecap="round" stroke-linejoin="round"/><path d="M207.7 232L207.7 221.5L214.8 225.7L220.8 222.2L226.2 226.4L231.4 224.3L231.4 232Z" fill="#faf7ef" stroke="#241c10" stroke-width="1" stroke-linecap="round" stroke-linejoin="round"/><path d="M230.7 224.6L231.4 225.4M229.4 225.1L231.4 227.6M228 225.7L231.4 229.8M226.6 226.2L231.4 232M222.6 223.6L228.7 231M220 222.7L226.1 230M218.7 223.4L223.4 228.9M217.5 224.1L220.7 227.9M216.3 224.8L218 226.9" fill="none" stroke="#241c10" stroke-width="0.4" stroke-opacity="0.7" stroke-linecap="butt"/><path d="M230.8 224.3L231.4 228M230.5 224.3L231.4 229.5M230.3 224.3L231.4 231M230 224.3L231.3 232M229.8 224.3L231.1 232M229.5 224.3L230.8 232M229.3 224.3L230.6 232M229 224.3L230.3 232M228.8 224.3L230.1 232M228.5 224.3L229.8 232M228.3 224.3L229.6 232M228 224.3L229.3 232M227.8 224.3L229.1 232M227.5 224.3L228.8 232M227.3 224.3L228.6 232M227 224.3L228.3 232M226.8 224.3L228.1 232M226.5 224.3L227.8 232M226.3 224.3L227.6 232M226 224.3L227.3 232M225.8 224.3L227.1 232M225.5 224.3L226.8 232M225.3 224.3L226.6 232M225 224.3L226.3 232M224.8 224.3L226.1 232M224.5 224.3L225.8 232M224.3 224.4L225.6 232M224.3 225.9L225.3 232M224.3 227.4L225.1 232" fill="none" stroke="#241c10" stroke-width="0.42" stroke-opacity="0.9" stroke-linecap="butt"/><path d="M210.1 232l2.4 -1.8l2 1.8ZM218 232l2.4 -1.8l2 1.8ZM225.9 232l2.4 -1.8l2 1.8Z" fill="#faf7ef" stroke="#241c10" stroke-width="0.7" stroke-linecap="round" stroke-linejoin="round"/><path d="M226.3 232L226.3 221.6L231.5 225.8L235.9 222.3L239.8 226.5L243.6 224.4L243.6 232Z" fill="#faf7ef" stroke="#241c10" stroke-width="1" stroke-linecap="round" stroke-linejoin="round"/><path d="M243 224.7L243.6 225.5M241.8 225.4L243.6 227.7M240.5 226.1L243.6 229.9M235.6 222.5L243.5 231.9M234.5 223.4L240.3 230.3M233.4 224.3L237.1 228.6M232.3 225.1L233.9 227" fill="none" stroke="#241c10" stroke-width="0.4" stroke-opacity="0.7" stroke-linecap="butt"/><path d="M243 224.4L243.6 228.1M242.8 224.4L243.6 229.6M242.5 224.4L243.6 231.1M242.3 224.4L243.5 232M242 224.4L243.3 232M241.8 224.4L243 232M241.5 224.4L242.8 232M241.3 224.4L242.5 232M241 224.4L242.3 232M240.8 224.4L242 232M240.5 224.4L241.8 232M240.3 224.4L241.5 232M240 224.4L241.3 232M239.8 224.4L241 232M239.5 224.4L240.8 232M239.3 224.4L240.5 232M239 224.4L240.3 232M238.8 224.4L240 232M238.5 224.4L239.8 232M238.5 225.5L239.5 232M238.5 227L239.3 232" fill="none" stroke="#241c10" stroke-width="0.42" stroke-opacity="0.9" stroke-linecap="butt"/><path d="M228.1 232l2.4 -1.8l2 1.8ZM233.8 232l2.4 -1.8l2 1.8ZM239.6 232l2.4 -1.8l2 1.8Z" fill="#faf7ef" stroke="#241c10" stroke-width="0.7" stroke-linecap="round" stroke-linejoin="round"/><path d="M239.9 232L239.9 219.8L246 224.7L251.1 220.6L255.8 225.5L260.3 223.1L260.3 232Z" fill="#faf7ef" stroke="#241c10" stroke-width="1" stroke-linecap="round" stroke-linejoin="round"/><path d="M259.6 223.4L260.3 224.2M258.4 224.1L260.3 226.4M257.1 224.8L260.3 228.6M255.8 225.5L260.3 230.8M250.4 221.2L258.9 231.3M249.3 222L255.7 229.6M248.2 222.9L252.5 228M247.1 223.8L249.3 226.4" fill="none" stroke="#241c10" stroke-width="0.4" stroke-opacity="0.7" stroke-linecap="butt"/><path d="M259.6 223.1L260.3 226.8M259.4 223.1L260.3 228.3M259.1 223.1L260.3 229.8M258.9 223.1L260.3 231.3M258.6 223.1L260.1 232M258.4 223.1L259.9 232M258.1 223.1L259.6 232M257.9 223.1L259.4 232M257.6 223.1L259.1 232M257.4 223.1L258.9 232M257.1 223.1L258.6 232M256.9 223.1L258.4 232M256.6 223.1L258.1 232M256.4 223.1L257.9 232M256.1 223.1L257.6 232M255.9 223.1L257.4 232M255.6 223.1L257.1 232M255.4 223.1L256.9 232M255.1 223.1L256.6 232M254.9 223.1L256.4 232M254.6 223.1L256.1 232M254.4 223.1L255.9 232M254.1 223.1L255.6 232M254.1 224.6L255.4 232M254.1 226.1L255.1 232M254.1 227.6L254.9 232" fill="none" stroke="#241c10" stroke-width="0.42" stroke-opacity="0.9" stroke-linecap="butt"/><path d="M241.9 232l2.4 -1.8l2 1.8ZM248.7 232l2.4 -1.8l2 1.8ZM255.5 232l2.4 -1.8l2 1.8Z" fill="#faf7ef" stroke="#241c10" stroke-width="0.7" stroke-linecap="round" stroke-linejoin="round"/><path d="M255.5 232L255.5 219.7L262.3 224.6L268 220.5L273.2 225.5L278.3 223L278.3 232Z" fill="#faf7ef" stroke="#241c10" stroke-width="1" stroke-linecap="round" stroke-linejoin="round"/><path d="M277.6 223.3L278.3 224.1M276.3 224L278.3 226.3M275 224.6L278.3 228.5M273.7 225.2L278.3 230.7M268 220.6L277 231.4M266.8 221.4L274 230.1M265.7 222.2L271.1 228.7M264.5 223L268.1 227.3M263.4 223.9L265.1 225.9" fill="none" stroke="#241c10" stroke-width="0.4" stroke-opacity="0.7" stroke-linecap="butt"/><path d="M277.6 223L278.3 226.7M277.4 223L278.3 228.2M277.1 223L278.3 229.7M276.9 223L278.3 231.2M276.6 223L278.1 232M276.4 223L277.9 232M276.1 223L277.6 232M275.9 223L277.4 232M275.6 223L277.1 232M275.4 223L276.9 232M275.1 223L276.6 232M274.9 223L276.4 232M274.6 223L276.1 232M274.4 223L275.9 232M274.1 223L275.6 232M273.9 223L275.4 232M273.6 223L275.1 232M273.4 223L274.9 232M273.1 223L274.6 232M272.9 223L274.4 232M272.6 223L274.1 232M272.4 223L273.9 232M272.1 223L273.6 232M271.9 223L273.4 232M271.6 223L273.1 232M271.4 223.3L272.9 232M271.4 224.8L272.6 232M271.4 226.3L272.4 232M271.4 227.8L272.1 232" fill="none" stroke="#241c10" stroke-width="0.42" stroke-opacity="0.9" stroke-linecap="butt"/><path d="M257.8 232l2.4 -1.8l2 1.8ZM265.4 232l2.4 -1.8l2 1.8ZM272.9 232l2.4 -1.8l2 1.8Z" fill="#faf7ef" stroke="#241c10" stroke-width="0.7" stroke-linecap="round" stroke-linejoin="round"/><path d="M273.7 232L273.7 220.9L278.4 225.3L282.4 221.6L286.1 226.1L289.6 223.8L289.6 232Z" fill="#faf7ef" stroke="#241c10" stroke-width="1" stroke-linecap="round" stroke-linejoin="round"/><path d="M287.8 225L289.6 227.1M286.6 225.7L289.6 229.3M281.8 222.2L289.6 231.5M280.8 223.1L286.7 230.3M279.7 224.1L283.1 228.1M278.7 225.1L279.4 225.9" fill="none" stroke="#241c10" stroke-width="0.4" stroke-opacity="0.7" stroke-linecap="butt"/><path d="M289 223.8L289.6 227.6M288.7 223.8L289.6 229.1M288.5 223.8L289.6 230.6M288.2 223.8L289.6 232M288 223.8L289.3 232M287.7 223.8L289.1 232M287.5 223.8L288.8 232M287.2 223.8L288.6 232M287 223.8L288.3 232M286.7 223.8L288.1 232M286.5 223.8L287.8 232M286.2 223.8L287.6 232M286 223.8L287.3 232M285.7 223.8L287.1 232M285.5 223.8L286.8 232M285.2 223.8L286.6 232M285 223.8L286.3 232M284.8 224.4L286.1 232M284.8 225.9L285.8 232M284.8 227.4L285.6 232" fill="none" stroke="#241c10" stroke-width="0.42" stroke-opacity="0.9" stroke-linecap="butt"/><path d="M275.3 232l2.4 -1.8l2 1.8ZM280.6 232l2.4 -1.8l2 1.8ZM285.9 232l2.4 -1.8l2 1.8Z" fill="#faf7ef" stroke="#241c10" stroke-width="0.7" stroke-linecap="round" stroke-linejoin="round"/><path d="M285.3 232L285.3 223.6L293.4 227L300.2 224.2L306.3 227.5L312.3 225.9L312.3 232Z" fill="#faf7ef" stroke="#241c10" stroke-width="1" stroke-linecap="round" stroke-linejoin="round"/><path d="M311.5 226.1L312.3 227M310 226.5L312.3 229.2M308.6 226.9L312.3 231.4M307.1 227.3L310.6 231.6M304.6 226.6L308.2 230.9M301.3 224.8L305.9 230.3M299.3 224.6L303.5 229.7M297.9 225.1L301.2 229M296.5 225.7L298.8 228.4M295.2 226.3L296.4 227.8" fill="none" stroke="#241c10" stroke-width="0.4" stroke-opacity="0.7" stroke-linecap="butt"/><path d="M311.6 225.9L312.3 229.6M311.4 225.9L312.3 231.1M311.1 225.9L312.2 232M310.9 225.9L311.9 232M310.6 225.9L311.7 232M310.4 225.9L311.4 232M310.1 225.9L311.2 232M309.9 225.9L310.9 232M309.6 225.9L310.7 232M309.4 225.9L310.4 232M309.1 225.9L310.2 232M308.9 225.9L309.9 232M308.6 225.9L309.7 232M308.4 225.9L309.4 232M308.1 225.9L309.2 232M307.9 225.9L308.9 232M307.6 225.9L308.7 232M307.4 225.9L308.4 232M307.1 225.9L308.2 232M306.9 225.9L307.9 232M306.6 225.9L307.7 232M306.4 225.9L307.4 232M306.1 225.9L307.2 232M305.9 225.9L306.9 232M305.6 225.9L306.7 232M305.4 225.9L306.4 232M305.1 225.9L306.2 232M304.9 225.9L305.9 232M304.6 225.9L305.7 232M304.4 225.9L305.4 232M304.2 226.2L305.2 232M304.2 227.7L304.9 232" fill="none" stroke="#241c10" stroke-width="0.42" stroke-opacity="0.9" stroke-linecap="butt"/><path d="M288 232l2.4 -1.8l2 1.8ZM297 232l2.4 -1.8l2 1.8ZM306 232l2.4 -1.8l2 1.8Z" fill="#faf7ef" stroke="#241c10" stroke-width="0.7" stroke-linecap="round" stroke-linejoin="round"/><path d="M290.7 232L290.7 204.6L294.1 210.8L297 201.9L300.4 208.1L300.4 232Z" fill="#faf7ef" stroke="#241c10" stroke-width="1" stroke-linecap="round" stroke-linejoin="round"/><path d="M299.7 208.1L300.4 211.8M299.5 208.1L300.4 213.3M299.2 208.1L300.4 214.8M299 208.1L300.4 216.3M298.7 208.1L300.4 217.8M298.5 208.1L300.4 219.3M298.2 208.1L300.4 220.8M298 208.1L300.4 222.3M297.7 208.1L300.4 223.8M297.5 208.1L300.4 225.3M297.5 209.5L300.4 226.8M297.5 211L300.4 228.3M297.5 212.5L300.4 229.8M297.5 214L300.4 231.3M297.5 215.5L300.2 232M297.5 217L300 232M297.5 218.5L299.7 232M297.5 220L299.5 232M297.5 221.5L299.2 232M297.5 223L299 232M297.5 224.5L298.7 232M297.5 226L298.5 232M297.5 227.5L298.2 232" fill="none" stroke="#241c10" stroke-width="0.42" stroke-opacity="0.9" stroke-linecap="butt"/><path d="M291.5 214.5H299.6M291.5 217.5H299.6M291.5 220.5H299.6M291.5 223.5H299.6M291.5 226.5H299.6M291.5 229.5H299.6" fill="none" stroke="#241c10" stroke-width="0.3" stroke-opacity="0.55"/><path d="M291.7 232l2.4 -1.8l2 1.8ZM294.9 232l2.4 -1.8l2 1.8ZM298.1 232l2.4 -1.8l2 1.8Z" fill="#faf7ef" stroke="#241c10" stroke-width="0.7" stroke-linecap="round" stroke-linejoin="round"/></g><path d="M25.5 155.2H46.6M53.5 155.2H73.5M79.3 155.2H127.9M134.9 155.2H167M170.6 155.2H191.9M199.8 155.2H234.2M238.1 155.2H281.2M283.9 155.2H310.7M315.6 155.2H345.2M349.2 155.2H393M398.4 155.2H429.4M432.1 155.2H453.8M459.6 155.2H491.1M496.6 155.2H497M26.1 157.8H53.9M60.1 157.8H84.8M89.4 157.8H135.3M139.5 157.8H182.9M187 157.8H216.4M223.5 157.8H271.1M276.5 157.8H314.5M321.9 157.8H359.9M365.5 157.8H415M419.4 157.8H438.3M441.5 157.8H456.6M461.2 157.8H478.5M484.8 157.8H497M23.6 160.3H45.4M51.7 160.3H99.7M101.8 160.3H154.1M157.7 160.3H188.5M192 160.3H216.8M219.3 160.3H252.5M254.7 160.3H285.7M288.8 160.3H322.3M325.9 160.3H348.3M352 160.3H404.8M412.1 160.3H453.7M460.9 160.3H485.1M487.4 160.3H497M23.8 162.8H61.4M67 162.8H89.1M91.5 162.8H106.5M112 162.8H154.7M156.8 162.8H175.6M181.9 162.8H204.6M208.9 162.8H233.7M238.7 162.8H257.1M262.4 162.8H309.4M315.8 162.8H331.4M338.3 162.8H378.6M383 162.8H411.1M414.4 162.8H465.5M470.6 162.8H497M28 165.2H57.8M65 165.2H93.4M99.5 165.2H132.5M137.3 165.2H168.8M172 165.2H192.6M198.2 165.2H239.6M244.4 165.2H286.1M289.1 165.2H317.7M324.7 165.2H358.3M365.7 165.2H393M396.3 165.2H450.2M453.1 165.2H489.9M495.9 165.2H497M25.4 167.6H70.9M75 167.6H123M128 167.6H160.6M164.7 167.6H213.7M217.6 167.6H265.6M270.2 167.6H304.9M310.1 167.6H345.3M350.4 167.6H379.1M381.2 167.6H419.3M422.1 167.6H447.4M452.9 167.6H479.1M481.8 167.6H497M28.1 169.9H76.1M81.5 169.9H110.4M117.5 169.9H145.4M151.7 169.9H190M197.4 169.9H236.9M241.5 169.9H271.1M277.4 169.9H292.3M297.4 169.9H323.6M326.5 169.9H344.1M351.3 169.9H368.8M374.6 169.9H396.1M401 169.9H425.8M430.1 169.9H450.2M455.1 169.9H487M491.6 169.9H497M28.7 172.1H73.2M81 172.1H134.4M138.4 172.1H160.5M166.1 172.1H209.5M214.9 172.1H231.3M233.5 172.1H273.9M276.8 172.1H310.1M312.2 172.1H333.6M338.3 172.1H361.6M368 172.1H405.6M410.9 172.1H441.6M446.9 172.1H474.1M477 172.1H497M23.5 174.3H64.7M69.9 174.3H112.9M115 174.3H162M169.2 174.3H214.2M221.7 174.3H246.8M252.1 174.3H299.5M303.2 174.3H351.9M356.1 174.3H381.7M384.5 174.3H413.8M416.9 174.3H455.4M460.6 174.3H477.8M481.8 174.3H497M26.9 176.4H76.4M82.2 176.4H118.1M124.4 176.4H166.8M172.6 176.4H216.3M222.3 176.4H254.4M260 176.4H287M293.5 176.4H320M323.9 176.4H346.7M352.5 176.4H393M398.4 176.4H430.8M434.9 176.4H466M470.1 176.4H485.2M493 176.4H497M24.1 178.5H50.4M57.2 178.5H110.1M115.6 178.5H161.5M165.7 178.5H191.9M195 178.5H235.9M239 178.5H284.5M291.3 178.5H306.3M312.7 178.5H343.4M346.1 178.5H362.4M369 178.5H406.4M411.3 178.5H431.1M435.7 178.5H489.5M494.9 178.5H497M28.7 180.5H46.2M49.8 180.5H86M89.8 180.5H121.7M125.1 180.5H152.6M156 180.5H196.5M203.3 180.5H241.5M244.7 180.5H286.8M288.9 180.5H308.9M312.5 180.5H327M329.9 180.5H355.5M359.4 180.5H383.1M390 180.5H420.1M423.6 180.5H458.4M465 180.5H497M28.2 182.4H77.9M83.8 182.4H121M124.9 182.4H150.3M155.3 182.4H181.6M186.3 182.4H234.2M239.7 182.4H287.9M295.5 182.4H330.7M338.1 182.4H381.9M386.4 182.4H414.9M419.5 182.4H464.5M469.1 182.4H497M23.5 184.3H44.3M48.8 184.3H71M74.3 184.3H95.4M100.9 184.3H115.4M119.3 184.3H142.9M145.8 184.3H194.1M199.1 184.3H239.7M247.4 184.3H279.9M287.2 184.3H326.2M332 184.3H352.1M358.4 184.3H392.8M400.1 184.3H421.8M428.8 184.3H482.5M488.9 184.3H497M25.9 186.1H62.2M69.6 186.1H93.2M96.5 186.1H134.8M137.8 186.1H191.6M199.2 186.1H245.5M250.2 186.1H291.4M293.9 186.1H314.8M319.5 186.1H346.3M351.1 186.1H388.4M395.4 186.1H444.8M447.5 186.1H463.5M468.3 186.1H488.8M491 186.1H497M29 187.9H79.2M86.2 187.9H126.2M129.6 187.9H173.3M179.4 187.9H227.5M234.8 187.9H281.9M289.8 187.9H330M333.5 187.9H366.4M368.9 187.9H394.5M397.8 187.9H425.2M428.5 187.9H451.9M454.8 187.9H482M484.2 187.9H497M24.1 189.6H77.2M83.1 189.6H132.2M139.1 189.6H166.1M172.2 189.6H224.3M230.6 189.6H248.5M251.6 189.6H284.4M286.7 189.6H331.5M336.4 189.6H376M381.5 189.6H428.8M434.4 189.6H464.2M471.1 189.6H497M24.3 191.2H67.1M70.7 191.2H117.3M120 191.2H136.4M141.1 191.2H164.3M170.6 191.2H185M188.6 191.2H220.5M224.7 191.2H256.8M259.6 191.2H296.6M304.6 191.2H348.1M350.9 191.2H367.3M369.9 191.2H389.2M397.1 191.2H439.3M443.1 191.2H488.2M495 191.2H497M28.1 192.8H50.6M54.2 192.8H80.5M83.4 192.8H113.2M117.6 192.8H139.1M142.1 192.8H192.4M195.7 192.8H210.2M214.2 192.8H242.8M247.7 192.8H280M287.8 192.8H301.9M304.4 192.8H325.9M328.7 192.8H364.1M370.3 192.8H417.8M423.2 192.8H474.1M479.7 192.8H497M25 194.3H61.6M65.8 194.3H84.4M89.8 194.3H104.3M107.5 194.3H153.6M156.4 194.3H208.7M212.5 194.3H254.4M259 194.3H307.3M310.5 194.3H344.9M348.2 194.3H369.9M372.5 194.3H389.2M391.3 194.3H413.8M420.7 194.3H463.7M470.6 194.3H497M28.5 195.8H57.4M65.1 195.8H80.4M86.4 195.8H105.2M112.7 195.8H130.2M132.7 195.8H174.7M181.3 195.8H202.1M207.2 195.8H237.6M244.8 195.8H293.1M299.5 195.8H325.5M331.7 195.8H370.7M375.4 195.8H417.2M422.7 195.8H440.2M442.8 195.8H482.6M489.3 195.8H497M24.4 197.3H43.8M47.2 197.3H94.5M100.4 197.3H133.2M139.8 197.3H176.8M181.5 197.3H211.1M218 197.3H271.1M277.8 197.3H326.4M331.8 197.3H383.8M390.1 197.3H434.4M439.5 197.3H457.3M464.6 197.3H493.6M26.9 198.8H45.6M48.6 198.8H73.3M78.7 198.8H108.7M116.2 198.8H147.5M151.2 198.8H170.5M178.3 198.8H221.6M224.8 198.8H240.6M247.4 198.8H285.9M293.6 198.8H335.9M341.8 198.8H387.9M395.1 198.8H445.5M451 198.8H497M24 200.3H62.3M68 200.3H104.3M111.3 200.3H126M133.6 200.3H153.2M157.8 200.3H195.7M198.5 200.3H226.3M232.2 200.3H280.5M283.7 200.3H317.9M324.9 200.3H357M363.3 200.3H399.4M407.1 200.3H438.4M444.4 200.3H495.5M25 201.8H43M47 201.8H87.4M90.7 201.8H135.8M139.1 201.8H179.4M184.7 201.8H219.5M222.3 201.8H262.7M265.6 201.8H316.8M321.9 201.8H366.8M374.3 201.8H389.7M392.8 201.8H424.2M426.8 201.8H449.8M457 201.8H497M28.9 203.3H60M63 203.3H109.3M116.2 203.3H146.7M151.8 203.3H197.9M202.2 203.3H221.7M224.4 203.3H271.9M276.9 203.3H300.6M308.3 203.3H325.2M330.2 203.3H367.2M369.8 203.3H410.7M412.8 203.3H438.3M445.3 203.3H463.2M466.3 203.3H482M485 203.3H497M27.9 204.8H73.1M80.9 204.8H96.6M98.7 204.8H115.5M121.7 204.8H149.9M153.1 204.8H183.3M188.7 204.8H229.5M233.8 204.8H258.4M264.7 204.8H297.9M300 204.8H330.4M337.6 204.8H362.5M364.7 204.8H409.7M417.6 204.8H454.5M462.4 204.8H497M23.4 206.3H44.9M50.5 206.3H94.5M100.9 206.3H152.2M156.3 206.3H207.7M212.2 206.3H229.4M235 206.3H288.4M290.5 206.3H324.7M330.1 206.3H353.5M358.4 206.3H376.1M383.6 206.3H402M407.6 206.3H452.4M460 206.3H484.7M488.8 206.3H497M26 207.8H78M83.6 207.8H125.5M128.3 207.8H169.6M172.7 207.8H208.6M211.1 207.8H240.8M248 207.8H281.9M285.4 207.8H307.3M314 207.8H344M348.7 207.8H369.5M377 207.8H391.8M395.7 207.8H444.1M451.6 207.8H497M27.7 209.3H46.6M52.3 209.3H92.1M99.1 209.3H115.1M117.7 209.3H169.6M176.8 209.3H219.7M222.2 209.3H237.7M241.3 209.3H285.5M292.6 209.3H318.9M324.7 209.3H354M356.3 209.3H387.7M393.6 209.3H418.1M423.3 209.3H443.7M450.5 209.3H492.2M495.5 209.3H497M23.7 210.8H61.2M67.3 210.8H100.7M102.9 210.8H126.2M133.1 210.8H156.4M161.9 210.8H204.5M212.1 210.8H248.9M255.7 210.8H270.4M273.3 210.8H318.6M323.8 210.8H361.1M364.3 210.8H386.4M394.2 210.8H441.2M448.1 210.8H466.5M470.8 210.8H494.3M28.7 212.3H61.3M65.9 212.3H94M101.6 212.3H124.4M127.9 212.3H155.8M163.1 212.3H186.4M191.1 212.3H205.6M211.9 212.3H257.5M264.4 212.3H281.3M289.1 212.3H332.6M339.1 212.3H363.6M368.6 212.3H392.7M399.1 212.3H436.1M443.8 212.3H482.6M485.1 212.3H497M24.6 213.8H63.2M66.7 213.8H87.6M94.5 213.8H128.5M136.5 213.8H165.2M170.5 213.8H197.1M202.7 213.8H223.9M226.1 213.8H262.7M267 213.8H284.8M288 213.8H303.8M306 213.8H356.1M363.8 213.8H410.9M414.7 213.8H430.4M436 213.8H451.6M456.1 213.8H492M26.9 215.3H58.5M60.6 215.3H113.9M120.3 215.3H147M153.6 215.3H170.2M174.3 215.3H200.1M202.2 215.3H253.7M259.4 215.3H278.8M285 215.3H331.9M338.1 215.3H371.8M376.6 215.3H425.1M430.4 215.3H468.4M473.6 215.3H497M26.1 216.8H52.5M58.8 216.8H103.9M110.1 216.8H127.4M131 216.8H172.2M177.8 216.8H205.9M208.8 216.8H228.9M231.6 216.8H273.9M277 216.8H309.8M315 216.8H362M369.2 216.8H418.8M424.6 216.8H477.8M483.5 216.8H497M27.9 218.3H66.9M70.4 218.3H97.7M101.9 218.3H117.3M123.9 218.3H147.4M152.4 218.3H205.5M210.2 218.3H258.9M266.6 218.3H300.3M307.5 218.3H338.6M341.7 218.3H375M378 218.3H409.4M416.4 218.3H469.7M472.3 218.3H490.3M493.6 218.3H497M24 219.8H38.1M42.8 219.8H92.9M95.9 219.8H128.7M131.6 219.8H179.8M181.9 219.8H219.7M222 219.8H273M275.6 219.8H304M307.4 219.8H344.4M351.8 219.8H393.6M399.5 219.8H433.7M437.1 219.8H471.4M473.5 219.8H497M25.5 221.3H79.4M82.7 221.3H110.4M115.2 221.3H141.7M146.6 221.3H178.6M186.2 221.3H208.5M211.2 221.3H239.1M246.7 221.3H289.7M292.3 221.3H334.2M339.1 221.3H388.7M395.8 221.3H444.6M448.5 221.3H481.8M485.4 221.3H497M28 222.8H49.2M57.1 222.8H75.8M82.9 222.8H106M108.9 222.8H153.2M160.8 222.8H198.9M201.8 222.8H241.2M244.7 222.8H286.4M293.3 222.8H343.7M349.7 222.8H391.8M398.3 222.8H429.2M433.7 222.8H485.2M487.5 222.8H497M27.9 224.3H50M54.8 224.3H96.8M102.3 224.3H117M120.8 224.3H151.2M158.7 224.3H207.4M214.8 224.3H259.6M262.4 224.3H309.7M316.6 224.3H348.3M354.4 224.3H375.4M380.9 224.3H422.9M428.7 224.3H466.6M471.3 224.3H490.7M495.9 224.3H497M26.5 225.8H54.5M62.3 225.8H97.1M102.5 225.8H132M139.8 225.8H159.7M165.7 225.8H202.7M207.1 225.8H243M249.6 225.8H275M278.4 225.8H330M335.2 225.8H355.6M359.5 225.8H373.5M379.2 225.8H406.8M413.4 225.8H434.7M442 225.8H460.8M465.5 225.8H497M26.9 227.3H63M69.7 227.3H100.5M105.3 227.3H123.7M126.5 227.3H172.2M179.1 227.3H200.6M202.8 227.3H236.5M239.1 227.3H259.5M264.9 227.3H288.4M293.2 227.3H315.8M320.4 227.3H339M344.7 227.3H391.5M393.8 227.3H421.7M426.6 227.3H444.8M449.3 227.3H497M23.1 228.8H52.8M55.1 228.8H90.5M97 228.8H138.9M144.1 228.8H196M203.7 228.8H233.3M238.3 228.8H254.4M261.3 228.8H285.8M292.1 228.8H316.1M321.5 228.8H367.2M373.6 228.8H414.9M422 228.8H447.8M453.5 228.8H487.7M491.7 228.8H497M25.6 230.3H72.1M79.9 230.3H99.3M104.2 230.3H123.9M130.1 230.3H172.7M177.5 230.3H227.3M233.2 230.3H254.7M261.5 230.3H293.5M299.9 230.3H321.3M324.5 230.3H372.5M379 230.3H408M410.6 230.3H456.8M460 230.3H483.6M491.4 230.3H497M24.9 231.8H44.6M49.9 231.8H80.9M88.1 231.8H127.9M133.8 231.8H180.9M187.3 231.8H226.1M229.1 231.8H247.3M254.1 231.8H272.7M278.4 231.8H307.7M315 231.8H353.4M360 231.8H375.8M382.3 231.8H428.2M435.5 231.8H474.2M477.6 231.8H497M25 233.3H53M55.5 233.3H80.3M86.3 233.3H123.8M126.3 233.3H154.7M159.4 233.3H200.3M207.5 233.3H251.2M254.1 233.3H307.3M313.2 233.3H341.5M344.6 233.3H384.7M390.6 233.3H412.2M419.9 233.3H436.8M440.2 233.3H466M470.5 233.3H497M28.6 234.8H72.8M78.4 234.8H118.1M120.7 234.8H166.4M173.4 234.8H224.4M230.2 234.8H262.5M269.5 234.8H288.9M291.7 234.8H306.1M312.5 234.8H356.1M362.2 234.8H400.9M408.8 234.8H423.9M429.6 234.8H467.9M470.9 234.8H488.8M495.6 234.8H497M27.4 236.3H45.8M49.6 236.3H101.9M109.6 236.3H150.9M153 236.3H196.6M202.3 236.3H249M256.1 236.3H277.1M284.4 236.3H308.8M315.1 236.3H367.2M374.3 236.3H410.5M412.8 236.3H461.8M469.5 236.3H497M23.4 237.8H41.8M45.5 237.8H69.1M72.3 237.8H120.4M123.6 237.8H157.8M165.3 237.8H192.8M197.6 237.8H225.3M228 237.8H244.8M248.4 237.8H284.8M288.6 237.8H324.2M328 237.8H364M371 237.8H387.4M393.5 237.8H444.7M447.7 237.8H463.5M470.6 237.8H497M23.3 239.3H45.3M49.8 239.3H67.3M70.6 239.3H99.5M102 239.3H123.6M130.1 239.3H177.1M181.5 239.3H216.3M221 239.3H250.8M256 239.3H303.6M307.2 239.3H354.1M357.3 239.3H395.1M397.6 239.3H449.3M454.8 239.3H494.3" fill="none" stroke="#241c10" stroke-width="0.38" stroke-opacity="0.72" stroke-linecap="butt"/><path d="M23 154H497" fill="none" stroke="#241c10" stroke-width="1" stroke-linecap="round" stroke-linejoin="round"/><g transform="translate(0 -84)"><path d="M278.8 229.9l1.8 -1.9l1.9 1.9ZM211.3 229.8l1.5 -1.6l1.6 1.6ZM203.2 230.2l1.2 -1.3l1.3 1.3ZM277.9 230l1.9 -2.1l2.1 2.1ZM287.7 230.8l1.4 -1.6l1.6 1.6ZM235.5 230.1l2.3 -2.5l2.5 2.5ZM205.6 229.8l1.1 -1.2l1.2 1.2ZM306.2 230.5l1.7 -1.9l1.9 1.9ZM296.8 229.7l1.3 -1.5l1.5 1.5ZM304 229.6l1.5 -1.6l1.6 1.6Z" fill="#faf7ef" stroke="#241c10" stroke-width="0.7" stroke-linecap="round" stroke-linejoin="round"/><path d="M265.6 232l11.5 -10.5M220.9 232l9.5 -12M232.9 232l11.2 -9.2" fill="none" stroke="#241c10" stroke-width="0.8" stroke-linecap="round" stroke-linejoin="round"/><path d="M227.1 235V232.3M225.5 235q1.6 -0.6 3.2 0" fill="none" stroke="#241c10" stroke-width="0.9" stroke-linecap="round" stroke-linejoin="round"/><path d="M230.7 230.7Q230.9 228.9 228.7 228.3Q227 227 225.4 228Q223.7 228.7 224.1 230.7Q223.8 232.4 225.7 233Q227.2 234.2 228.8 233.2Q230.9 232.5 230.7 230.7Z" fill="#faf7ef" stroke="#241c10" stroke-width="0.8" stroke-linecap="round" stroke-linejoin="round"/><path d="M228.7 228.6L229.3 229.5M227.1 228.2L228.7 230.4M227.1 229.9L228.8 232.1M227.1 231.6L228.4 233.3" fill="none" stroke="#241c10" stroke-width="0.4" stroke-opacity="0.8" stroke-linecap="butt"/><path d="M226.8 231.3q1.3 -1.6 1 -2.9M227.5 232.3q1.6 -1 1.6 -2.2" fill="none" stroke="#241c10" stroke-width="0.45" stroke-linecap="round" stroke-linejoin="round"/><g transform="translate(298.9 234) scale(0.90)"><path d="M-6 0H6M-4 -2.4H4M-2 -4.6H2M0 -4.6L0 -7M-1.6 -5L-2.6 -7M1.6 -5L2.6 -7" fill="none" stroke="#241c10" stroke-width="0.8" stroke-linecap="round" stroke-linejoin="round"/></g><g transform="translate(215.2 235) scale(0.80)"><path d="M-6 0H6M-4 -2.4H4M-2 -4.6H2M0 -4.6L0 -7M-1.6 -5L-2.6 -7M1.6 -5L2.6 -7" fill="none" stroke="#241c10" stroke-width="0.8" stroke-linecap="round" stroke-linejoin="round"/></g><path d="M226.4 84q1.1 -1.4 2.1 -0.3q1.1 -1.1 2.1 0.3M232.5 85.6q1.1 -1.4 2.1 -0.3q1.1 -1.1 2.1 0.3M236.2 84.2q0.9 -1.2 1.8 -0.2q0.9 -1 1.8 0.2M243.9 86.3q0.8 -1.1 1.6 -0.2q0.8 -0.9 1.6 0.2M245 83.9q1.1 -1.5 2.2 -0.3q1.1 -1.2 2.2 0.3" fill="none" stroke="#241c10" stroke-width="0.6" stroke-linecap="round" stroke-linejoin="round"/><path d="M214 79.6q0.9 -1.1 1.7 -0.2q0.9 -0.9 1.7 0.2M219.1 81.7q1 -1.3 2 -0.3q1 -1.1 2 0.3M225.9 79.5q1.1 -1.4 2.1 -0.3q1.1 -1.1 2.1 0.3M231 79.5q0.9 -1.2 1.9 -0.2q0.9 -1 1.9 0.2M237.3 78.8q1 -1.4 2.1 -0.3q1 -1.1 2.1 0.3" fill="none" stroke="#241c10" stroke-width="0.6" stroke-linecap="round" stroke-linejoin="round"/><path d="M116.1 103.1q0.9 -1.2 1.9 -0.2q0.9 -1 1.9 0.2M119.3 104.6q1.2 -1.6 2.4 -0.3q1.2 -1.3 2.4 0.3M123.7 102.4q1 -1.3 2 -0.3q1 -1.1 2 0.3M130.9 105.4q0.9 -1.2 1.8 -0.2q0.9 -1 1.8 0.2M132.9 104.2q1.2 -1.6 2.4 -0.3q1.2 -1.3 2.4 0.3" fill="none" stroke="#241c10" stroke-width="0.6" stroke-linecap="round" stroke-linejoin="round"/><path d="M133.6 80.7q1.2 -1.6 2.4 -0.3q1.2 -1.3 2.4 0.3M138.2 84.3q1.1 -1.4 2.1 -0.3q1.1 -1.1 2.1 0.3M144.1 80q0.9 -1.2 1.8 -0.2q0.9 -0.9 1.8 0.2M145.5 83.5q0.8 -1.1 1.6 -0.2q0.8 -0.9 1.6 0.2" fill="none" stroke="#241c10" stroke-width="0.6" stroke-linecap="round" stroke-linejoin="round"/><path d="M220.8 82.5q1.1 -1.5 2.3 -0.3q1.1 -1.2 2.3 0.3M222.5 84.3q1.2 -1.5 2.3 -0.3q1.2 -1.2 2.3 0.3M230.1 83.1q0.8 -1.1 1.6 -0.2q0.8 -0.9 1.6 0.2M234.9 83.5q1.2 -1.6 2.4 -0.3q1.2 -1.3 2.4 0.3M238 83.4q1 -1.4 2.1 -0.3q1 -1.1 2.1 0.3" fill="none" stroke="#241c10" stroke-width="0.6" stroke-linecap="round" stroke-linejoin="round"/><path d="M99.6 92.1q1 -1.4 2 -0.3q1 -1.1 2 0.3M102.6 92.7q1.1 -1.4 2.1 -0.3q1.1 -1.1 2.1 0.3M107.6 91.1q0.8 -1 1.5 -0.2q0.8 -0.8 1.5 0.2M111.8 93.7q1.1 -1.5 2.2 -0.3q1.1 -1.2 2.2 0.3" fill="none" stroke="#241c10" stroke-width="0.6" stroke-linecap="round" stroke-linejoin="round"/></g><path d="M23 228L113 212L193 203L283 210L377 219L497 234L497 285L23 285Z" fill="#faf7ef" stroke="#241c10" stroke-width="1.1" stroke-linecap="round" stroke-linejoin="round"/><path d="M87 216.6L197.6 203.4M35.1 225.8L212.7 204.5M23 230.3L227.9 205.7M23 233.3L243.1 206.9M23 236.3L258.2 208.1M23 239.3L273.4 209.3M23 242.3L288.1 210.5M23 245.3L302 211.8M23 248.3L315.9 213.2M23 251.3L329.8 214.5M23 254.3L343.7 215.8M23 257.3L357.6 217.1M23 260.3L371.5 218.5M23 263.3L384.4 219.9M23 266.3L396.7 221.5M23 269.3L408.9 223M23 272.3L421.2 224.5M23 275.3L433.4 226.1M23 278.3L445.7 227.6M23 281.3L457.9 229.1M23 284.3L470.1 230.6M42.2 285L482.4 232.2M67.2 285L494.6 233.7M92.2 285L497 236.4M117.2 285L497 239.4M142.2 285L497 242.4M167.2 285L497 245.4M192.2 285L497 248.4M217.2 285L497 251.4M242.2 285L497 254.4M267.2 285L497 257.4M292.2 285L497 260.4M317.2 285L497 263.4M342.2 285L497 266.4M367.2 285L497 269.4M392.2 285L497 272.4M417.2 285L497 275.4M442.2 285L497 278.4M467.2 285L497 281.4M492.2 285L497 284.4" fill="none" stroke="#241c10" stroke-width="0.4" stroke-opacity="0.6" stroke-linecap="butt"/><path d="M335.6 232.7q1 -2.2 2.4 -1.4M336.6 232.7q0.6 -1.6 1.8 -1.2M229.8 252.7q1 -2.2 2.4 -1.4M230.8 252.7q0.6 -1.6 1.8 -1.2M149.9 243.1q1 -2.2 2.4 -1.4M150.9 243.1q0.6 -1.6 1.8 -1.2M186.1 239.9q1 -2.2 2.4 -1.4M187.1 239.9q0.6 -1.6 1.8 -1.2M271.2 209.7q1 -2.2 2.4 -1.4M272.2 209.7q0.6 -1.6 1.8 -1.2M311.5 225.6q1 -2.2 2.4 -1.4M312.5 225.6q0.6 -1.6 1.8 -1.2M414.3 230q1 -2.2 2.4 -1.4M415.3 230q0.6 -1.6 1.8 -1.2M270.4 281.8q1 -2.2 2.4 -1.4M271.4 281.8q0.6 -1.6 1.8 -1.2M492.4 256.8q1 -2.2 2.4 -1.4M493.4 256.8q0.6 -1.6 1.8 -1.2M396.9 226.6q1 -2.2 2.4 -1.4M397.9 226.6q0.6 -1.6 1.8 -1.2M271.8 240q1 -2.2 2.4 -1.4M272.8 240q0.6 -1.6 1.8 -1.2M456.8 259.6q1 -2.2 2.4 -1.4M457.8 259.6q0.6 -1.6 1.8 -1.2M194.9 264q1 -2.2 2.4 -1.4M195.9 264q0.6 -1.6 1.8 -1.2M55.3 270.9q1 -2.2 2.4 -1.4M56.3 270.9q0.6 -1.6 1.8 -1.2M108.2 271.1q1 -2.2 2.4 -1.4M109.2 271.1q0.6 -1.6 1.8 -1.2M328.3 256.1q1 -2.2 2.4 -1.4M329.3 256.1q0.6 -1.6 1.8 -1.2M344.4 245q1 -2.2 2.4 -1.4M345.4 245q0.6 -1.6 1.8 -1.2M252.2 241.9q1 -2.2 2.4 -1.4M253.2 241.9q0.6 -1.6 1.8 -1.2M31.4 233.2q1 -2.2 2.4 -1.4M32.4 233.2q0.6 -1.6 1.8 -1.2M151.9 241.7q1 -2.2 2.4 -1.4M152.9 241.7q0.6 -1.6 1.8 -1.2M367 264.5q1 -2.2 2.4 -1.4M368 264.5q0.6 -1.6 1.8 -1.2M138.3 274.7q1 -2.2 2.4 -1.4M139.3 274.7q0.6 -1.6 1.8 -1.2M373.2 242.8q1 -2.2 2.4 -1.4M374.2 242.8q0.6 -1.6 1.8 -1.2M112.3 255.9q1 -2.2 2.4 -1.4M113.3 255.9q0.6 -1.6 1.8 -1.2M360.7 284.7q1 -2.2 2.4 -1.4M361.7 284.7q0.6 -1.6 1.8 -1.2M250.4 274.9q1 -2.2 2.4 -1.4M251.4 274.9q0.6 -1.6 1.8 -1.2M358.4 270.1q1 -2.2 2.4 -1.4M359.4 270.1q0.6 -1.6 1.8 -1.2M212.4 267.3q1 -2.2 2.4 -1.4M213.4 267.3q0.6 -1.6 1.8 -1.2M245.3 250.2q1 -2.2 2.4 -1.4M246.3 250.2q0.6 -1.6 1.8 -1.2M188.1 278.2q1 -2.2 2.4 -1.4M189.1 278.2q0.6 -1.6 1.8 -1.2M495.9 250q1 -2.2 2.4 -1.4M496.9 250q0.6 -1.6 1.8 -1.2M427.7 240.5q1 -2.2 2.4 -1.4M428.7 240.5q0.6 -1.6 1.8 -1.2M221.9 247.7q1 -2.2 2.4 -1.4M222.9 247.7q0.6 -1.6 1.8 -1.2M80.1 243.7q1 -2.2 2.4 -1.4M81.1 243.7q0.6 -1.6 1.8 -1.2M100.7 272.4q1 -2.2 2.4 -1.4M101.7 272.4q0.6 -1.6 1.8 -1.2M121.2 277.7q1 -2.2 2.4 -1.4M122.2 277.7q0.6 -1.6 1.8 -1.2M138.2 241q1 -2.2 2.4 -1.4M139.2 241q0.6 -1.6 1.8 -1.2M327.8 231.4q1 -2.2 2.4 -1.4M328.8 231.4q0.6 -1.6 1.8 -1.2M463.6 263.5q1 -2.2 2.4 -1.4M464.6 263.5q0.6 -1.6 1.8 -1.2M430.9 251.7q1 -2.2 2.4 -1.4M431.9 251.7q0.6 -1.6 1.8 -1.2M367.4 224.4q1 -2.2 2.4 -1.4M368.4 224.4q0.6 -1.6 1.8 -1.2M457.5 240.1q1 -2.2 2.4 -1.4M458.5 240.1q0.6 -1.6 1.8 -1.2M482 275q1 -2.2 2.4 -1.4M483 275q0.6 -1.6 1.8 -1.2M35.3 284.7q1 -2.2 2.4 -1.4M36.3 284.7q0.6 -1.6 1.8 -1.2M83.5 275.7q1 -2.2 2.4 -1.4M84.5 275.7q0.6 -1.6 1.8 -1.2M161.8 236.2q1 -2.2 2.4 -1.4M162.8 236.2q0.6 -1.6 1.8 -1.2M136 258.3q1 -2.2 2.4 -1.4M137 258.3q0.6 -1.6 1.8 -1.2M477.6 248.5q1 -2.2 2.4 -1.4M478.6 248.5q0.6 -1.6 1.8 -1.2M226.6 208.7q1 -2.2 2.4 -1.4M227.6 208.7q0.6 -1.6 1.8 -1.2M236.9 211.1q1 -2.2 2.4 -1.4M237.9 211.1q0.6 -1.6 1.8 -1.2M92.8 225.6q1 -2.2 2.4 -1.4M93.8 225.6q0.6 -1.6 1.8 -1.2M288.7 267.6q1 -2.2 2.4 -1.4M289.7 267.6q0.6 -1.6 1.8 -1.2M376.4 226.7q1 -2.2 2.4 -1.4M377.4 226.7q0.6 -1.6 1.8 -1.2M63.3 254.8q1 -2.2 2.4 -1.4M64.3 254.8q0.6 -1.6 1.8 -1.2M352.2 224.6q1 -2.2 2.4 -1.4M353.2 224.6q0.6 -1.6 1.8 -1.2M478.2 262.2q1 -2.2 2.4 -1.4M479.2 262.2q0.6 -1.6 1.8 -1.2M174.7 220q1 -2.2 2.4 -1.4M175.7 220q0.6 -1.6 1.8 -1.2M353.4 246.8q1 -2.2 2.4 -1.4M354.4 246.8q0.6 -1.6 1.8 -1.2M82 241.3q1 -2.2 2.4 -1.4M83 241.3q0.6 -1.6 1.8 -1.2M497 263.2q1 -2.2 2.4 -1.4M498 263.2q0.6 -1.6 1.8 -1.2M225.9 207.7q1 -2.2 2.4 -1.4M226.9 207.7q0.6 -1.6 1.8 -1.2M321.4 237.5q1 -2.2 2.4 -1.4M322.4 237.5q0.6 -1.6 1.8 -1.2" fill="none" stroke="#241c10" stroke-width="0.5" stroke-opacity="0.8"/><path d="M300 212.6q30 36.7 90 72.4M305 212.6q30 36.7 90 72.4" fill="none" stroke="#241c10" stroke-width="0.45" stroke-dasharray="1.4 1.6" stroke-opacity="0.8"/><path d="M489.9 262L497 264.2M475.6 261.9L497 268.4M461.3 261.8L497 272.6M447.1 261.8L497 276.8M432.8 261.7L497 281M418.5 261.6L496.5 285M404.2 261.5L482.5 285M390 261.4L468.5 285M375.7 261.4L454.5 285M361.4 261.3L440.5 285M347.2 261.2L426.5 285M332.9 261.1L412.5 285M318.6 261L398.5 285M304.3 261L384.5 285M290.1 260.9L370.5 285M275.8 260.8L356.5 285M261.5 260.7L342.5 285M247.3 260.6L328.5 285M233 260.5L314.5 285M218.7 260.5L300.5 285M204.4 260.4L286.5 285M190.2 260.3L272.5 285M175.9 260.2L258.5 285M161.6 260.1L244.5 285M147.4 260.1L230.5 285M133.1 260L216.5 285M118.8 259.9L202.5 285M104.5 259.8L188.5 285M90.3 259.7L174.5 285M76 259.7L160.5 285M61.7 259.6L146.5 285M47.5 259.5L132.5 285M33.2 259.4L118.5 285M23 260.5L104.5 285M23 264.7L90.5 285M23 268.9L76.5 285M23 273.1L62.5 285M23 277.3L48.5 285M23 281.5L34.5 285" fill="none" stroke="#241c10" stroke-width="0.4" stroke-opacity="0.6" stroke-linecap="butt"/><path d="M454.9 274.9q1 -2.2 2.4 -1.4M455.9 274.9q0.6 -1.6 1.8 -1.2M295.4 265q1 -2.2 2.4 -1.4M296.4 265q0.6 -1.6 1.8 -1.2M144.8 282.5q1 -2.2 2.4 -1.4M145.8 282.5q0.6 -1.6 1.8 -1.2M213.4 276.6q1 -2.2 2.4 -1.4M214.4 276.6q0.6 -1.6 1.8 -1.2M252.7 262.1q1 -2.2 2.4 -1.4M253.7 262.1q0.6 -1.6 1.8 -1.2M93.3 261q1 -2.2 2.4 -1.4M94.3 261q0.6 -1.6 1.8 -1.2M203.2 285q1 -2.2 2.4 -1.4M204.2 285q0.6 -1.6 1.8 -1.2M126.3 269.7q1 -2.2 2.4 -1.4M127.3 269.7q0.6 -1.6 1.8 -1.2M488.5 284q1 -2.2 2.4 -1.4M489.5 284q0.6 -1.6 1.8 -1.2M274.2 272.9q1 -2.2 2.4 -1.4M275.2 272.9q0.6 -1.6 1.8 -1.2" fill="none" stroke="#241c10" stroke-width="0.5" stroke-opacity="0.8"/><path d="M397.2 230.7V227.5M395.3 230.7q1.9 -0.7 3.7 0" fill="none" stroke="#241c10" stroke-width="0.9" stroke-linecap="round" stroke-linejoin="round"/><path d="M401.4 225.6Q401.7 223.4 399.2 222.5Q397.4 221.4 395.5 222.9Q393.4 223.7 393.6 225.6Q393.2 227.8 395.3 228.6Q397.1 229.7 398.9 228.3Q401.5 227.6 401.4 225.6Z" fill="#faf7ef" stroke="#241c10" stroke-width="0.8" stroke-linecap="round" stroke-linejoin="round"/><path d="M399.1 223.3L400 224.5M397.2 222.3L399.1 224.9M397.2 224L399 226.5M397.2 225.7L398.9 228.1M397.2 227.4L398.1 228.6" fill="none" stroke="#241c10" stroke-width="0.4" stroke-opacity="0.8" stroke-linecap="butt"/><path d="M396.8 226.4q1.5 -1.9 1.1 -3.4M397.6 227.5q1.9 -1.1 1.9 -2.6" fill="none" stroke="#241c10" stroke-width="0.45" stroke-linecap="round" stroke-linejoin="round"/><path d="M359.7 237.6V233.7M357.5 237.6q2.2 -0.9 4.5 0" fill="none" stroke="#241c10" stroke-width="0.9" stroke-linecap="round" stroke-linejoin="round"/><path d="M364 231.5Q364.5 229 362 228Q359.8 226.6 357.6 228.2Q354.8 229.1 355 231.5Q354.4 234.3 357.2 235.4Q359.6 237 362 235.1Q364.5 234.1 364 231.5Z" fill="#faf7ef" stroke="#241c10" stroke-width="0.8" stroke-linecap="round" stroke-linejoin="round"/><path d="M362 228.9L363.4 230.9M359.8 227.5L362 230.6M359.7 229.1L362 232.3M359.7 230.8L362 234M359.7 232.5L361.6 235.2M359.7 234.2L360.6 235.4" fill="none" stroke="#241c10" stroke-width="0.4" stroke-opacity="0.8" stroke-linecap="butt"/><path d="M359.3 232.4q1.8 -2.2 1.3 -4M360.2 233.7q2.2 -1.3 2.2 -3.1" fill="none" stroke="#241c10" stroke-width="0.45" stroke-linecap="round" stroke-linejoin="round"/><path d="M329.6 225.9V221.8M327.2 225.9q2.4 -1 4.8 0" fill="none" stroke="#241c10" stroke-width="0.9" stroke-linecap="round" stroke-linejoin="round"/><path d="M334.8 219.4Q335.1 216.8 331.9 215.8Q329.7 214.3 327.4 215.9Q324.2 216.9 324.5 219.4Q324 222.4 327 223.5Q329.7 225.4 332.3 223.6Q335.4 222.5 334.8 219.4Z" fill="#faf7ef" stroke="#241c10" stroke-width="0.8" stroke-linecap="round" stroke-linejoin="round"/><path d="M331.9 216.2L333.4 218.2M330.4 215.8L332 218.1M329.6 216.4L332.1 219.9M329.6 218.1L332.2 221.7M329.6 219.8L332.3 223.6M329.6 221.5L331.2 223.7" fill="none" stroke="#241c10" stroke-width="0.4" stroke-opacity="0.8" stroke-linecap="butt"/><path d="M329.1 220.4q1.9 -2.4 1.4 -4.3M330.1 221.8q2.4 -1.4 2.4 -3.3" fill="none" stroke="#241c10" stroke-width="0.45" stroke-linecap="round" stroke-linejoin="round"/><path d="M391.5 241.6V238.5M389.7 241.6q1.8 -0.7 3.6 0" fill="none" stroke="#241c10" stroke-width="0.9" stroke-linecap="round" stroke-linejoin="round"/><path d="M395.6 236.7Q395.8 234.6 393.4 233.8Q391.5 232.5 389.6 233.7Q387.4 234.5 387.7 236.7Q387.3 239 389.5 239.8Q391.4 241.1 393.4 239.6Q395.9 238.8 395.6 236.7Z" fill="#faf7ef" stroke="#241c10" stroke-width="0.8" stroke-linecap="round" stroke-linejoin="round"/><path d="M393.4 234.4L394.2 235.5M391.5 233.5L393.4 236.1M391.5 235.2L393.4 237.8M391.5 236.9L393.4 239.6M391.5 238.6L392.4 239.8" fill="none" stroke="#241c10" stroke-width="0.4" stroke-opacity="0.8" stroke-linecap="butt"/><path d="M391.2 237.4q1.5 -1.8 1.1 -3.3M391.9 238.5q1.8 -1.1 1.8 -2.5" fill="none" stroke="#241c10" stroke-width="0.45" stroke-linecap="round" stroke-linejoin="round"/><path d="M49 257.4V251.4M45.5 257.4q3.5 -1.4 7 0" fill="none" stroke="#241c10" stroke-width="0.9" stroke-linecap="round" stroke-linejoin="round"/><path d="M56.6 247.9Q57.2 243.7 52.7 242.1Q49 239.5 45.3 242.1Q41.6 243.7 42.6 247.9Q41.6 252.1 45.3 253.7Q48.8 256.1 52.5 253.4Q57.1 251.9 56.6 247.9Z" fill="#faf7ef" stroke="#241c10" stroke-width="0.8" stroke-linecap="round" stroke-linejoin="round"/><path d="M52.7 243L55.7 247.2M49.8 242.3L52.6 246.3M49 242.9L52.6 247.9M49 244.6L52.6 249.6M49 246.3L52.6 251.2M49 248L52.5 252.9M49 249.7L51.8 253.6M49 251.4L50.8 253.8M49 253.1L49.7 254.1" fill="none" stroke="#241c10" stroke-width="0.4" stroke-opacity="0.8" stroke-linecap="butt"/><path d="M48.3 249.3q2.8 -3.5 2.1 -6.3M49.7 251.4q3.5 -2.1 3.5 -4.9" fill="none" stroke="#241c10" stroke-width="0.45" stroke-linecap="round" stroke-linejoin="round"/><path d="M314 215.6v-5M317.3 222.8v-5.7M316.3 219.3L314 212.6M324 230v-6.3M323 226L317.3 219.3M334 237.1v-7M333 232.6L324 226M347.3 244.3v-7.7M346.3 239.3L334 232.6M364 251.5v-8.3M363 246L347.3 239.3M384 258.6v-9M383 252.6L364 246" fill="none" stroke="#241c10" stroke-width="0.7" stroke-linecap="round" stroke-linejoin="round"/><path d="M79.9 276.8l2.5 -4.4l5 -0.6l3.1 5ZM87.3 263.4l1.5 -2.6l2.9 -0.4l1.8 2.9ZM57.2 262.5l1.7 -2.9l3.3 -0.4l2.1 3.3ZM79.8 271.7l2 -3.4l3.9 -0.5l2.5 3.9ZM33.8 258.1l1.3 -2.3l2.6 -0.3l1.6 2.6Z" fill="#faf7ef" stroke="#241c10" stroke-width="0.7" stroke-linecap="round" stroke-linejoin="round"/><g transform="translate(201.1 214) scale(0.5 0.5)"><path d="M-7 0.6q7 2 14 0" fill="none" stroke="#241c10" stroke-width="0.5" stroke-opacity="0.5"/><path d="M-5 -4q0 -3 3 -3h5q2 0 2.4 1.6l0.6 1.4M-4.6 -4l-1 4M-2.4 -4.4l-0.6 4.4M2.6 -4.4l0.8 4.4M4.8 -4l1.4 4" fill="none" stroke="#241c10" stroke-width="0.78" stroke-linecap="round"/><path d="M-5 -5q-2.6 -1 -3.4 -4" fill="none" stroke="#241c10" stroke-width="0.6" stroke-linecap="round"/><path d="M6 -5.6q2.6 -1 3.4 -2.6l1.6 1.4l-1.4 2.6q-1.6 1 -3.6 0Z" fill="#faf7ef" stroke="#241c10" stroke-width="0.6"/><path d="M-4.4 -6.6q4 -0.6 8.2 0" fill="none" stroke="#241c10" stroke-width="0.36"/></g><g transform="translate(170.3 218.2) scale(1.2 1.2)"><path d="M-7 0.6q7 2 14 0" fill="none" stroke="#241c10" stroke-width="0.5" stroke-opacity="0.5"/><path d="M-1 -6L-2.6 0M1 -6L2.6 0" fill="none" stroke="#241c10" stroke-width="1.1199999999999999" stroke-linecap="round"/><path d="M-3.8 0h2.6M2.2 0h2.8" fill="none" stroke="#241c10" stroke-width="1.4" stroke-linecap="round"/><path d="M-4.6 -20L4.6 -20L7 -4L-6 -4Z" fill="#faf7ef" stroke="#241c10" stroke-width="0.7" stroke-linejoin="round"/><path d="M3.6 -20L5.2 -16.2M2.9 -20L5.5 -13.7M2.3 -20L5.9 -11.2M1.6 -20L6.3 -8.7M0.9 -20L6.7 -6.2M0.3 -20L6.9 -4M-0.4 -20L6.3 -4M-1.1 -20L5.6 -4M-1.7 -20L4.9 -4M-2.4 -20L4.3 -4M-3.1 -20L3.6 -4M-3.7 -20L2.9 -4M-4.4 -20L2.3 -4M-4.7 -19.1L1.6 -4M-4.8 -17.8L0.9 -4M-4.9 -16.4L0.3 -4M-5 -15.1L-0.4 -4M-5.1 -13.8L-1.1 -4M-5.3 -12.5L-1.7 -4M-5.4 -11.1L-2.4 -4M-5.5 -9.8L-3.1 -4M-5.6 -8.5L-3.7 -4M-5.7 -7.2L-4.4 -4M-5.8 -5.9L-5.1 -4" fill="none" stroke="#241c10" stroke-width="0.385" stroke-opacity="0.85"/><path d="M9 -27V1" fill="none" stroke="#241c10" stroke-width="0.84"/><path d="M4.6 -16l4.4 -2.4" fill="none" stroke="#241c10" stroke-width="0.84" stroke-linecap="round"/><path d="M-4.6 -18q-5 2 -4 7q1.4 3 4.6 1.6Z" fill="#faf7ef" stroke="#241c10" stroke-width="0.7"/><circle cx="0" cy="-23.2" r="2.5" fill="#faf7ef" stroke="#241c10" stroke-width="0.7"/><path d="M-5.2 -25.4H5.2" fill="none" stroke="#241c10" stroke-width="0.9799999999999999" stroke-linecap="round"/><path d="M-2.9 -25.4V-27.6H2.9V-25.4Z" fill="#241c10"/></g><line x1="184" y1="290" x2="336" y2="290" stroke="#241c10" stroke-width="0.9"/><path d="M260 286.8L263.2 290L260 293.2L256.8 290Z" fill="#241c10"/><text x="260" y="308" text-anchor="middle" font-family="&apos;Iowan Old Style&apos;, &apos;Palatino&apos;, &apos;Georgia&apos;, serif" font-size="14.5" letter-spacing="1.3" fill="#241c10" font-style="italic" fill-opacity="0.85">THE PROSPECT OF HOMAITANI</text><text x="260" y="324" text-anchor="middle" font-family="&apos;Iowan Old Style&apos;, &apos;Palatino&apos;, &apos;Georgia&apos;, serif" font-size="8.5" letter-spacing="1.6" fill="#241c10">FOUNDED AN. 931</text><text x="260" y="340" text-anchor="middle" font-family="&apos;Iowan Old Style&apos;, &apos;Palatino&apos;, &apos;Georgia&apos;, serif" font-size="9.5" font-style="italic" fill="#5a5246">ruined An. 1039</text><text x="260" y="366" text-anchor="middle" font-family="&apos;Iowan Old Style&apos;, &apos;Palatino&apos;, &apos;Georgia&apos;, serif" font-size="8" letter-spacing="2.2" fill="#5a5246">VELLUM · CHART № 42</text><rect x="10" y="10" width="500" height="364" fill="none" stroke="#241c10" stroke-width="2"/><rect x="14" y="14" width="492" height="356" fill="none" stroke="#241c10" stroke-width="0.7"/></svg>