<svg xmlns="http://www.w3.org/2000/svg" viewBox="0 0 520 384" width="520" height="384" role="img" aria-label="Direction D, Voorea"><rect x="0" y="0" width="520" height="384" fill="#faf7ef"/><path d="M29.7 259.5H491.7M29.1 258H492.3M28.4 256.5H490.4M28 254.4H491.1M27.5 252.4H490.7M29.4 250H492.3M29.6 247.8H492.3M28.6 245.1H492.3M28.9 242.1H492.5M28.6 239H131.7M163.7 239H490.3M28.9 235.5H95.8M118.7 235.8H244.5M297.3 235.6H367.3M415.4 235.7H491.6M29.9 232.3H123.2M170 232.2H490M28.9 228.2H140M186.9 228.6H329.8M383.3 228.4H491.1M27.3 224.4H257M287 224.5H491.4M27.3 220.7H106.6M141.5 220.6H223.4M271.1 220.5H335.7M393.1 220.6H491.2M29.4 216.1H117.1M167 216H337M359.6 216H491.7M28.2 211.6H131.5M197.9 211.6H490.8M29.2 206.9H109.8M163.7 207.1H206.1M236.6 207H388.2M413.4 207.1H490.4M27.3 202.2H244.3M308.7 202H492.8M29.5 197H271.4M328.2 197.1H490.5M27.4 192.1H110.4M169.7 191.9H230.5M254.3 192.1H382.6M402.1 191.8H491.9M29.9 186.5H100.4M163.4 186.7H350.3M388.9 186.6H491.8M27.9 181.1H269.5M300.7 180.9H492.8M29 175.2H265.6M307.5 175.4H491.8M29.6 169.2H68M121.2 169.3H192.5M260.7 169.4H369.4M429.1 169.4H491.7M27 163.3H116M161.7 163.3H301.9M329.1 163.2H492.6M28.4 156.7H87.5M120.6 157.1H252.5M308.5 156.7H381.4M423.7 157.1H490.2M28.3 150.2H201M244.8 150.5H491.3M29.4 143.7H103M143.5 143.5H257.3M309.1 143.6H376.6M423.7 143.6H490.5M29.4 137H236M282.4 137H492.1M29.7 129.8H202.5M227.9 129.7H492.8M29.4 122.5H199.4M238.3 122.4H491.9M186.6 115H350.5M419.6 114.8H491M28.1 114.9H28.6M143.8 114.8H142.1M201.4 107.3H492.8M29.7 107H69.3M103.1 107H130.6M29.5 99.1H272.6M315.1 99.1H492.9" fill="none" stroke="#241c10" stroke-width="0.32" stroke-opacity="0.55" stroke-linecap="butt"/><path d="M26.7 117.9q11.8 -9.1 23.6 0q11.8 -19.6 23.6 0q11.8 -10.1 23.6 0q11.8 -16.4 23.6 0q11.8 -5.8 23.6 0M35.8 118.9H135.7M43.1 120.5H128.4M47.9 122.1H123.6M57.6 123.7H113.8M89.7 112.4q2.8 -1.4 5.4 0.6M42.3 111.2q2.7 -1.4 4.2 0.6M104.6 111.6q3.3 -1.4 4.1 0.6M139.7 111.7q2.4 -1.4 6.9 0.6M127.9 112.5q2.3 -1.4 5.6 0.6M53.4 112.2q4 -1.4 6 0.6M62.2 117.3q3.3 -1.4 4.7 0.6M87.5 113.7q2.4 -1.4 4.7 0.6M134.4 112.8q3.6 -1.4 5.7 0.6M55 114.9q2.3 -1.4 6.6 0.6" fill="none" stroke="#241c10" stroke-width="0.4" stroke-opacity="0.7"/><path d="M98.5 139.9q0.9 -1.2 1.8 -0.2q0.9 -1 1.8 0.2M107 141.7q0.9 -1.2 1.8 -0.2q0.9 -0.9 1.8 0.2M111.2 140.2q0.8 -1.1 1.6 -0.2q0.8 -0.9 1.6 0.2M113.4 141.9q1.1 -1.5 2.2 -0.3q1.1 -1.2 2.2 0.3M121.2 138.6q0.9 -1.2 1.8 -0.2q0.9 -1 1.8 0.2" fill="none" stroke="#241c10" stroke-width="0.6" stroke-linecap="round" stroke-linejoin="round"/><g transform="translate(0 40)"><path d="M29 192.9L32.6 194.5L36.2 196.2L39.8 197.9L43.4 200.4L47 202.8L50.7 204.3L54.3 205.6L57.9 205.3L61.5 204.8L65.1 204.1L68.7 203.2L72.3 202.5L75.9 202L79.5 203.8L83.1 206.5L86.8 209L90.4 211.4L94 211.5L97.6 210.4L101.2 209.4L104.8 208.4L108.4 208.3L112 209L115.6 209.6L119.2 210.1L122.8 210L126.5 208.6L130.1 207.4L133.7 206.4L137.3 205.4L140.9 204.8L144.5 204.5L148.1 204.6L151.7 204.7L155.3 204.5L158.9 204.2L162.5 203.4L166.2 202.6L169.8 202.6L173.4 202.6L177 202.6L180.6 202.5L184.2 202.3L187.8 202.1L191.4 201.8L195 201.6L198.6 201.8L202.3 202.1L205.9 203L209.5 203.9L213.1 204.3L216.7 204.7L220.3 204.2L223.9 203.2L227.5 201.7L231.1 199.9L234.7 198.2L238.3 196.5L242 195.4L245.6 194.5L249.2 194.6L252.8 195.7L256.4 197.4L260 199.5L263.6 201.4L267.2 203.5L270.8 205.9L274.4 208.5L278 211.2L281.7 214.2L285.3 217.2L288.9 220.8L292.5 222L296.1 222L299.7 222L303.3 222L306.9 222L310.5 222L314.1 222L317.8 222L321.4 222L325 222L328.6 222L332.2 222L335.8 222L339.4 222L343 222L346.6 222L350.2 222L353.8 222L357.5 222L361.1 222L364.7 222L368.3 222L371.9 222L375.5 222L379.1 222L382.7 222L386.3 222L389.9 222L393.5 222L397.2 222L400.8 222L404.4 222L408 222L411.6 222L415.2 222L418.8 222L422.4 222L426 222L429.6 222L433.3 222L436.9 222L440.5 222L444.1 222L447.7 222L451.3 222L454.9 222L458.5 222L462.1 222L465.7 222L469.3 222L473 222L476.6 222L480.2 222L483.8 222L487.4 222L491 222Z" fill="#faf7ef" stroke="#241c10" stroke-width="0.9" stroke-linecap="round" stroke-linejoin="round"/><path d="M274.1 208.3L289.3 222M262.5 200.8L286 222M254.1 196.3L282.7 222M248.9 194.6L279.3 222M245.5 194.5L276 222M242.9 195.2L272.7 222M240.3 195.9L269.3 222M237.9 196.7L266 222M235.7 197.7L262.7 222M233.5 198.8L259.3 222M231.4 199.8L256 222M229.2 200.9L252.7 222M227 201.9L249.3 222M224.7 202.8L246 222M222.3 203.6L242.7 222M219.6 204.3L239.3 222M216.8 204.7L236 222M213 204.3L232.7 222M209.2 203.9L229.3 222M204.5 202.7L226 222M200.4 202L222.7 222M196.8 201.7L219.3 222M193.4 201.7L216 222M190.3 201.9L212.7 222M187.3 202.1L209.3 222M184.1 202.3L206 222M181 202.5L202.7 222M177.7 202.6L199.3 222M174.5 202.6L196 222M171.1 202.6L192.7 222M167.8 202.6L189.3 222M164.8 202.9L186 222M162.1 203.5L182.7 222M159.5 204.1L179.3 222M156.5 204.4L176 222M153.4 204.6L172.7 222M150.1 204.7L169.3 222M146.6 204.5L166 222M143.3 204.6L162.7 222M140.3 204.9L159.3 222M137.5 205.4L156 222M134.9 206L152.7 222M132.4 206.7L149.3 222M129.8 207.4L146 222M127.4 208.3L142.7 222M125.1 209.2L139.3 222M122.7 210L136 222M119.4 210.1L132.7 222M115.5 209.5L129.3 222M111.4 208.9L126 222M107.5 208.4L122.7 222M104.4 208.6L119.3 222M101.8 209.2L116 222M99.3 209.9L112.7 222M96.7 210.7L109.3 222M94.2 211.4L106 222M90.9 211.4L102.7 222M78.5 203.3L99.3 222M74 202.2L96 222M71.2 202.7L92.7 222M68.5 203.3L89.3 222M65.9 203.9L86 222M63.2 204.5L82.7 222M60.4 204.9L79.3 222M57.5 205.4L76 222M54.4 205.6L72.7 222M48.9 203.6L69.3 222M38.5 197.3L66 222M31.5 194L62.7 222M29 194.7L59.3 222M29 197.7L56 222M29 200.7L52.7 222M29 203.7L49.3 222M29 206.7L46 222M29 209.7L42.7 222M29 212.7L39.3 222M29 215.7L36 222M29 218.7L32.7 222" fill="none" stroke="#241c10" stroke-width="0.42" stroke-opacity="0.6" stroke-linecap="butt"/><path d="M143.6 216.5L146.1 222M138 207.7L144.4 222M134.2 203.1L142.8 222M130.9 199.5L141.2 222M128.4 197.5L139.5 222M126.7 197.3L137.9 222M125.3 197.8L136.3 222M124 198.6L134.6 222M122.8 199.5L133 222M121.6 200.6L131.4 222M120.5 201.6L129.7 222M119.3 202.7L128.1 222M118.2 203.8L126.4 222M117 204.8L124.8 222M115.7 205.6L123.2 222M114.3 206.2L121.5 222M112.8 206.3L119.9 222M110.9 205.9L118.3 222M108.9 205L116.6 222M106.9 204.1L115 222M105.1 203.8L113.4 222M103.4 203.7L111.7 222M101.8 203.9L110.1 222M100.3 204.1L108.4 222M98.8 204.3L106.8 222M97.2 204.4L105.2 222M95.6 204.5L103.5 222M94 204.6L101.9 222M92.3 204.5L100.3 222M90.7 204.6L98.6 222M89.3 205.1L97 222M88 205.8L95.4 222M86.5 206.2L93.7 222M85 206.4L92.1 222M83.4 206.4L90.4 222M81.7 206.3L88.8 222M80.1 206.4L87.2 222M78.6 206.8L85.5 222M77.2 207.3L83.9 222M75.9 208L82.3 222M74.6 208.8L80.6 222M73.4 209.6L79 222M72.1 210.5L77.4 222M70.8 211.3L75.7 222M69.1 211.1L74.1 222M67.3 210.6L72.4 222M65.3 209.9L70.8 222M63.6 209.8L69.2 222M62.2 210.3L67.5 222M60.9 211L65.9 222M59.6 211.7L64.3 222M58.3 212.5L62.6 222M56.7 212.5L61 222M52.2 206.3L59.4 222M49.6 204.1L57.7 222M48.2 204.6L56.1 222M46.8 205.2L54.4 222M45.5 205.8L52.8 222M44.1 206.3L51.2 222M42.6 206.8L49.5 222M41.1 207.1L47.9 222M39.2 206.4L46.3 222M36.3 203.7L44.6 222M32.6 199.1L43 222M29.7 196.4L41.4 222M29 198.4L39.7 222M29 202L38.1 222M29 205.6L36.4 222M29 209.2L34.8 222M29 212.8L33.2 222M29 216.4L31.5 222M29 220L29.9 222" fill="none" stroke="#241c10" stroke-width="0.38" stroke-opacity="0.5" stroke-linecap="butt"/><path d="" fill="none" stroke="#241c10" stroke-width="0.5" stroke-opacity="0.6"/><path d="M216 220.3V218.7M215 220.3q0.9 -0.4 1.9 0" fill="none" stroke="#241c10" stroke-width="0.9" stroke-linecap="round" stroke-linejoin="round"/><path d="M217.7 217.7Q217.9 216.6 217 216.2Q216 215.5 215 216.3Q213.9 216.7 214.1 217.7Q214 218.8 215 219.2Q215.9 219.7 216.8 219.1Q217.8 218.7 217.7 217.7Z" fill="#faf7ef" stroke="#241c10" stroke-width="0.8" stroke-linecap="round" stroke-linejoin="round"/><path d="M216.4 216.2L217.1 217.1M215.2 216.3L216 217.3M215 217.7L216 219" fill="none" stroke="#241c10" stroke-width="0.4" stroke-opacity="0.8" stroke-linecap="butt"/><path d="M215.8 218.1q0.7 -0.9 0.6 -1.7M216.1 218.7q0.9 -0.6 0.9 -1.3" fill="none" stroke="#241c10" stroke-width="0.45" stroke-linecap="round" stroke-linejoin="round"/><path d="M92.5 214.2V213.2M92 214.2q0.5 -0.2 1.1 0" fill="none" stroke="#241c10" stroke-width="0.9" stroke-linecap="round" stroke-linejoin="round"/><path d="M93.7 212.7Q93.8 212 93.1 211.8Q92.6 211.4 92 211.8Q91.4 212.1 91.6 212.7Q91.4 213.3 92 213.6Q92.5 213.9 93.1 213.5Q93.8 213.3 93.7 212.7Z" fill="#faf7ef" stroke="#241c10" stroke-width="0.8" stroke-linecap="round" stroke-linejoin="round"/><path d="M91.7 212.4L92.5 213.5" fill="none" stroke="#241c10" stroke-width="0.4" stroke-opacity="0.8" stroke-linecap="butt"/><path d="M92.4 212.9q0.4 -0.5 0.3 -1M92.6 213.2q0.5 -0.3 0.5 -0.8" fill="none" stroke="#241c10" stroke-width="0.45" stroke-linecap="round" stroke-linejoin="round"/><path d="M87.6 221.6V219.9M86.6 221.6q1 -0.4 2.1 0" fill="none" stroke="#241c10" stroke-width="0.9" stroke-linecap="round" stroke-linejoin="round"/><path d="M89.8 218.9Q90 217.7 88.7 217.2Q87.7 216.6 86.7 217.4Q85.5 217.8 85.6 218.9Q85.4 220 86.6 220.4Q87.7 221.2 88.7 220.5Q90 220.1 89.8 218.9Z" fill="#faf7ef" stroke="#241c10" stroke-width="0.8" stroke-linecap="round" stroke-linejoin="round"/><path d="M87 217.4L87.6 218.3M86.7 218.7L87.6 220" fill="none" stroke="#241c10" stroke-width="0.4" stroke-opacity="0.8" stroke-linecap="butt"/><path d="M87.4 219.3q0.8 -1 0.6 -1.9M87.8 219.9q1 -0.6 1 -1.4" fill="none" stroke="#241c10" stroke-width="0.45" stroke-linecap="round" stroke-linejoin="round"/><path d="M259.7 219.6V218M258.7 219.6q0.9 -0.4 1.8 0" fill="none" stroke="#241c10" stroke-width="0.9" stroke-linecap="round" stroke-linejoin="round"/><path d="M261.5 217.1Q261.7 216 260.6 215.6Q259.6 214.9 258.7 215.5Q257.7 216 257.9 217.1Q257.6 218.3 258.6 218.7Q259.6 219.4 260.7 218.7Q261.8 218.2 261.5 217.1Z" fill="#faf7ef" stroke="#241c10" stroke-width="0.8" stroke-linecap="round" stroke-linejoin="round"/><path d="M258.7 215.5L259.7 216.9" fill="none" stroke="#241c10" stroke-width="0.4" stroke-opacity="0.8" stroke-linecap="butt"/><path d="M259.5 217.5q0.7 -0.9 0.6 -1.7M259.9 218q0.9 -0.6 0.9 -1.3" fill="none" stroke="#241c10" stroke-width="0.45" stroke-linecap="round" stroke-linejoin="round"/><path d="M222.3 207.9V207M221.7 207.9q0.5 -0.2 1.1 0" fill="none" stroke="#241c10" stroke-width="0.9" stroke-linecap="round" stroke-linejoin="round"/><path d="M223.3 206.5Q223.4 205.9 222.8 205.7Q222.2 205.2 221.7 205.5Q221.1 205.8 221.2 206.5Q221.1 207.1 221.7 207.3Q222.2 207.7 222.8 207.3Q223.4 207.1 223.3 206.5Z" fill="#faf7ef" stroke="#241c10" stroke-width="0.8" stroke-linecap="round" stroke-linejoin="round"/><path d="" fill="none" stroke="#241c10" stroke-width="0.4" stroke-opacity="0.8" stroke-linecap="butt"/><path d="M222.1 206.7q0.4 -0.5 0.3 -1M222.4 207q0.5 -0.3 0.5 -0.8" fill="none" stroke="#241c10" stroke-width="0.45" stroke-linecap="round" stroke-linejoin="round"/><path d="M59.5 209.4V208.5M58.9 209.4q0.5 -0.2 1.1 0" fill="none" stroke="#241c10" stroke-width="0.9" stroke-linecap="round" stroke-linejoin="round"/><path d="M60.7 208Q60.8 207.3 60.1 207Q59.5 206.7 59 207.2Q58.3 207.4 58.3 208Q58.2 208.6 58.9 208.8Q59.5 209.3 60.1 208.9Q60.8 208.6 60.7 208Z" fill="#faf7ef" stroke="#241c10" stroke-width="0.8" stroke-linecap="round" stroke-linejoin="round"/><path d="" fill="none" stroke="#241c10" stroke-width="0.4" stroke-opacity="0.8" stroke-linecap="butt"/><path d="M59.4 208.2q0.4 -0.5 0.3 -1M59.6 208.5q0.5 -0.3 0.5 -0.8" fill="none" stroke="#241c10" stroke-width="0.45" stroke-linecap="round" stroke-linejoin="round"/><path d="M94.4 221.3V219.7M93.5 221.3q1 -0.4 1.9 0" fill="none" stroke="#241c10" stroke-width="0.9" stroke-linecap="round" stroke-linejoin="round"/><path d="M96.4 218.7Q96.7 217.5 95.5 217Q94.4 216.2 93.3 217Q92.3 217.5 92.7 218.7Q92.4 219.9 93.4 220.3Q94.4 221.1 95.5 220.4Q96.7 219.9 96.4 218.7Z" fill="#faf7ef" stroke="#241c10" stroke-width="0.8" stroke-linecap="round" stroke-linejoin="round"/><path d="M94.4 218L95.5 219.5" fill="none" stroke="#241c10" stroke-width="0.4" stroke-opacity="0.8" stroke-linecap="butt"/><path d="M94.2 219.1q0.8 -1 0.6 -1.8M94.6 219.7q1 -0.6 1 -1.4" fill="none" stroke="#241c10" stroke-width="0.45" stroke-linecap="round" stroke-linejoin="round"/><path d="M231.7 221.9V220M230.6 221.9q1.1 -0.4 2.2 0" fill="none" stroke="#241c10" stroke-width="0.9" stroke-linecap="round" stroke-linejoin="round"/><path d="M233.8 218.9Q234.1 217.7 232.8 217.2Q231.7 216.4 230.5 217.1Q229.2 217.6 229.4 218.9Q229.2 220.2 230.6 220.6Q231.7 221.4 232.8 220.6Q234.1 220.2 233.8 218.9Z" fill="#faf7ef" stroke="#241c10" stroke-width="0.8" stroke-linecap="round" stroke-linejoin="round"/><path d="M231.7 218.2L232.8 219.8" fill="none" stroke="#241c10" stroke-width="0.4" stroke-opacity="0.8" stroke-linecap="butt"/><path d="M231.5 219.4q0.9 -1.1 0.7 -2M231.9 220q1.1 -0.7 1.1 -1.5" fill="none" stroke="#241c10" stroke-width="0.45" stroke-linecap="round" stroke-linejoin="round"/><path d="M82.2 216.1V214.9M81.4 216.1q0.7 -0.3 1.5 0" fill="none" stroke="#241c10" stroke-width="0.9" stroke-linecap="round" stroke-linejoin="round"/><path d="M83.6 214.1Q83.7 213.3 82.9 213Q82.2 212.6 81.5 213.1Q80.7 213.4 80.8 214.1Q80.6 215 81.4 215.4Q82.1 215.8 82.9 215.2Q83.7 214.9 83.6 214.1Z" fill="#faf7ef" stroke="#241c10" stroke-width="0.8" stroke-linecap="round" stroke-linejoin="round"/><path d="M81.5 213.6L82.2 214.6" fill="none" stroke="#241c10" stroke-width="0.4" stroke-opacity="0.8" stroke-linecap="butt"/><path d="M82 214.4q0.6 -0.7 0.4 -1.3M82.3 214.9q0.7 -0.4 0.7 -1" fill="none" stroke="#241c10" stroke-width="0.45" stroke-linecap="round" stroke-linejoin="round"/><path d="M260.2 217.3V215.9M259.4 217.3q0.8 -0.3 1.7 0" fill="none" stroke="#241c10" stroke-width="0.9" stroke-linecap="round" stroke-linejoin="round"/><path d="M261.9 215Q262.1 214.1 261 213.7Q260.3 213.2 259.4 213.8Q258.3 214.2 258.4 215Q258.3 215.9 259.4 216.2Q260.2 216.8 261 216.3Q262.1 215.9 261.9 215Z" fill="#faf7ef" stroke="#241c10" stroke-width="0.8" stroke-linecap="round" stroke-linejoin="round"/><path d="M259.4 214.1L260.2 215.1" fill="none" stroke="#241c10" stroke-width="0.4" stroke-opacity="0.8" stroke-linecap="butt"/><path d="M260.1 215.4q0.7 -0.8 0.5 -1.5M260.4 215.9q0.8 -0.5 0.8 -1.2" fill="none" stroke="#241c10" stroke-width="0.45" stroke-linecap="round" stroke-linejoin="round"/><path d="M109.7 220.8V219.2M108.8 220.8q0.9 -0.4 1.9 0" fill="none" stroke="#241c10" stroke-width="0.9" stroke-linecap="round" stroke-linejoin="round"/><path d="M111.5 218.3Q111.8 217.1 110.8 216.6Q109.8 215.9 108.7 216.6Q107.5 217.1 107.6 218.3Q107.5 219.4 108.7 219.8Q109.7 220.5 110.8 219.8Q111.7 219.4 111.5 218.3Z" fill="#faf7ef" stroke="#241c10" stroke-width="0.8" stroke-linecap="round" stroke-linejoin="round"/><path d="M109.7 217.7L110.8 219.1" fill="none" stroke="#241c10" stroke-width="0.4" stroke-opacity="0.8" stroke-linecap="butt"/><path d="M109.6 218.6q0.8 -0.9 0.6 -1.7M109.9 219.2q0.9 -0.6 0.9 -1.3" fill="none" stroke="#241c10" stroke-width="0.45" stroke-linecap="round" stroke-linejoin="round"/><path d="M83.1 221.1V219.4M82.1 221.1q1 -0.4 2 0" fill="none" stroke="#241c10" stroke-width="0.9" stroke-linecap="round" stroke-linejoin="round"/><path d="M84.9 218.4Q85.1 217.4 84 217Q82.9 216.1 82 216.7Q80.8 217.2 81.1 218.4Q80.9 219.6 82 220Q83.1 220.7 84.1 220.1Q85.2 219.6 84.9 218.4Z" fill="#faf7ef" stroke="#241c10" stroke-width="0.8" stroke-linecap="round" stroke-linejoin="round"/><path d="M83.4 217L84 217.9M83.1 218.2L84.1 219.7" fill="none" stroke="#241c10" stroke-width="0.4" stroke-opacity="0.8" stroke-linecap="butt"/><path d="M82.9 218.8q0.8 -1 0.6 -1.8M83.2 219.4q1 -0.6 1 -1.4" fill="none" stroke="#241c10" stroke-width="0.45" stroke-linecap="round" stroke-linejoin="round"/><path d="M36.3 209.5V208.4M35.7 209.5q0.7 -0.3 1.3 0" fill="none" stroke="#241c10" stroke-width="0.9" stroke-linecap="round" stroke-linejoin="round"/><path d="M37.8 207.7Q37.9 206.9 37 206.6Q36.3 206 35.6 206.5Q34.9 206.8 35.1 207.7Q35 208.5 35.7 208.7Q36.4 209.3 37.1 208.9Q37.9 208.5 37.8 207.7Z" fill="#faf7ef" stroke="#241c10" stroke-width="0.8" stroke-linecap="round" stroke-linejoin="round"/><path d="M35.6 207.1L36.3 208.2" fill="none" stroke="#241c10" stroke-width="0.4" stroke-opacity="0.8" stroke-linecap="butt"/><path d="M36.2 208q0.5 -0.7 0.4 -1.2M36.5 208.4q0.7 -0.4 0.7 -0.9" fill="none" stroke="#241c10" stroke-width="0.45" stroke-linecap="round" stroke-linejoin="round"/><path d="M81.7 211.2V210.2M81.1 211.2q0.6 -0.2 1.2 0" fill="none" stroke="#241c10" stroke-width="0.9" stroke-linecap="round" stroke-linejoin="round"/><path d="M82.8 209.6Q83 208.8 82.3 208.6Q81.7 208.2 81.1 208.7Q80.4 208.9 80.4 209.6Q80.3 210.2 81.1 210.5Q81.7 210.9 82.3 210.5Q82.9 210.3 82.8 209.6Z" fill="#faf7ef" stroke="#241c10" stroke-width="0.8" stroke-linecap="round" stroke-linejoin="round"/><path d="" fill="none" stroke="#241c10" stroke-width="0.4" stroke-opacity="0.8" stroke-linecap="butt"/><path d="M81.5 209.8q0.5 -0.6 0.4 -1.1M81.8 210.2q0.6 -0.4 0.6 -0.8" fill="none" stroke="#241c10" stroke-width="0.45" stroke-linecap="round" stroke-linejoin="round"/><path d="M129.4 221.9V220.1M128.3 221.9q1.1 -0.4 2.2 0" fill="none" stroke="#241c10" stroke-width="0.9" stroke-linecap="round" stroke-linejoin="round"/><path d="M131.9 219Q132 217.7 130.5 217.2Q129.3 216.3 128.2 217.1Q126.9 217.6 127.2 219Q127 220.3 128.2 220.8Q129.4 221.5 130.5 220.7Q132 220.2 131.9 219Z" fill="#faf7ef" stroke="#241c10" stroke-width="0.8" stroke-linecap="round" stroke-linejoin="round"/><path d="M129.4 218L130.5 219.6M129.4 219.7L130.2 220.8" fill="none" stroke="#241c10" stroke-width="0.4" stroke-opacity="0.8" stroke-linecap="butt"/><path d="M129.2 219.4q0.9 -1.1 0.7 -2M129.6 220.1q1.1 -0.7 1.1 -1.5" fill="none" stroke="#241c10" stroke-width="0.45" stroke-linecap="round" stroke-linejoin="round"/><path d="M71 208.1V207.1M70.4 208.1q0.6 -0.2 1.1 0" fill="none" stroke="#241c10" stroke-width="0.9" stroke-linecap="round" stroke-linejoin="round"/><path d="M72 206.6Q72.2 205.9 71.6 205.6Q71 205.3 70.5 205.8Q69.7 206 69.7 206.6Q69.6 207.2 70.4 207.5Q71 207.9 71.6 207.5Q72.1 207.2 72 206.6Z" fill="#faf7ef" stroke="#241c10" stroke-width="0.8" stroke-linecap="round" stroke-linejoin="round"/><path d="" fill="none" stroke="#241c10" stroke-width="0.4" stroke-opacity="0.8" stroke-linecap="butt"/><path d="M70.9 206.8q0.4 -0.6 0.3 -1M71.1 207.1q0.6 -0.3 0.6 -0.8" fill="none" stroke="#241c10" stroke-width="0.45" stroke-linecap="round" stroke-linejoin="round"/><path d="M116.5 220.9V219.3M115.5 220.9q0.9 -0.4 1.9 0" fill="none" stroke="#241c10" stroke-width="0.9" stroke-linecap="round" stroke-linejoin="round"/><path d="M118.3 218.3Q118.5 217.3 117.4 216.9Q116.4 216.1 115.4 216.7Q114.2 217.1 114.4 218.3Q114.3 219.5 115.5 219.9Q116.4 220.5 117.4 219.8Q118.5 219.4 118.3 218.3Z" fill="#faf7ef" stroke="#241c10" stroke-width="0.8" stroke-linecap="round" stroke-linejoin="round"/><path d="" fill="none" stroke="#241c10" stroke-width="0.4" stroke-opacity="0.8" stroke-linecap="butt"/><path d="M116.3 218.7q0.8 -0.9 0.6 -1.7M116.7 219.3q0.9 -0.6 0.9 -1.3" fill="none" stroke="#241c10" stroke-width="0.45" stroke-linecap="round" stroke-linejoin="round"/><path d="M113.3 220.8V219.2M112.4 220.8q0.9 -0.4 1.9 0" fill="none" stroke="#241c10" stroke-width="0.9" stroke-linecap="round" stroke-linejoin="round"/><path d="M115.1 218.3Q115.3 217.2 114.2 216.8Q113.3 216.3 112.4 216.9Q111.3 217.3 111.4 218.3Q111.2 219.4 112.3 219.8Q113.3 220.5 114.2 219.8Q115.3 219.4 115.1 218.3Z" fill="#faf7ef" stroke="#241c10" stroke-width="0.8" stroke-linecap="round" stroke-linejoin="round"/><path d="M112.4 216.9L113.3 218.1M112.4 218.5L113.3 219.8" fill="none" stroke="#241c10" stroke-width="0.4" stroke-opacity="0.8" stroke-linecap="butt"/><path d="M113.1 218.7q0.8 -0.9 0.6 -1.7M113.5 219.2q0.9 -0.6 0.9 -1.3" fill="none" stroke="#241c10" stroke-width="0.45" stroke-linecap="round" stroke-linejoin="round"/><path d="M29 223L29 220L37 220L45 220L53 220L61 220L69 219.9L77 219.7L85 219.4L93 219L101 218.5L109 218L117 217.4L125 216.8L133 216.1L141 215.5L149 214.8L157 214.2L165 213.5L173 212.9L181 212.3L189 211.7L197 211.2L205 210.7L213 210.3L221 210L229 209.7L237 209.4L245 209.3L253 209.2L261 209.2L269 209.2L277 209.3L285 209.5L293 209.7L301 210.1L309 210.4L317 210.9L325 211.3L333 211.9L341 212.4L349 213L357 213.7L365 214.3L373 215L381 215.6L389 216.3L397 216.9L405 217.6L413 218.1L421 218.7L429 219.1L437 219.5L445 219.8L453 219.9L461 220L469 220L477 220L485 220L485 223Z" fill="#faf7ef" stroke="#241c10" stroke-width="1.1" stroke-linecap="round" stroke-linejoin="round"/><path d="M481.3 220L485 221.3M473.9 220L482.4 223M466.4 220L475 223M459 220L467.6 223M451.3 219.9L460.1 223M443.3 219.7L452.7 223M435 219.4L445.3 223M426.3 219L437.9 223M417.3 218.4L430.4 223M408.1 217.8L423 223M398.6 217.1L415.6 223M389 216.3L408.1 223M379.3 215.5L400.7 223M369.5 214.7L393.3 223M359.8 213.9L385.9 223M350.2 213.1L378.4 223M340.7 212.4L371 223M331.5 211.8L363.6 223M322.4 211.2L356.1 223M313.5 210.7L348.7 223M304.8 210.2L341.3 223M296.4 209.9L333.9 223M288.1 209.6L326.4 223M280.1 209.4L319 223M272.3 209.3L311.6 223M264.7 209.2L304.1 223M257.2 209.2L296.7 223M249.9 209.2L289.3 223M242.8 209.3L281.9 223M235.8 209.5L274.4 223M228.9 209.7L267 223M222.2 209.9L259.6 223M215.6 210.2L252.1 223M209.1 210.5L244.7 223M202.7 210.9L237.3 223M196.3 211.3L229.9 223M190 211.7L222.4 223M183.8 212.1L215 223M177.7 212.5L207.6 223M171.5 213L200.1 223M165.5 213.5L192.7 223M159.4 214L185.3 223M153.4 214.4L177.9 223M147.4 214.9L170.4 223M141.4 215.4L163 223M135.4 215.9L155.6 223M129.4 216.4L148.1 223M123.3 216.9L140.7 223M117.3 217.4L133.3 223M111.1 217.8L125.9 223M104.9 218.3L118.4 223M98.6 218.7L111 223M92.3 219L103.6 223M85.8 219.4L96.1 223M79.1 219.6L88.7 223M72.2 219.8L81.3 223M65.2 220L73.9 223M57.9 220L66.4 223M50.4 220L59 223M43 220L51.6 223M35.6 220L44.1 223M29 220.3L36.7 223" fill="none" stroke="#241c10" stroke-width="0.4" stroke-opacity="0.6" stroke-linecap="butt"/><path d="M289.8 221.3q1 -2.2 2.4 -1.4M290.8 221.3q0.6 -1.6 1.8 -1.2M178.8 221.3q1 -2.2 2.4 -1.4M179.8 221.3q0.6 -1.6 1.8 -1.2M300.6 213.9q1 -2.2 2.4 -1.4M301.6 213.9q0.6 -1.6 1.8 -1.2M252.4 218.7q1 -2.2 2.4 -1.4M253.4 218.7q0.6 -1.6 1.8 -1.2M170.5 213.3q1 -2.2 2.4 -1.4M171.5 213.3q0.6 -1.6 1.8 -1.2M63.4 220.7q1 -2.2 2.4 -1.4M64.4 220.7q0.6 -1.6 1.8 -1.2M322.5 215.9q1 -2.2 2.4 -1.4M323.5 215.9q0.6 -1.6 1.8 -1.2M427.1 222.1q1 -2.2 2.4 -1.4M428.1 222.1q0.6 -1.6 1.8 -1.2M156 222.4q1 -2.2 2.4 -1.4M157 222.4q0.6 -1.6 1.8 -1.2M335.9 216q1 -2.2 2.4 -1.4M336.9 216q0.6 -1.6 1.8 -1.2M244.5 212.5q1 -2.2 2.4 -1.4M245.5 212.5q0.6 -1.6 1.8 -1.2" fill="none" stroke="#241c10" stroke-width="0.5" stroke-opacity="0.8"/><path d="M228.2 201.4V189.4H252.4V201.4Z" fill="#faf7ef" stroke="#241c10" stroke-width="0.8" stroke-linecap="round" stroke-linejoin="round"/><path d="M251.8 189.4L252.4 193.2M251.5 189.4L252.4 194.7M251.3 189.4L252.4 196.2M251 189.4L252.4 197.7M250.8 189.4L252.4 199.2M250.5 189.4L252.4 200.7M250.3 189.4L252.3 201.4M250 189.4L252 201.4M249.8 189.4L251.8 201.4M249.5 189.4L251.5 201.4M249.3 189.4L251.3 201.4M249 189.4L251 201.4M248.8 189.4L250.8 201.4M248.5 189.4L250.5 201.4M248.3 189.4L250.3 201.4M248 189.4L250 201.4M247.8 189.4L249.8 201.4M247.5 189.4L249.5 201.4M247.3 189.4L249.3 201.4M247 189.4L249 201.4M246.8 189.4L248.8 201.4M246.5 189.4L248.5 201.4M246.3 189.4L248.3 201.4M246 189.4L248 201.4M245.8 189.4L247.8 201.4M245.5 189.4L247.5 201.4M245.3 189.4L247.3 201.4M245.2 190.1L247 201.4M245.2 191.6L246.8 201.4M245.2 193.1L246.5 201.4M245.2 194.6L246.3 201.4M245.2 196.1L246 201.4M245.2 197.6L245.8 201.4" fill="none" stroke="#241c10" stroke-width="0.42" stroke-opacity="0.9" stroke-linecap="butt"/><path d="M227.6 189.4L233.5 184.6L247.1 184.6L253 189.4Z" fill="#faf7ef" stroke="#241c10" stroke-width="0.8" stroke-linecap="round" stroke-linejoin="round"/><path d="M232.7 185.3L247.9 185.3M231.1 186.6L249.5 186.6M229.5 187.9L251.1 187.9M227.9 189.2L252.7 189.2" fill="none" stroke="#241c10" stroke-width="0.35" stroke-opacity="0.8" stroke-linecap="butt"/><path d="M246.6 185.8L247.5 185M245.5 188.1L248.3 185.6M245.7 189.4L249.1 186.3M247.2 189.4L250 186.9M248.8 189.4L250.8 187.6M250.3 189.4L251.6 188.3" fill="none" stroke="#241c10" stroke-width="0.4" stroke-opacity="0.85" stroke-linecap="butt"/><path d="M243.2 181.2h2.6v6.3" fill="#faf7ef" stroke="#241c10" stroke-width="0.6" stroke-linecap="round" stroke-linejoin="round"/><rect x="231.6" y="192.8" width="1.4" height="2.4" fill="#241c10"/><rect x="239.6" y="192.8" width="1.4" height="2.4" fill="#241c10"/><rect x="247.7" y="192.8" width="1.4" height="2.4" fill="#241c10"/><path d="M246 201.2V187.4H269V201.2Z" fill="#faf7ef" stroke="#241c10" stroke-width="0.8" stroke-linecap="round" stroke-linejoin="round"/><path d="M268.4 187.4L269 191.2M268.2 187.4L269 192.7M267.9 187.4L269 194.2M267.7 187.4L269 195.7M267.4 187.4L269 197.2M267.2 187.4L269 198.7M266.9 187.4L269 200.2M266.7 187.4L269 201.2M266.4 187.4L268.7 201.2M266.2 187.4L268.5 201.2M265.9 187.4L268.2 201.2M265.7 187.4L268 201.2M265.4 187.4L267.7 201.2M265.2 187.4L267.5 201.2M264.9 187.4L267.2 201.2M264.7 187.4L267 201.2M264.4 187.4L266.7 201.2M264.2 187.4L266.5 201.2M263.9 187.4L266.2 201.2M263.7 187.4L266 201.2M263.4 187.4L265.7 201.2M263.2 187.4L265.5 201.2M262.9 187.4L265.2 201.2M262.7 187.4L265 201.2M262.4 187.4L264.7 201.2M262.2 187.4L264.5 201.2M262.1 188.8L264.2 201.2M262.1 190.3L264 201.2M262.1 191.8L263.7 201.2M262.1 193.3L263.5 201.2M262.1 194.8L263.2 201.2M262.1 196.3L263 201.2" fill="none" stroke="#241c10" stroke-width="0.42" stroke-opacity="0.9" stroke-linecap="butt"/><path d="M245.4 187.4L251.1 181.9L264 181.9L269.6 187.4Z" fill="#faf7ef" stroke="#241c10" stroke-width="0.8" stroke-linecap="round" stroke-linejoin="round"/><path d="M250.4 182.6L264.6 182.6M249.1 183.9L266 183.9M247.8 185.2L267.3 185.2M246.4 186.5L268.7 186.5" fill="none" stroke="#241c10" stroke-width="0.35" stroke-opacity="0.8" stroke-linecap="butt"/><path d="M263.5 183.1L264.3 182.2M262.7 185.4L265 182.9M262.1 187.4L265.7 183.6M263.4 187.4L266.4 184.2M264.7 187.4L267 184.9M266 187.4L267.7 185.5M267.3 187.4L268.4 186.2" fill="none" stroke="#241c10" stroke-width="0.4" stroke-opacity="0.85" stroke-linecap="butt"/><path d="M260.3 178.5h2.6v6.7" fill="#faf7ef" stroke="#241c10" stroke-width="0.6" stroke-linecap="round" stroke-linejoin="round"/><rect x="249.2" y="191.3" width="1.4" height="2.4" fill="#241c10"/><rect x="256.8" y="191.3" width="1.4" height="2.4" fill="#241c10"/><rect x="264.5" y="191.3" width="1.4" height="2.4" fill="#241c10"/><path d="M254.2 201.2V198.2Q255.7 196.7 257.2 198.2V201.2Z" fill="#241c10"/><path d="M262.8 201.3V191.9H286.5V201.3Z" fill="#faf7ef" stroke="#241c10" stroke-width="0.8" stroke-linecap="round" stroke-linejoin="round"/><path d="M285.9 191.9L286.5 195.7M285.6 191.9L286.5 197.2M285.4 191.9L286.5 198.7M285.1 191.9L286.5 200.2M284.9 191.9L286.4 201.3M284.6 191.9L286.2 201.3M284.4 191.9L285.9 201.3M284.1 191.9L285.7 201.3M283.9 191.9L285.4 201.3M283.6 191.9L285.2 201.3M283.4 191.9L284.9 201.3M283.1 191.9L284.7 201.3M282.9 191.9L284.4 201.3M282.6 191.9L284.2 201.3M282.4 191.9L283.9 201.3M282.1 191.9L283.7 201.3M281.9 191.9L283.4 201.3M281.6 191.9L283.2 201.3M281.4 191.9L282.9 201.3M281.1 191.9L282.7 201.3M280.9 191.9L282.4 201.3M280.6 191.9L282.2 201.3M280.4 191.9L281.9 201.3M280.1 191.9L281.7 201.3M279.9 191.9L281.4 201.3M279.6 191.9L281.2 201.3M279.4 192L280.9 201.3M279.4 193.5L280.7 201.3M279.4 195L280.4 201.3M279.4 196.5L280.2 201.3" fill="none" stroke="#241c10" stroke-width="0.42" stroke-opacity="0.9" stroke-linecap="butt"/><path d="M262.2 191.9L268 188.2L281.3 188.2L287.1 191.9Z" fill="#faf7ef" stroke="#241c10" stroke-width="0.8" stroke-linecap="round" stroke-linejoin="round"/><path d="M267 188.9L282.3 188.9M265 190.2L284.3 190.2M262.9 191.5L286.3 191.5" fill="none" stroke="#241c10" stroke-width="0.35" stroke-opacity="0.8" stroke-linecap="butt"/><path d="M280.6 189.4L281.8 188.5M279.3 191.7L282.8 189.2M281 191.9L283.9 189.9M282.9 191.9L284.9 190.5M284.9 191.9L285.9 191.2" fill="none" stroke="#241c10" stroke-width="0.4" stroke-opacity="0.85" stroke-linecap="butt"/><path d="M277.5 184.8h2.6v5.6" fill="#faf7ef" stroke="#241c10" stroke-width="0.6" stroke-linecap="round" stroke-linejoin="round"/><rect x="266" y="194.6" width="1.4" height="2.4" fill="#241c10"/><rect x="273.9" y="194.6" width="1.4" height="2.4" fill="#241c10"/><rect x="281.8" y="194.6" width="1.4" height="2.4" fill="#241c10"/><path d="M278.1 201.7V189.1H303.8V201.7Z" fill="#faf7ef" stroke="#241c10" stroke-width="0.8" stroke-linecap="round" stroke-linejoin="round"/><path d="M303.2 189.1L303.8 192.9M302.9 189.1L303.8 194.4M302.7 189.1L303.8 195.9M302.4 189.1L303.8 197.4M302.2 189.1L303.8 198.9M301.9 189.1L303.8 200.4M301.7 189.1L303.8 201.7M301.4 189.1L303.5 201.7M301.2 189.1L303.3 201.7M300.9 189.1L303 201.7M300.7 189.1L302.8 201.7M300.4 189.1L302.5 201.7M300.2 189.1L302.3 201.7M299.9 189.1L302 201.7M299.7 189.1L301.8 201.7M299.4 189.1L301.5 201.7M299.2 189.1L301.3 201.7M298.9 189.1L301 201.7M298.7 189.1L300.8 201.7M298.4 189.1L300.5 201.7M298.2 189.1L300.3 201.7M297.9 189.1L300 201.7M297.7 189.1L299.8 201.7M297.4 189.1L299.5 201.7M297.2 189.1L299.3 201.7M296.9 189.1L299 201.7M296.7 189.1L298.8 201.7M296.4 189.1L298.5 201.7M296.2 189.1L298.3 201.7M296.1 190.1L298 201.7M296.1 191.6L297.8 201.7M296.1 193.1L297.5 201.7M296.1 194.6L297.3 201.7M296.1 196.1L297 201.7M296.1 197.6L296.8 201.7" fill="none" stroke="#241c10" stroke-width="0.42" stroke-opacity="0.9" stroke-linecap="butt"/><path d="M277.5 189.1L290.9 183.5L304.4 189.1Z" fill="#faf7ef" stroke="#241c10" stroke-width="0.8" stroke-linecap="round" stroke-linejoin="round"/><path d="M290.9 184.2L291.7 183.8M290.9 185.6L293.4 184.5M290.9 187L295 185.2M290.9 188.4L296.6 185.9M292.4 189.1L298.3 186.5M295.6 189.1L299.9 187.2M298.8 189.1L301.5 187.9M301.9 189.1L303.1 188.6" fill="none" stroke="#241c10" stroke-width="0.4" stroke-opacity="0.85" stroke-linecap="butt"/><rect x="281.7" y="192.6" width="1.4" height="2.4" fill="#241c10"/><rect x="290.2" y="192.6" width="1.4" height="2.4" fill="#241c10"/><rect x="298.8" y="192.6" width="1.4" height="2.4" fill="#241c10"/><path d="M287.4 201.7V198.7Q288.9 197.2 290.4 198.7V201.7Z" fill="#241c10"/><path d="M208.3 210.1V196.9H229.1V210.1Z" fill="#faf7ef" stroke="#241c10" stroke-width="1" stroke-linecap="round" stroke-linejoin="round"/><path d="M228.4 196.9L229.1 200.7M228.2 196.9L229.1 202.2M227.9 196.9L229.1 203.7M227.7 196.9L229.1 205.2M227.4 196.9L229.1 206.7M227.2 196.9L229.1 208.2M226.9 196.9L229.1 209.7M226.7 196.9L228.9 210.1M226.4 196.9L228.6 210.1M226.2 196.9L228.4 210.1M225.9 196.9L228.1 210.1M225.7 196.9L227.9 210.1M225.4 196.9L227.6 210.1M225.2 196.9L227.4 210.1M224.9 196.9L227.1 210.1M224.7 196.9L226.9 210.1M224.4 196.9L226.6 210.1M224.2 196.9L226.4 210.1M223.9 196.9L226.1 210.1M223.7 196.9L225.9 210.1M223.4 196.9L225.6 210.1M223.2 196.9L225.4 210.1M222.9 196.9L225.1 210.1M222.8 197.7L224.9 210.1M222.8 199.2L224.6 210.1M222.8 200.7L224.4 210.1M222.8 202.2L224.1 210.1M222.8 203.7L223.9 210.1M222.8 205.2L223.6 210.1" fill="none" stroke="#241c10" stroke-width="0.42" stroke-opacity="0.9" stroke-linecap="butt"/><path d="M207.7 196.9L212.8 191.7L224.5 191.7L229.7 196.9Z" fill="#faf7ef" stroke="#241c10" stroke-width="1" stroke-linecap="round" stroke-linejoin="round"/><path d="M212.2 192.3L225.1 192.3M210.9 193.6L226.4 193.6M209.6 194.9L227.7 194.9M208.3 196.2L229 196.2" fill="none" stroke="#241c10" stroke-width="0.35" stroke-opacity="0.8" stroke-linecap="butt"/><path d="M224.1 192.8L224.8 192M223.3 195.2L225.5 192.7M223 196.9L226.1 193.3M224.2 196.9L226.8 194M225.4 196.9L227.4 194.6M226.6 196.9L228.1 195.3M227.8 196.9L228.7 195.9" fill="none" stroke="#241c10" stroke-width="0.4" stroke-opacity="0.85" stroke-linecap="butt"/><path d="M221.2 188.3h2.6v6.6" fill="#faf7ef" stroke="#241c10" stroke-width="0.6" stroke-linecap="round" stroke-linejoin="round"/><rect x="212.8" y="200.6" width="1.4" height="2.4" fill="#241c10"/><rect x="223.2" y="200.6" width="1.4" height="2.4" fill="#241c10"/><path d="M215.5 210.1V207.1Q217 205.6 218.5 207.1V210.1Z" fill="#241c10"/><path d="M224.6 209.5V197.4H249.2V209.5Z" fill="#faf7ef" stroke="#241c10" stroke-width="1" stroke-linecap="round" stroke-linejoin="round"/><path d="M248.6 197.4L249.2 201.2M248.3 197.4L249.2 202.7M248.1 197.4L249.2 204.2M247.8 197.4L249.2 205.7M247.6 197.4L249.2 207.2M247.3 197.4L249.2 208.7M247.1 197.4L249.1 209.5M246.8 197.4L248.8 209.5M246.6 197.4L248.6 209.5M246.3 197.4L248.3 209.5M246.1 197.4L248.1 209.5M245.8 197.4L247.8 209.5M245.6 197.4L247.6 209.5M245.3 197.4L247.3 209.5M245.1 197.4L247.1 209.5M244.8 197.4L246.8 209.5M244.6 197.4L246.6 209.5M244.3 197.4L246.3 209.5M244.1 197.4L246.1 209.5M243.8 197.4L245.8 209.5M243.6 197.4L245.6 209.5M243.3 197.4L245.3 209.5M243.1 197.4L245.1 209.5M242.8 197.4L244.8 209.5M242.6 197.4L244.6 209.5M242.3 197.4L244.3 209.5M242.1 197.4L244.1 209.5M241.8 197.5L243.8 209.5M241.8 199L243.6 209.5M241.8 200.5L243.3 209.5M241.8 202L243.1 209.5M241.8 203.5L242.8 209.5M241.8 205L242.6 209.5" fill="none" stroke="#241c10" stroke-width="0.42" stroke-opacity="0.9" stroke-linecap="butt"/><path d="M224 197.4L236.9 192L249.8 197.4Z" fill="#faf7ef" stroke="#241c10" stroke-width="1" stroke-linecap="round" stroke-linejoin="round"/><path d="M236.9 192.7L237.7 192.3M236.9 194.1L239.3 193M236.9 195.5L241 193.7M236.9 196.9L242.6 194.4M238.9 197.4L244.2 195.1M242.1 197.4L245.8 195.8M245.2 197.4L247.5 196.4M248.4 197.4L249.1 197.1" fill="none" stroke="#241c10" stroke-width="0.4" stroke-opacity="0.85" stroke-linecap="butt"/><rect x="228" y="200.8" width="1.4" height="2.4" fill="#241c10"/><rect x="236.2" y="200.8" width="1.4" height="2.4" fill="#241c10"/><rect x="244.4" y="200.8" width="1.4" height="2.4" fill="#241c10"/><path d="M233.4 209.5V206.5Q234.9 205 236.4 206.5V209.5Z" fill="#241c10"/><path d="M244.3 209.2V194H264V209.2Z" fill="#faf7ef" stroke="#241c10" stroke-width="1" stroke-linecap="round" stroke-linejoin="round"/><path d="M263.4 194L264 197.7M263.1 194L264 199.2M262.9 194L264 200.7M262.6 194L264 202.2M262.4 194L264 203.7M262.1 194L264 205.2M261.9 194L264 206.7M261.6 194L264 208.2M261.4 194L263.9 209.2M261.1 194L263.7 209.2M260.9 194L263.4 209.2M260.6 194L263.2 209.2M260.4 194L262.9 209.2M260.1 194L262.7 209.2M259.9 194L262.4 209.2M259.6 194L262.2 209.2M259.4 194L261.9 209.2M259.1 194L261.7 209.2M258.9 194L261.4 209.2M258.6 194L261.2 209.2M258.4 194L260.9 209.2M258.1 194L260.7 209.2M258.1 195.2L260.4 209.2M258.1 196.7L260.2 209.2M258.1 198.2L259.9 209.2M258.1 199.7L259.7 209.2M258.1 201.2L259.4 209.2M258.1 202.7L259.2 209.2M258.1 204.2L258.9 209.2" fill="none" stroke="#241c10" stroke-width="0.42" stroke-opacity="0.9" stroke-linecap="butt"/><path d="M243.7 194L248.6 187.9L259.7 187.9L264.6 194Z" fill="#faf7ef" stroke="#241c10" stroke-width="1" stroke-linecap="round" stroke-linejoin="round"/><path d="M248.1 188.6L260.2 188.6M247 189.9L261.2 189.9M246 191.2L262.3 191.2M244.9 192.5L263.4 192.5M243.8 193.8L264.4 193.8" fill="none" stroke="#241c10" stroke-width="0.35" stroke-opacity="0.8" stroke-linecap="butt"/><path d="M259.3 189.1L259.9 188.2M258.7 191.4L260.5 188.9M258 193.8L261 189.6M258.8 194L261.5 190.2M259.8 194L262.1 190.9M260.8 194L262.6 191.5M261.8 194L263.1 192.2M262.8 194L263.7 192.8" fill="none" stroke="#241c10" stroke-width="0.4" stroke-opacity="0.85" stroke-linecap="butt"/><path d="M256.5 184.5h2.6v7" fill="#faf7ef" stroke="#241c10" stroke-width="0.6" stroke-linecap="round" stroke-linejoin="round"/><rect x="248.5" y="198.2" width="1.4" height="2.4" fill="#241c10"/><rect x="258.4" y="198.2" width="1.4" height="2.4" fill="#241c10"/><path d="M251 209.2V206.2Q252.5 204.7 254 206.2V209.2Z" fill="#241c10"/><path d="M256.7 209.2V192.1H284.1V209.2Z" fill="#faf7ef" stroke="#241c10" stroke-width="1" stroke-linecap="round" stroke-linejoin="round"/><path d="M283.5 192.1L284.1 195.8M283.2 192.1L284.1 197.3M283 192.1L284.1 198.8M282.7 192.1L284.1 200.3M282.5 192.1L284.1 201.8M282.2 192.1L284.1 203.3M282 192.1L284.1 204.8M281.7 192.1L284.1 206.3M281.5 192.1L284.1 207.8M281.2 192.1L284.1 209.2M281 192.1L283.8 209.2M280.7 192.1L283.6 209.2M280.5 192.1L283.3 209.2M280.2 192.1L283.1 209.2M280 192.1L282.8 209.2M279.7 192.1L282.6 209.2M279.5 192.1L282.3 209.2M279.2 192.1L282.1 209.2M279 192.1L281.8 209.2M278.7 192.1L281.6 209.2M278.5 192.1L281.3 209.2M278.2 192.1L281.1 209.2M278 192.1L280.8 209.2M277.7 192.1L280.6 209.2M277.5 192.1L280.3 209.2M277.2 192.1L280.1 209.2M277 192.1L279.8 209.2M276.7 192.1L279.6 209.2M276.5 192.1L279.3 209.2M276.2 192.1L279.1 209.2M276 192.1L278.8 209.2M275.9 193L278.6 209.2M275.9 194.5L278.3 209.2M275.9 196L278.1 209.2M275.9 197.5L277.8 209.2M275.9 199L277.6 209.2M275.9 200.5L277.3 209.2M275.9 202L277.1 209.2M275.9 203.5L276.8 209.2M275.9 205L276.6 209.2" fill="none" stroke="#241c10" stroke-width="0.42" stroke-opacity="0.9" stroke-linecap="butt"/><path d="M256.1 192.1L262.7 185.2L278.1 185.2L284.7 192.1Z" fill="#faf7ef" stroke="#241c10" stroke-width="1" stroke-linecap="round" stroke-linejoin="round"/><path d="M262.1 185.9L278.7 185.9M260.8 187.2L279.9 187.2M259.6 188.5L281.2 188.5M258.3 189.8L282.5 189.8M257.1 191.1L283.7 191.1" fill="none" stroke="#241c10" stroke-width="0.35" stroke-opacity="0.8" stroke-linecap="butt"/><path d="M277.6 186.4L278.4 185.6M276.8 188.7L279 186.2M276 191.1L279.7 186.9M276.3 192.1L280.3 187.6M277.6 192.1L281 188.2M278.8 192.1L281.6 188.9M280 192.1L282.2 189.6M281.3 192.1L282.9 190.2M282.5 192.1L283.5 190.9" fill="none" stroke="#241c10" stroke-width="0.4" stroke-opacity="0.85" stroke-linecap="butt"/><path d="M273.7 181.8h2.6v7.5" fill="#faf7ef" stroke="#241c10" stroke-width="0.6" stroke-linecap="round" stroke-linejoin="round"/><rect x="260.5" y="196.9" width="1.4" height="2.4" fill="#241c10"/><rect x="269.7" y="196.9" width="1.4" height="2.4" fill="#241c10"/><rect x="278.8" y="196.9" width="1.4" height="2.4" fill="#241c10"/><path d="M266.7 209.2V206.2Q268.2 204.7 269.7 206.2V209.2Z" fill="#241c10"/><path d="M280.9 209.7V192.9H300V209.7Z" fill="#faf7ef" stroke="#241c10" stroke-width="1" stroke-linecap="round" stroke-linejoin="round"/><path d="M299.4 192.9L300 196.6M299.1 192.9L300 198.1M298.9 192.9L300 199.6M298.6 192.9L300 201.1M298.4 192.9L300 202.6M298.1 192.9L300 204.1M297.9 192.9L300 205.6M297.6 192.9L300 207.1M297.4 192.9L300 208.6M297.1 192.9L299.9 209.7M296.9 192.9L299.7 209.7M296.6 192.9L299.4 209.7M296.4 192.9L299.2 209.7M296.1 192.9L298.9 209.7M295.9 192.9L298.7 209.7M295.6 192.9L298.4 209.7M295.4 192.9L298.2 209.7M295.1 192.9L297.9 209.7M294.9 192.9L297.7 209.7M294.6 192.9L297.4 209.7M294.4 192.9L297.2 209.7M294.3 193.8L296.9 209.7M294.3 195.3L296.7 209.7M294.3 196.8L296.4 209.7M294.3 198.3L296.2 209.7M294.3 199.8L295.9 209.7M294.3 201.3L295.7 209.7M294.3 202.8L295.4 209.7M294.3 204.3L295.2 209.7M294.3 205.8L294.9 209.7" fill="none" stroke="#241c10" stroke-width="0.42" stroke-opacity="0.9" stroke-linecap="butt"/><path d="M280.3 192.9L285.1 186.2L295.8 186.2L300.6 192.9Z" fill="#faf7ef" stroke="#241c10" stroke-width="1" stroke-linecap="round" stroke-linejoin="round"/><path d="M284.6 186.8L296.3 186.8M283.7 188.1L297.2 188.1M282.8 189.4L298.1 189.4M281.9 190.7L299.1 190.7M280.9 192L300 192" fill="none" stroke="#241c10" stroke-width="0.35" stroke-opacity="0.8" stroke-linecap="butt"/><path d="M294.9 189.7L296.5 187.1M294.3 192L297 187.8M294.7 192.9L297.4 188.5M295.5 192.9L297.9 189.1M296.4 192.9L298.4 189.8M297.3 192.9L298.8 190.4M298.2 192.9L299.3 191.1M299.1 192.9L299.8 191.7" fill="none" stroke="#241c10" stroke-width="0.4" stroke-opacity="0.85" stroke-linecap="butt"/><path d="M292.8 182.8h2.6v7.4" fill="#faf7ef" stroke="#241c10" stroke-width="0.6" stroke-linecap="round" stroke-linejoin="round"/><rect x="285" y="197.6" width="1.4" height="2.4" fill="#241c10"/><rect x="294.5" y="197.6" width="1.4" height="2.4" fill="#241c10"/><path d="M287.4 209.7V206.7Q288.9 205.2 290.4 206.7V209.7Z" fill="#241c10"/><path d="M293.3 210.1V198.8H311.7V210.1Z" fill="#faf7ef" stroke="#241c10" stroke-width="1" stroke-linecap="round" stroke-linejoin="round"/><path d="M311.1 198.8L311.7 202.5M310.9 198.8L311.7 204M310.6 198.8L311.7 205.5M310.4 198.8L311.7 207M310.1 198.8L311.7 208.5M309.9 198.8L311.7 210M309.6 198.8L311.5 210.1M309.4 198.8L311.3 210.1M309.1 198.8L311 210.1M308.9 198.8L310.8 210.1M308.6 198.8L310.5 210.1M308.4 198.8L310.3 210.1M308.1 198.8L310 210.1M307.9 198.8L309.8 210.1M307.6 198.8L309.5 210.1M307.4 198.8L309.3 210.1M307.1 198.8L309 210.1M306.9 198.8L308.8 210.1M306.6 198.8L308.5 210.1M306.4 198.8L308.3 210.1M306.2 199.4L308 210.1M306.2 200.9L307.8 210.1M306.2 202.4L307.5 210.1M306.2 203.9L307.3 210.1M306.2 205.4L307 210.1" fill="none" stroke="#241c10" stroke-width="0.42" stroke-opacity="0.9" stroke-linecap="butt"/><path d="M292.7 198.8L297.4 194.3L307.7 194.3L312.3 198.8Z" fill="#faf7ef" stroke="#241c10" stroke-width="1" stroke-linecap="round" stroke-linejoin="round"/><path d="M296.7 194.9L308.4 194.9M295.4 196.2L309.7 196.2M294.1 197.5L311 197.5" fill="none" stroke="#241c10" stroke-width="0.35" stroke-opacity="0.8" stroke-linecap="butt"/><path d="M307.3 195.4L308 194.6M306.4 197.8L308.7 195.2M306.8 198.8L309.4 195.9M308 198.8L310 196.5M309.3 198.8L310.7 197.2M310.5 198.8L311.4 197.9" fill="none" stroke="#241c10" stroke-width="0.4" stroke-opacity="0.85" stroke-linecap="butt"/><path d="M304.8 190.9h2.6v6.1" fill="#faf7ef" stroke="#241c10" stroke-width="0.6" stroke-linecap="round" stroke-linejoin="round"/><rect x="297.2" y="202" width="1.4" height="2.4" fill="#241c10"/><rect x="306.4" y="202" width="1.4" height="2.4" fill="#241c10"/><path d="M229.5 209.5V179.3H239.2V209.5Z" fill="#faf7ef" stroke="#241c10" stroke-width="1" stroke-linecap="round" stroke-linejoin="round"/><path d="M230.3 182.5H238.4M230.3 185.7H238.4M230.3 188.9H238.4M230.3 192.1H238.4M230.3 195.3H238.4M230.3 198.5H238.4M230.3 201.7H238.4M230.3 204.9H238.4M230.3 208.1H238.4" fill="none" stroke="#241c10" stroke-width="0.3" stroke-opacity="0.55"/><path d="M238.5 179.3L239.2 183M238.3 179.3L239.2 184.5M238 179.3L239.2 186M237.8 179.3L239.2 187.5M237.5 179.3L239.2 189M237.3 179.3L239.2 190.5M237 179.3L239.2 192M236.8 179.3L239.2 193.5M236.5 179.3L239.2 195M236.3 179.3L239.2 196.5M236.3 180.7L239.2 198M236.3 182.2L239.2 199.5M236.3 183.7L239.2 201M236.3 185.2L239.2 202.5M236.3 186.7L239.2 204M236.3 188.2L239.2 205.5M236.3 189.7L239.2 207M236.3 191.2L239.2 208.5M236.3 192.7L239.1 209.5M236.3 194.2L238.8 209.5M236.3 195.7L238.6 209.5M236.3 197.2L238.3 209.5M236.3 198.7L238.1 209.5M236.3 200.2L237.8 209.5M236.3 201.7L237.6 209.5M236.3 203.2L237.3 209.5M236.3 204.7L237.1 209.5" fill="none" stroke="#241c10" stroke-width="0.42" stroke-opacity="0.9" stroke-linecap="butt"/><path d="M228.9 179.3L234.3 162.6L239.8 179.3Z" fill="#faf7ef" stroke="#241c10" stroke-width="1" stroke-linecap="round" stroke-linejoin="round"/><path d="M234.3 167.2L235.1 164.9M234.3 168.5L235.3 165.5M234.3 169.8L235.5 166.2M234.3 171.1L235.7 166.8M234.3 172.4L235.9 167.5M234.3 173.7L236.1 168.1M234.3 175L236.3 168.8M234.3 176.3L236.6 169.4M234.3 177.6L236.8 170.1M234.3 178.9L237 170.7M234.6 179.3L237.2 171.4M235.1 179.3L237.4 172M235.5 179.3L237.6 172.7M235.9 179.3L237.8 173.3M236.3 179.3L238 174M236.8 179.3L238.3 174.6M237.2 179.3L238.5 175.3M237.6 179.3L238.7 175.9M238 179.3L238.9 176.6M238.4 179.3L239.1 177.2" fill="none" stroke="#241c10" stroke-width="0.4" stroke-opacity="0.85" stroke-linecap="butt"/><path d="M234.3 161.6V158M232.5 159.4H236.1" fill="none" stroke="#241c10" stroke-width="0.8" stroke-linecap="round" stroke-linejoin="round"/><path d="M232.9 182.3v3.4q1.4 -1.2 2.8 0v-3.4Z" fill="#241c10"/><rect x="233.7" y="188.3" width="1.2" height="3" fill="#241c10"/><rect x="233.7" y="196.2" width="1.2" height="3" fill="#241c10"/></g><path d="M28.4 271.2H58.6M64 271.2H99.2M106.7 271.2H154.4M158.2 271.2H174.3M181.9 271.2H234.6M239.7 271.2H281.8M286.6 271.2H309.6M313.9 271.2H338M343.1 271.2H391.9M399.4 271.2H442M446.6 271.2H484.5M490.6 271.2H497M28.7 273.8H67.7M71.5 273.8H107.8M111.8 273.8H127M131.4 273.8H182.1M187.3 273.8H211.6M213.9 273.8H258.4M261.4 273.8H295.3M301.4 273.8H338.7M344.5 273.8H371.3M376.7 273.8H425.9M429.3 273.8H477.2M483.4 273.8H497M23.7 276.3H42.7M49.3 276.3H64.3M68.6 276.3H83.8M90.5 276.3H136.7M139.4 276.3H184M191.3 276.3H221.9M227.6 276.3H255M257.2 276.3H276.2M278.9 276.3H328.2M330.7 276.3H357.4M362.4 276.3H415.6M418.6 276.3H464.5M467.3 276.3H497M27.1 278.8H66.5M73.9 278.8H98.4M100.8 278.8H129.7M137.1 278.8H156.1M161.3 278.8H193.8M200.7 278.8H231.4M237.3 278.8H260.9M265.7 278.8H306.6M313.8 278.8H348M355.5 278.8H369.7M377.2 278.8H423.3M427.2 278.8H463.7M467.3 278.8H497M25.3 281.2H57.1M64.4 281.2H114.9M121.9 281.2H143.8M151.4 281.2H181.4M184.3 281.2H218.4M225.9 281.2H245.6M248.4 281.2H285.8M292.6 281.2H312.7M319.3 281.2H358M365.2 281.2H388.8M392.3 281.2H443.2M447.6 281.2H476.3M484.1 281.2H497M28.5 283.6H75.5M82.7 283.6H120.4M126.8 283.6H166.9M169.2 283.6H191.4M195 283.6H216.6M223.1 283.6H250.5M253.6 283.6H274M280.9 283.6H317.5M325.2 283.6H372.6M380 283.6H411.1M413.6 283.6H433.3M440.5 283.6H485.8M489.2 283.6H497M24.8 285.9H56.5M59.2 285.9H110.1M112.5 285.9H150.1M154.7 285.9H199.4M201.6 285.9H253M258.2 285.9H283.4M287.7 285.9H307.5M314.4 285.9H333.6M340.3 285.9H363.1M370.9 285.9H397.9M403.5 285.9H434.5M439.7 285.9H492.6M27.1 288.1H78.5M83.8 288.1H121.3M127.5 288.1H176.8M182.8 288.1H227.1M229.7 288.1H245.7M251.7 288.1H293.1M295.6 288.1H349.6M352.9 288.1H380.2M387.3 288.1H406.5M414.2 288.1H459.1M465.3 288.1H497M23.8 290.3H61.4M67.2 290.3H83.1M86.9 290.3H136.2M141.2 290.3H177.1M182.6 290.3H230.6M238.4 290.3H285.1M288.8 290.3H341.2M348.4 290.3H397.3M404.5 290.3H452.3M460.1 290.3H497M28.7 292.4H60.7M66.6 292.4H86.4M91.5 292.4H135.4M142.5 292.4H162.7M165.3 292.4H208.4M212.2 292.4H226.3M229.7 292.4H256.7M259 292.4H281.7M286.1 292.4H307.8M310.8 292.4H363.8M368 292.4H385.1M390.4 292.4H417.5M420.5 292.4H447.1M454.6 292.4H492.5M23.7 294.5H40M47.7 294.5H76.8M79.2 294.5H129.8M135.6 294.5H188.4M194.4 294.5H227.2M229.4 294.5H273.2M280.6 294.5H299.6M302.5 294.5H348.1M350.4 294.5H393.8M399.9 294.5H429.9M433.8 294.5H479.1M485.6 294.5H497M26.2 296.5H51.2M55.2 296.5H104.1M110.9 296.5H126.3M131.6 296.5H179.4M181.5 296.5H217.4M220.6 296.5H240.3M245.4 296.5H275.4M278.8 296.5H306.1M310.9 296.5H357.6M364.2 296.5H409.8M414.3 296.5H431.2M438.3 296.5H467.5M471.5 296.5H497M24.4 298.4H69.6M73.5 298.4H113.1M115.6 298.4H145.9M149.4 298.4H200.1M203.7 298.4H253.1M258.1 298.4H310.9M314.4 298.4H355.4M362 298.4H399.5M406.3 298.4H449.1M455.5 298.4H491.8M495.6 298.4H497M27 300.3H58.9M65.1 300.3H103.3M107.4 300.3H134.2M139.5 300.3H167.3M172.2 300.3H201.4M203.9 300.3H230.7M236.9 300.3H286M288.2 300.3H333.2M341.1 300.3H370.1M376.4 300.3H399M403.7 300.3H426.5M431.1 300.3H448.8M455.8 300.3H495.4M27.7 302.1H47.6M53.3 302.1H81.2M89 302.1H136.8M142.8 302.1H163.6M167.7 302.1H184.9M189.8 302.1H238.7M242.1 302.1H262.4M269.3 302.1H306.8M309.1 302.1H362.6M365.1 302.1H410.7M414.3 302.1H463M465.8 302.1H483.9M489 302.1H497M27.8 303.9H52.1M54.8 303.9H104.8M108.2 303.9H144.1M151.6 303.9H190M193.2 303.9H216.6M218.9 303.9H260.4M263.9 303.9H316.1M322.4 303.9H366.4M372.7 303.9H413.5M417.8 303.9H435.3M441.2 303.9H462M468.4 303.9H497M23.8 305.6H62M66.4 305.6H112.6M114.8 305.6H148.3M151.9 305.6H179.9M185.6 305.6H223.6M225.9 305.6H253.5M261.3 305.6H309.2M315.6 305.6H346.4M351.3 305.6H380.7M383.1 305.6H399.4M402.9 305.6H456.6M464.4 305.6H497M23.7 307.2H38M45.1 307.2H80M85.2 307.2H113.4M115.8 307.2H132.4M140.3 307.2H172.3M174.7 307.2H197.5M204.5 307.2H230.4M232.8 307.2H269.3M274.4 307.2H296M300.4 307.2H352.8M356.8 307.2H373.6M380.5 307.2H418.8M426.4 307.2H464.7M468.4 307.2H497M27 308.8H59.7M66.4 308.8H91.2M96.5 308.8H128.1M132.6 308.8H177.6M185.5 308.8H227M231.8 308.8H262.2M269.5 308.8H295.7M300.3 308.8H341.1M343.2 308.8H378.5M381.1 308.8H410.4M413.5 308.8H460.6M463.3 308.8H497M26.1 310.3H67.9M74.2 310.3H97.7M104.1 310.3H129.7M137.4 310.3H190M193.7 310.3H229.4M234.6 310.3H251.9M259.8 310.3H278.4M280.5 310.3H323M326.2 310.3H340.6M345 310.3H367.4M372.8 310.3H414.1M421.9 310.3H444.6M450.6 310.3H497M25.6 311.8H57.4M63.6 311.8H110.3M115 311.8H143.6M150.1 311.8H186.2M191.5 311.8H210M216.5 311.8H238.9M242.2 311.8H283.4M285.6 311.8H315.1M322.4 311.8H348.7M350.9 311.8H370.7M377 311.8H421.1M424 311.8H456.5M462.2 311.8H497M28.6 313.3H45.7M49.2 313.3H78.8M80.8 313.3H123.6M130.4 313.3H157.4M164.8 313.3H195.2M198.1 313.3H218M225.2 313.3H258.4M263.8 313.3H286.2M289.4 313.3H325.8M331.2 313.3H384.2M388.6 313.3H435.5M442.6 313.3H490.8M495.3 313.3H497M23.4 314.8H55M59.3 314.8H99.3M101.3 314.8H117.3M120.9 314.8H154.9M158 314.8H185.6M190.1 314.8H228.3M235 314.8H253.6M261 314.8H284.6M292.1 314.8H326.7M332.7 314.8H382.1M387.5 314.8H416.2M419.8 314.8H470.6M477.4 314.8H494.3M25.5 316.3H66.9M69.7 316.3H118M120.6 316.3H149.7M155.2 316.3H200.9M207.2 316.3H241.8M245.2 316.3H293.1M298.9 316.3H321.2M327.2 316.3H348.8M353.4 316.3H381.5M388.4 316.3H412.9M418.7 316.3H446.1M449.2 316.3H466.1M472.2 316.3H494.8M26 317.8H62.8M68 317.8H96.1M98.4 317.8H128M135.6 317.8H178.5M181.8 317.8H196.1M203.8 317.8H241M245.2 317.8H282.9M284.9 317.8H328.8M335.4 317.8H374.5M378.6 317.8H423.7M430.3 317.8H456.1M462.2 317.8H497M27 319.3H53.9M56.5 319.3H106.3M114.2 319.3H139.2M147 319.3H192.8M195.7 319.3H217.3M224 319.3H257.5M261.1 319.3H295M299.3 319.3H314M316.2 319.3H366.3M371.8 319.3H421M428.1 319.3H455.1M458.3 319.3H497M23.4 320.8H56.6M61 320.8H105.7M113.5 320.8H133.7M140.1 320.8H160.1M163.3 320.8H185.1M190.9 320.8H213.1M216.1 320.8H267.4M272 320.8H309.8M316.8 320.8H351.2M354.6 320.8H385.1M389.6 320.8H434.5M442.3 320.8H474.1M479.9 320.8H497M23.2 322.3H64.3M66.6 322.3H104.2M109.6 322.3H162.6M167.8 322.3H201.7M204.3 322.3H227.2M229.4 322.3H246.1M249.4 322.3H286.5M292.4 322.3H330.8M333.7 322.3H361.8M369.4 322.3H415.7M422.5 322.3H448.7M454.2 322.3H487.3M492.2 322.3H497M24.8 323.8H66.9M71.3 323.8H91.2M94.8 323.8H124.4M130.4 323.8H165.2M171 323.8H205.8M208.1 323.8H245.2M249.8 323.8H268.6M270.7 323.8H298.2M304.8 323.8H357M362.9 323.8H384.1M389.1 323.8H411M418.7 323.8H448.5M451 323.8H484.5M488.3 323.8H497M23.3 325.3H59.9M66.3 325.3H111.8M116.1 325.3H135.3M142.2 325.3H188.4M193.8 325.3H237M242.7 325.3H274M276.8 325.3H325.3M327.4 325.3H368.5M376.2 325.3H395.1M398.4 325.3H412.7M415.3 325.3H458.9M465.3 325.3H497M27.4 326.8H44.4M49.8 326.8H67.7M71.4 326.8H124.8M131 326.8H183.9M191.5 326.8H206.8M212.3 326.8H254.5M262.2 326.8H308.9M312.3 326.8H341.1M347.1 326.8H380.7M384.3 326.8H405M410.8 326.8H451.3M455.2 326.8H477.5M483.6 326.8H497" fill="none" stroke="#241c10" stroke-width="0.38" stroke-opacity="0.72" stroke-linecap="butt"/><path d="M23 270H497" fill="none" stroke="#241c10" stroke-width="1" stroke-linecap="round" stroke-linejoin="round"/><g transform="translate(0 40)"><path d="M170 239L350 239M170 241.4L350 241.4" fill="none" stroke="#241c10" stroke-width="1" stroke-linecap="round" stroke-linejoin="round"/><path d="M176 244v2.6M185 244v2.6M194 244v2.6M203 244v2.6M212 244v2.6M221 244v2.6M230 244v2.6M239 244v2.6M248 244v2.6M257 244v2.6M266 244v2.6M275 244v2.6M284 244v2.6M293 244v2.6M302 244v2.6M311 244v2.6M320 244v2.6M329 244v2.6M338 244v2.6" fill="none" stroke="#5a5246" stroke-width="0.6" stroke-opacity="0.8"/><path d="M368 267L368 252L379 245.3L390 252L390 267Z" fill="#faf7ef" stroke="#241c10" stroke-width="1.2" stroke-linecap="round" stroke-linejoin="round"/><rect x="373.9" y="257.7" width="1.4" height="2.6" fill="#241c10"/><rect x="382.7" y="257.7" width="1.4" height="2.6" fill="#241c10"/><path d="M377.4 267L377.4 264Q379 262.5 380.6 264L380.6 267Z" fill="#241c10"/><path d="M380.1 248.3l3.5 3.7M383.2 248.7l3.5 3.7" fill="none" stroke="#241c10" stroke-width="0.7" stroke-linecap="round" stroke-linejoin="round"/><circle cx="364" cy="259" r="6" fill="none" stroke="#241c10" stroke-width="0.9" stroke-linecap="round" stroke-linejoin="round"/><path d="M358 259L370 259M359.8 254.8L368.2 263.2M364 253L364 265M368.2 254.8L359.8 263.2" fill="none" stroke="#241c10" stroke-width="0.55"/></g><path d="M203 38.4q9 -10.8 14.4 -1.8L302.6 36.6q5.4 -12.6 14.4 -1.8q5.4 8.1 -1.8 12.6L311.6 51.4q5.4 12.6 -5.4 10.8q-7.2 -5.4 -10.8 -8.1L220.1 54.1q-8.1 8.1 -13.5 1.8q-3.6 -9 3.6 -11.7Z" fill="#faf7ef" stroke="#241c10" stroke-width="0.9" stroke-linecap="round" stroke-linejoin="round"/><rect x="212" y="33" width="96" height="22" fill="#faf7ef" stroke="#241c10" stroke-width="0.6" stroke-linecap="round" stroke-linejoin="round"/><rect x="213.6" y="34.6" width="92.8" height="18.8" fill="none" stroke="#241c10" stroke-width="0.35" stroke-opacity="0.7"/><circle cx="209.3" cy="44" r="1.3" fill="#faf7ef" stroke="#241c10" stroke-width="0.6" stroke-linecap="round" stroke-linejoin="round"/><circle cx="310.7" cy="44" r="1.3" fill="#faf7ef" stroke="#241c10" stroke-width="0.6" stroke-linecap="round" stroke-linejoin="round"/><text x="260" y="48.7" text-anchor="middle" font-family="&apos;Iowan Old Style&apos;, &apos;Palatino&apos;, &apos;Georgia&apos;, serif" font-size="13" letter-spacing="2.4" fill="#241c10">VOOREA</text><path d="M173.1 64.5L157.1 67.5L163.1 72L157.1 78.5L173.1 75.5Z" fill="#faf7ef" stroke="#241c10" stroke-width="0.7" stroke-linecap="round" stroke-linejoin="round"/><path d="M346.9 64.5L362.9 67.5L356.9 72L362.9 78.5L346.9 75.5Z" fill="#faf7ef" stroke="#241c10" stroke-width="0.7" stroke-linecap="round" stroke-linejoin="round"/><path d="M167.1 64.5q92.9 -3 185.8 0L352.9 75.5q-92.9 3 -185.8 0Z" fill="#faf7ef" stroke="#241c10" stroke-width="0.8" stroke-linecap="round" stroke-linejoin="round"/><path d="M167.1 64.5l6 2.4M352.9 64.5l-6 2.4" fill="none" stroke="#241c10" stroke-width="0.5"/><text x="260" y="72.8" text-anchor="middle" font-family="&apos;Iowan Old Style&apos;, &apos;Palatino&apos;, &apos;Georgia&apos;, serif" font-size="8.2" font-style="italic" fill="#241c10">a village at the weir, founded An. 482</text><circle cx="64" cy="60" r="22" fill="#faf7ef" stroke="#241c10" stroke-width="0.5" stroke-opacity="0.6"/><path d="M86 60q2.4 -3 0.6 -6.4q-2 -3 -0.6 6.4M83.8 60q-2.4 -3 -0.6 -6.4M79 75q3.7 -0.4 4.8 -4q0.7 -3.4 -4.8 4M77.5 73.5q0.4 -3.7 4 -4.8M75 79.1q3.8 0.6 5.8 -2.7q1.6 -3.2 -5.8 2.7M73.9 77.1q1.4 -3.6 5.2 -3.7M58.5 80.5q-3.4 1.5 -6.1 -1q-2.3 -2.6 6.1 1M59.1 78.5q-2.2 -3 -5.8 -2.2M53 79.1q-3.8 0.6 -5.8 -2.7q-1.6 -3.2 5.8 2.7M54.1 77.1q-1.4 -3.6 -5.2 -3.7M43.5 65.5q-3 -2.2 -2.2 -5.8q1.1 -3.3 2.2 5.8M45.5 65q1.5 -3.4 -1 -6.1M42 60q-2.4 -3 -0.6 -6.4q2 -3 0.6 6.4M44.2 60q2.4 -3 0.6 -6.4M49 45q0.4 -3.7 4 -4.8q3.4 -0.7 -4 4.8M50.5 46.5q3.7 -0.4 4.8 -4M53 40.9q1.4 -3.6 5.2 -3.7q3.6 0.2 -5.2 3.7M54.1 42.9q3.8 0.6 5.8 -2.7M69.5 39.5q-2.2 -3 -5.8 -2.2q-3.3 1.1 5.8 2.2M69 41.5q-3.4 1.5 -6.1 -1M75 40.9q-1.4 -3.6 -5.2 -3.7q-3.6 0.2 5.2 3.7M73.9 42.9q-3.8 0.6 -5.8 -2.7M84.5 54.5q1.5 -3.4 -1 -6.1q-2.6 -2.3 1 6.1M82.5 55.1q-3 -2.2 -2.2 -5.8M86 60q2.4 -3 0.6 -6.4q-2 -3 -0.6 6.4M83.8 60q-2.4 -3 -0.6 -6.4M79 75q3.7 -0.4 4.8 -4q0.7 -3.4 -4.8 4M77.5 73.5q0.4 -3.7 4 -4.8M75 79.1q3.8 0.6 5.8 -2.7q1.6 -3.2 -5.8 2.7M73.9 77.1q1.4 -3.6 5.2 -3.7M58.5 80.5q-3.4 1.5 -6.1 -1q-2.3 -2.6 6.1 1M59.1 78.5q-2.2 -3 -5.8 -2.2M53 79.1q-3.8 0.6 -5.8 -2.7q-1.6 -3.2 5.8 2.7M54.1 77.1q-1.4 -3.6 -5.2 -3.7M43.5 65.5q-3 -2.2 -2.2 -5.8q1.1 -3.3 2.2 5.8M45.5 65q1.5 -3.4 -1 -6.1M42 60q-2.4 -3 -0.6 -6.4q2 -3 0.6 6.4M44.2 60q2.4 -3 0.6 -6.4M49 45q0.4 -3.7 4 -4.8q3.4 -0.7 -4 4.8M50.5 46.5q3.7 -0.4 4.8 -4M53 40.9q1.4 -3.6 5.2 -3.7q3.6 0.2 -5.2 3.7M54.1 42.9q3.8 0.6 5.8 -2.7M69.5 39.5q-2.2 -3 -5.8 -2.2q-3.3 1.1 5.8 2.2M69 41.5q-3.4 1.5 -6.1 -1M75 40.9q-1.4 -3.6 -5.2 -3.7q-3.6 0.2 5.2 3.7M73.9 42.9q-3.8 0.6 -5.8 -2.7M84.5 54.5q1.5 -3.4 -1 -6.1q-2.6 -2.3 1 6.1M82.5 55.1q-3 -2.2 -2.2 -5.8" fill="#faf7ef" stroke="#241c10" stroke-width="0.5" stroke-linejoin="round"/><path d="M61 85q3 -4 6 0q-3 2 -6 0M64 83l-3 7M64 83l3 7" fill="none" stroke="#241c10" stroke-width="0.6"/><g class="vellum-arms"><defs><pattern id="hatch-gules-d-ink-26-22-wreath" patternUnits="userSpaceOnUse" width="3.12" height="3.12"><rect x="0" y="0" width="3.12" height="3.12" fill="#faf7ef"/><path d="M1.56 0V3.12" fill="none" stroke="#241c10" stroke-width="0.48"/></pattern></defs><clipPath id="vellum-arms-d-ink-26-22-wreath"><path d="M52 46.84L76 46.84L76 59.87Q76 70.06 64 75.16Q52 70.06 52 59.87Z"/></clipPath><g clip-path="url(#vellum-arms-d-ink-26-22-wreath)"><rect x="52" y="46.84" width="24" height="28.32" fill="url(#hatch-gules-d-ink-26-22-wreath)"/><g><circle cx="64" cy="54.07" r="1.63" fill="none" stroke="#f1ece1" stroke-width="1.31"/><path d="M64 55.7L64 66.55" fill="none" stroke="#f1ece1" stroke-width="1.31" stroke-linecap="round" stroke-linejoin="round"/><path d="M60.33 57.58L67.67 57.58" fill="none" stroke="#f1ece1" stroke-width="1.31" stroke-linecap="round" stroke-linejoin="round"/><path d="M64 66.55Q57.47 66.15 59.51 62.07" fill="none" stroke="#f1ece1" stroke-width="1.31" stroke-linecap="round" stroke-linejoin="round"/><path d="M64 66.55Q70.53 66.15 68.49 62.07" fill="none" stroke="#f1ece1" stroke-width="1.31" stroke-linecap="round" stroke-linejoin="round"/></g></g><path d="M52 46.84L76 46.84L76 59.87Q76 70.06 64 75.16Q52 70.06 52 59.87Z" fill="none" stroke="#241c10" stroke-width="1.08" stroke-linejoin="round"/></g><circle cx="456" cy="60" r="22" fill="#faf7ef" stroke="#241c10" stroke-width="0.5" stroke-opacity="0.6"/><path d="M478 60q2.4 -3 0.6 -6.4q-2 -3 -0.6 6.4M475.8 60q-2.4 -3 -0.6 -6.4M471 75q3.7 -0.4 4.8 -4q0.7 -3.4 -4.8 4M469.5 73.5q0.4 -3.7 4 -4.8M467 79.1q3.8 0.6 5.8 -2.7q1.6 -3.2 -5.8 2.7M465.9 77.1q1.4 -3.6 5.2 -3.7M450.5 80.5q-3.4 1.5 -6.1 -1q-2.3 -2.6 6.1 1M451.1 78.5q-2.2 -3 -5.8 -2.2M445 79.1q-3.8 0.6 -5.8 -2.7q-1.6 -3.2 5.8 2.7M446.1 77.1q-1.4 -3.6 -5.2 -3.7M435.5 65.5q-3 -2.2 -2.2 -5.8q1.1 -3.3 2.2 5.8M437.5 65q1.5 -3.4 -1 -6.1M434 60q-2.4 -3 -0.6 -6.4q2 -3 0.6 6.4M436.2 60q2.4 -3 0.6 -6.4M441 45q0.4 -3.7 4 -4.8q3.4 -0.7 -4 4.8M442.5 46.5q3.7 -0.4 4.8 -4M445 40.9q1.4 -3.6 5.2 -3.7q3.6 0.2 -5.2 3.7M446.1 42.9q3.8 0.6 5.8 -2.7M461.5 39.5q-2.2 -3 -5.8 -2.2q-3.3 1.1 5.8 2.2M461 41.5q-3.4 1.5 -6.1 -1M467 40.9q-1.4 -3.6 -5.2 -3.7q-3.6 0.2 5.2 3.7M465.9 42.9q-3.8 0.6 -5.8 -2.7M476.5 54.5q1.5 -3.4 -1 -6.1q-2.6 -2.3 1 6.1M474.5 55.1q-3 -2.2 -2.2 -5.8M478 60q2.4 -3 0.6 -6.4q-2 -3 -0.6 6.4M475.8 60q-2.4 -3 -0.6 -6.4M471 75q3.7 -0.4 4.8 -4q0.7 -3.4 -4.8 4M469.5 73.5q0.4 -3.7 4 -4.8M467 79.1q3.8 0.6 5.8 -2.7q1.6 -3.2 -5.8 2.7M465.9 77.1q1.4 -3.6 5.2 -3.7M450.5 80.5q-3.4 1.5 -6.1 -1q-2.3 -2.6 6.1 1M451.1 78.5q-2.2 -3 -5.8 -2.2M445 79.1q-3.8 0.6 -5.8 -2.7q-1.6 -3.2 5.8 2.7M446.1 77.1q-1.4 -3.6 -5.2 -3.7M435.5 65.5q-3 -2.2 -2.2 -5.8q1.1 -3.3 2.2 5.8M437.5 65q1.5 -3.4 -1 -6.1M434 60q-2.4 -3 -0.6 -6.4q2 -3 0.6 6.4M436.2 60q2.4 -3 0.6 -6.4M441 45q0.4 -3.7 4 -4.8q3.4 -0.7 -4 4.8M442.5 46.5q3.7 -0.4 4.8 -4M445 40.9q1.4 -3.6 5.2 -3.7q3.6 0.2 -5.2 3.7M446.1 42.9q3.8 0.6 5.8 -2.7M461.5 39.5q-2.2 -3 -5.8 -2.2q-3.3 1.1 5.8 2.2M461 41.5q-3.4 1.5 -6.1 -1M467 40.9q-1.4 -3.6 -5.2 -3.7q-3.6 0.2 5.2 3.7M465.9 42.9q-3.8 0.6 -5.8 -2.7M476.5 54.5q1.5 -3.4 -1 -6.1q-2.6 -2.3 1 6.1M474.5 55.1q-3 -2.2 -2.2 -5.8" fill="#faf7ef" stroke="#241c10" stroke-width="0.5" stroke-linejoin="round"/><path d="M453 85q3 -4 6 0q-3 2 -6 0M456 83l-3 7M456 83l3 7" fill="none" stroke="#241c10" stroke-width="0.6"/><text x="456" y="56" text-anchor="middle" font-family="&apos;Iowan Old Style&apos;, &apos;Palatino&apos;, &apos;Georgia&apos;, serif" font-size="7" letter-spacing="1.4" fill="#241c10">CHART</text><text x="456" y="67" text-anchor="middle" font-family="&apos;Iowan Old Style&apos;, &apos;Palatino&apos;, &apos;Georgia&apos;, serif" font-size="10.5" fill="#241c10">№ 26</text><text x="456" y="75" text-anchor="middle" font-family="&apos;Iowan Old Style&apos;, &apos;Palatino&apos;, &apos;Georgia&apos;, serif" font-size="5.6" font-style="italic" fill="#5a5246">An. 642</text><path d="M16 321.6q9 -10.8 14.4 -1.8L213.6 319.8q5.4 -12.6 14.4 -1.8q5.4 8.1 -1.8 12.6L222.6 348.4q5.4 12.6 -5.4 10.8q-7.2 -5.4 -10.8 -8.1L33.1 351.1q-8.1 8.1 -13.5 1.8q-3.6 -9 3.6 -11.7Z" fill="#faf7ef" stroke="#241c10" stroke-width="0.9" stroke-linecap="round" stroke-linejoin="round"/><rect x="25" y="316.2" width="194" height="35.8" fill="#faf7ef" stroke="#241c10" stroke-width="0.6" stroke-linecap="round" stroke-linejoin="round"/><rect x="26.6" y="317.8" width="190.8" height="32.6" fill="none" stroke="#241c10" stroke-width="0.35" stroke-opacity="0.7"/><circle cx="22.3" cy="334.1" r="1.3" fill="#faf7ef" stroke="#241c10" stroke-width="0.6" stroke-linecap="round" stroke-linejoin="round"/><circle cx="221.7" cy="334.1" r="1.3" fill="#faf7ef" stroke="#241c10" stroke-width="0.6" stroke-linecap="round" stroke-linejoin="round"/><text x="31" y="325.2" font-family="&apos;Iowan Old Style&apos;, &apos;Palatino&apos;, &apos;Georgia&apos;, serif" font-size="6.6" font-style="italic" fill="#241c10">1. The Weir Mill</text><text x="31" y="333.8" font-family="&apos;Iowan Old Style&apos;, &apos;Palatino&apos;, &apos;Georgia&apos;, serif" font-size="6.6" font-style="italic" fill="#241c10">2. The Weir</text><text x="31" y="342.4" font-family="&apos;Iowan Old Style&apos;, &apos;Palatino&apos;, &apos;Georgia&apos;, serif" font-size="6.6" font-style="italic" fill="#241c10">3. The Matali Run</text><text x="123" y="325.2" font-family="&apos;Iowan Old Style&apos;, &apos;Palatino&apos;, &apos;Georgia&apos;, serif" font-size="6.6" font-style="italic" fill="#241c10">4. The Spires of Nini</text><text x="123" y="333.8" font-family="&apos;Iowan Old Style&apos;, &apos;Palatino&apos;, &apos;Georgia&apos;, serif" font-size="6.6" font-style="italic" fill="#241c10">5. In the Realm of Theal</text><text x="379" y="280" text-anchor="middle" font-family="&apos;Iowan Old Style&apos;, &apos;Palatino&apos;, &apos;Georgia&apos;, serif" font-size="8" font-style="italic" fill="#faf7ef" stroke="#faf7ef" stroke-width="2.4">1</text><text x="379" y="280" text-anchor="middle" font-family="&apos;Iowan Old Style&apos;, &apos;Palatino&apos;, &apos;Georgia&apos;, serif" font-size="8" font-style="italic" fill="#241c10">1</text><text x="260" y="267" text-anchor="middle" font-family="&apos;Iowan Old Style&apos;, &apos;Palatino&apos;, &apos;Georgia&apos;, serif" font-size="8" font-style="italic" fill="#faf7ef" stroke="#faf7ef" stroke-width="2.4">2</text><text x="260" y="267" text-anchor="middle" font-family="&apos;Iowan Old Style&apos;, &apos;Palatino&apos;, &apos;Georgia&apos;, serif" font-size="8" font-style="italic" fill="#241c10">2</text><text x="27" y="21" text-anchor="start" font-family="&apos;Iowan Old Style&apos;, &apos;Palatino&apos;, &apos;Georgia&apos;, serif" font-size="6.2" font-style="italic" fill="#5a5246">Oriens</text><text x="493" y="21" text-anchor="end" font-family="&apos;Iowan Old Style&apos;, &apos;Palatino&apos;, &apos;Georgia&apos;, serif" font-size="6.2" font-style="italic" fill="#5a5246">Occidens</text><text x="260" y="21" text-anchor="middle" font-family="&apos;Iowan Old Style&apos;, &apos;Palatino&apos;, &apos;Georgia&apos;, serif" font-size="6.2" font-style="italic" fill="#5a5246">Meridies</text><text x="27" y="369" text-anchor="start" font-family="&apos;Iowan Old Style&apos;, &apos;Palatino&apos;, &apos;Georgia&apos;, serif" font-size="6.2" font-style="italic" fill="#5a5246">Septentrio</text><text x="260" y="369" text-anchor="middle" font-family="&apos;Iowan Old Style&apos;, &apos;Palatino&apos;, &apos;Georgia&apos;, serif" font-size="7.4" letter-spacing="2" fill="#5a5246">FOUNDED AN. 482  ·  VELLUM  ·  CHART № 26</text><rect x="10" y="10" width="500" height="364" fill="none" stroke="#241c10" stroke-width="2"/><rect x="14" y="14" width="492" height="356" fill="none" stroke="#241c10" stroke-width="0.7"/></svg>