<svg xmlns="http://www.w3.org/2000/svg" viewBox="0 0 520 384" width="520" height="384" role="img" aria-label="Direction D, Lokai"><rect x="0" y="0" width="520" height="384" fill="#faf7ef"/><path d="M28.7 271.5H491.8M28.8 270H492M29 268.4H490.8M29.1 266.6H491M27.5 264.2H490.9M27.8 262.3H490.7M29.2 259.5H491.6M28.3 256.9H490.8M27.7 254.2H490.6M28.4 251.3H490.7M29.5 248.2H162.6M215.2 248.3H337.6M399.1 248.1H490.4M29 245H100.4M123 244.8H269.4M305.3 245.1H369.6M437.4 245.1H490.9M28.6 241.5H76.3M101.2 241.4H254.9M284.1 241.2H394.7M451.4 241.5H490.1M29 237.6H138.9M186.3 237.8H363.1M393.1 237.8H491.6M28.6 233.9H162.1M198.6 233.9H492.7M29.7 229.7H145.7M178.3 229.6H357.9M400.7 229.7H491.8M27.5 225.4H85.5M128.8 225.2H390.9M425.1 225.4H492.8M27.9 220.5H284.2M346.4 220.8H492.3M29.7 215.8H221.5M255.7 215.9H491.4M29 210.9H232.4M265.7 211H490.7M29 205.7H74.9M137.7 205.7H268.8M303.4 205.7H418.9M451.8 205.7H492.3M27.2 200.4H267.4M318.6 200.7H492.8M29.5 195.1H112M158.3 194.9H264.7M311.8 195.1H383.7M451.1 194.8H490.8M27.2 189.4H100.6M130.9 189.2H228.7M280.1 189.1H382.2M416.7 189.4H490.5M28.6 183.2H113.6M148.9 183.2H221.2M274.5 183.3H350.8M387.9 183.3H491.4M28.4 177.5H210.9M259.5 177.3H491.3M29.3 171H298M345.5 170.9H492.7M28 164.5H147.7M198.6 164.6H312.6M351.1 164.4H490.1M29.2 157.8H140.1M164.9 157.8H338.4M372.9 158H490.3M29.9 151.2H71.4M129.7 151.3H338.8M384.6 151.1H491M28.2 144.2H144.7M196.4 144.4H355.3M415 144.5H491.4M29 137.2H97.3M145.4 137.1H190.6M242.8 137.2H345.4M391.3 137H490.9M28.5 129.8H139.3M197.7 130.1H289.2M337.6 129.8H491.2M27.8 122.6H118.1M172.8 122.6H290.2M339.5 122.3H492.1M27.3 114.6H63M122.6 114.8H260.6M304.7 114.6H402M470 114.8H490.2M27.6 106.8H90.2M123.4 107H343.8M366.2 107H490.1M29.4 98.9H165.2M224.9 98.9H491.4" fill="none" stroke="#241c10" stroke-width="0.32" stroke-opacity="0.55" stroke-linecap="butt"/><path d="M177.5 135.2q1.2 -1.5 2.3 -0.3q1.2 -1.2 2.3 0.3M182.2 134.3q0.9 -1.2 1.9 -0.2q0.9 -1 1.9 0.2M187 133.1q1 -1.3 1.9 -0.3q1 -1 1.9 0.3M193.1 135.7q0.9 -1.2 1.8 -0.2q0.9 -1 1.8 0.2M196.7 133.9q0.9 -1.2 1.7 -0.2q0.9 -0.9 1.7 0.2" fill="none" stroke="#241c10" stroke-width="0.6" stroke-linecap="round" stroke-linejoin="round"/><g transform="translate(0 40)"><path d="M29 186.7L32.6 183.6L36.2 180.3L39.8 178.1L43.4 176.9L47 176.6L50.7 177.3L54.3 177.9L57.9 178.2L61.5 178.3L65.1 177.5L68.7 176.8L72.3 177L75.9 177.7L79.5 180.9L83.1 184.1L86.8 189.6L90.4 195.7L94 201.2L97.6 205.8L101.2 208.7L104.8 211L108.4 213.4L112 215.8L115.6 217.8L119.2 218.9L122.8 219.3L126.5 218.8L130.1 218.2L133.7 217.7L137.3 217.2L140.9 217.1L144.5 217L148.1 216.9L151.7 216.6L155.3 216.7L158.9 216.9L162.5 217.5L166.2 218.1L169.8 218.5L173.4 218.9L177 219L180.6 219L184.2 218.9L187.8 218.5L191.4 218L195 217.4L198.6 216.8L202.3 216.2L205.9 215.6L209.5 215.4L213.1 215.2L216.7 214.8L220.3 214.3L223.9 213.2L227.5 211.9L231.1 211.1L234.7 210.6L238.3 211L242 211.8L245.6 212.8L249.2 213.8L252.8 214.8L256.4 215.7L260 216.9L263.6 218.3L267.2 219.3L270.8 219.6L274.4 219.6L278 219.7L281.7 220.1L285.3 221.4L288.9 222.6L292.5 223.3L296.1 223.7L299.7 223.9L303.3 224L306.9 223.8L310.5 223.4L314.1 222.7L317.8 221.8L321.4 220.9L325 219.8L328.6 218.7L332.2 217.5L335.8 216.9L339.4 217L343 217L346.6 216.5L350.2 215.9L353.8 214.9L357.5 214.1L361.1 213.2L364.7 212.3L368.3 211.1L371.9 210L375.5 208.9L379.1 207.9L382.7 207.2L386.3 206.5L389.9 205.8L393.5 204.9L397.2 204.1L400.8 203.4L404.4 202.8L408 202.4L411.6 202.2L415.2 202.4L418.8 202.8L422.4 203.3L426 204L429.6 204.6L433.3 205.1L436.9 204.7L440.5 204.1L444.1 203.5L447.7 202.7L451.3 201.7L454.9 200.6L458.5 200.9L462.1 202.1L465.7 202.9L469.3 203.3L473 203.1L476.6 202.3L480.2 201L483.8 199.1L487.4 197.3L491 195.7Z" fill="#faf7ef" stroke="#241c10" stroke-width="0.9" stroke-linecap="round" stroke-linejoin="round"/><path d="M489.9 196.2L491 197.2M487.7 197.2L491 200.2M485.5 198.2L491 203.2M483.4 199.3L491 206.2M481.3 200.4L491 209.2M479.1 201.4L491 212.2M476.7 202.3L491 215.2M474 202.9L491 218.2M471 203.2L491 221.2M467.5 203.1L491 224.2M463.4 202.3L491 227.2M458.5 200.9L491 230.2M454.9 200.7L491 233.2M452.3 201.4L488.6 234M449.8 202.1L485.2 234M447.2 202.8L481.9 234M444.6 203.4L478.6 234M441.8 203.9L475.2 234M439 204.4L471.9 234M436.1 204.8L468.6 234M433.1 205.1L465.2 234M429.2 204.5L461.9 234M425.1 203.9L458.6 234M420.9 203.1L455.2 234M417 202.6L451.9 234M413.3 202.3L448.6 234M410 202.3L445.2 234M406.9 202.5L441.9 234M404 202.9L438.6 234M401.1 203.3L435.2 234M398.4 203.8L431.9 234M395.7 204.4L428.6 234M393 205L425.2 234M390.4 205.7L421.9 234M387.7 206.2L418.6 234M385 206.8L415.2 234M382.2 207.3L411.9 234M379.5 207.9L408.6 234M376.9 208.5L405.2 234M374.4 209.2L401.9 234M371.9 210L398.6 234M369.4 210.8L395.2 234M367 211.6L391.9 234M364.5 212.3L388.6 234M361.9 213L385.2 234M359.3 213.6L381.9 234M356.6 214.3L378.6 234M354 214.9L375.2 234M351.4 215.6L371.9 234M348.7 216.2L368.6 234M345.9 216.6L365.2 234M343 217L361.9 234M339.7 217L358.6 234M336.2 216.9L355.2 234M333.4 217.3L351.9 234M330.8 218L348.6 234M328.3 218.8L345.2 234M325.9 219.6L341.9 234M323.4 220.3L338.6 234M320.8 221L335.2 234M318.2 221.7L331.9 234M315.6 222.3L328.6 234M312.9 222.9L325.2 234M310.2 223.5L321.9 234M307.2 223.8L318.6 234M304.1 224L315.2 234M300.7 223.9L311.9 234M297.2 223.7L308.6 234M293.5 223.4L305.2 234M289.4 222.7L301.9 234M284.1 221L298.6 234M279.5 219.8L295.2 234M275.9 219.6L291.9 234M272.6 219.6L288.6 234M269.1 219.5L285.2 234M264.8 218.6L281.9 234M259.4 216.7L278.6 234M254.3 215.2L275.2 234M249.6 213.9L271.9 234M244.7 212.5L268.6 234M240.1 211.3L265.2 234M236.1 210.8L261.9 234M232.9 210.9L258.6 234M230.1 211.4L255.2 234M227.4 212L251.9 234M225 212.8L248.6 234M222.6 213.6L245.2 234M220.1 214.3L241.9 234M217.2 214.8L238.6 234M214.3 215.1L235.2 234M211.2 215.3L231.9 234M208 215.5L228.6 234M205 215.7L225.2 234M202.2 216.2L221.9 234M199.3 216.7L218.6 234M196.5 217.2L215.2 234M193.7 217.6L211.9 234M190.9 218.1L208.6 234M188 218.5L205.2 234M185 218.8L201.9 234M181.9 219L198.6 234M178.6 219L195.2 234M175.2 218.9L191.9 234M171.5 218.7L188.6 234M167.8 218.3L185.2 234M163.8 217.7L181.9 234M159.7 217L178.6 234M156.1 216.7L175.2 234M152.6 216.6L171.9 234M149.4 216.8L168.6 234M146.3 216.9L165.2 234M143.1 217L161.9 234M139.8 217.1L158.6 234M136.6 217.3L155.2 234M133.8 217.7L151.9 234M130.9 218.1L148.6 234M128.1 218.6L145.2 234M125.2 219L141.9 234M122.2 219.3L138.6 234M71.9 177L87.7 191.2M118.1 218.6L135.2 234M68.4 176.9L91.8 197.9M110.8 215L131.9 234M65.7 177.4L128.6 234M63 178L125.2 234M60 178.3L121.9 234M56.5 178.1L118.6 234M52.6 177.6L115.2 234M48.5 176.9L111.9 234M47 178.6L108.6 234M47 181.6L105.2 234M47 184.6L101.9 234M47 187.6L98.6 234M47 190.6L95.2 234M47 193.6L91.9 234M47 196.6L88.6 234M47 199.6L85.2 234M47 202.6L81.9 234M47 205.6L78.6 234M47 208.6L75.2 234M47 211.6L71.9 234M47 214.6L68.6 234M47 217.6L65.2 234M47 220.6L61.9 234M47 223.6L58.6 234M47 226.6L55.2 234M47 229.6L51.9 234M47 232.6L48.6 234" fill="none" stroke="#241c10" stroke-width="0.42" stroke-opacity="0.6" stroke-linecap="butt"/><path d="M245.1 201.1L246.8 204.9M244 202.2L246.8 208.5M242.8 203.4L246.8 212.1M241.7 204.5L246.8 215.7M240.5 205.4L246.8 219.3M239.1 206L246.8 222.9M237.6 206.3L246.8 226.5M235.9 206.1L246.8 230.1M233.9 205.3L246.8 233.7M231.8 204.2L245.3 234M230.1 204.2L243.7 234M228.8 205L242 234M227.5 205.7L240.4 234M226.2 206.3L238.8 234M224.8 206.9L237.1 234M223.4 207.3L235.5 234M221.9 207.8L233.9 234M220.3 207.9L232.2 234M218.5 207.3L230.6 234M216.5 206.6L229 234M214.6 206L227.3 234M212.8 205.6L225.7 234M211 205.4L224 234M209.5 205.6L222.4 234M208 205.9L220.8 234M206.6 206.3L219.1 234M205.2 206.8L217.5 234M203.8 207.4L215.9 234M202.4 208.1L214.2 234M201.1 208.7L212.6 234M199.7 209.3L211 234M198.3 209.8L209.3 234M196.9 210.4L207.7 234M195.6 211L206 234M194.3 211.7L204.4 234M193 212.5L202.8 234M191.7 213.3L201.1 234M190.5 214.1L199.5 234M189.2 214.9L197.9 234M187.8 215.5L196.2 234M186.5 216.2L194.6 234M185.1 216.8L193 234M183.8 217.5L191.3 234M182.4 218.1L189.7 234M181 218.5L188 234M179.5 218.7L186.4 234M177.8 218.7L184.8 234M176.3 218.9L183.1 234M174.9 219.5L181.5 234M173.6 220.3L179.9 234M172.4 221.1L178.2 234M171.1 221.9L176.6 234M169.8 222.6L175 234M168.4 223.2L173.3 234M167.1 223.9L171.7 234M165.7 224.4L170 234M164.2 224.8L168.4 234M162.7 225L166.8 234M161 224.9L165.1 234M159.3 224.7L163.5 234M157.5 224.4L161.9 234M155.5 223.5L160.2 234M153.1 221.8L158.6 234M151.1 221.1L157 234M149.4 221L155.3 234M147.8 221L153.7 234M146 220.7L152 234M143.7 219.3L150.4 234M141.3 217.6L148.8 234M139.1 216.4L147.1 234M137 215.2L145.5 234M134.8 214L143.9 234M132.8 213.2L142.2 234M131.1 213.1L140.6 234M129.7 213.5L139 234M128.3 214.1L137.3 234M127 215L135.7 234M125.8 215.8L134 234M124.4 216.4L132.4 234M123 216.9L130.8 234M121.5 217.2L129.1 234M119.9 217.3L127.5 234M118.4 217.5L125.9 234M116.9 218L124.2 234M115.5 218.4L122.6 234M114.1 218.9L121 234M112.7 219.4L119.3 234M111.2 219.8L117.7 234M109.8 220.2L116 234M108.2 220.4L114.4 234M106.6 220.5L112.8 234M105 220.5L111.1 234M103.2 220.2L109.5 234M101.4 219.9L107.9 234M99.6 219.3L106.2 234M97.6 218.7L104.6 234M95.9 218.4L103 234M94.2 218.3L101.3 234M92.7 218.6L99.7 234M91.1 218.7L98 234M89.5 218.8L96.4 234M87.9 218.8L94.8 234M86.4 219.2L93.1 234M85 219.6L91.5 234M83.5 220.1L89.9 234M82.1 220.5L88.2 234M80.5 220.7L86.6 234M78.5 219.8L85 234M61.4 185.7L64.3 192.1M75.2 216.2L83.3 234M58.4 182.7L67.9 203.7M71.1 210.8L81.7 234M56.7 182.6L80 234M55.3 183.1L78.4 234M53.9 183.7L76.8 234M52.3 183.8L75.1 234M50.6 183.5L73.5 234M48.7 183L71.9 234M47 183L70.2 234M47 186.6L68.6 234M47 190.2L67 234M47 193.8L65.3 234M47 197.4L63.7 234M47 201L62 234M47 204.6L60.4 234M47 208.2L58.8 234M47 211.8L57.1 234M47 215.4L55.5 234M47 219L53.9 234M47 222.6L52.2 234M47 226.2L50.6 234M47 229.8L49 234" fill="none" stroke="#241c10" stroke-width="0.38" stroke-opacity="0.5" stroke-linecap="butt"/><path d="M39.4 219.6l0.8 0.3" fill="none" stroke="#241c10" stroke-width="0.5" stroke-opacity="0.6"/><path d="M424.6 221.7V220.5M423.9 221.7q0.7 -0.3 1.4 0" fill="none" stroke="#241c10" stroke-width="0.9" stroke-linecap="round" stroke-linejoin="round"/><path d="M426.1 219.8Q426.2 218.9 425.3 218.6Q424.6 218.1 423.9 218.7Q422.9 219 423 219.8Q422.9 220.6 423.9 220.9Q424.6 221.4 425.2 220.9Q426.2 220.6 426.1 219.8Z" fill="#faf7ef" stroke="#241c10" stroke-width="0.8" stroke-linecap="round" stroke-linejoin="round"/><path d="M423.9 219.1L424.6 220" fill="none" stroke="#241c10" stroke-width="0.4" stroke-opacity="0.8" stroke-linecap="butt"/><path d="M424.4 220.1q0.6 -0.7 0.4 -1.3M424.7 220.5q0.7 -0.4 0.7 -1" fill="none" stroke="#241c10" stroke-width="0.45" stroke-linecap="round" stroke-linejoin="round"/><path d="M379.9 233.1V231.4M378.8 233.1q1 -0.4 2 0" fill="none" stroke="#241c10" stroke-width="0.9" stroke-linecap="round" stroke-linejoin="round"/><path d="M382 230.4Q382.2 229.1 381 228.6Q379.9 227.9 378.8 228.8Q377.5 229.2 377.6 230.4Q377.4 231.6 378.8 232.1Q379.8 232.8 380.9 232Q382.2 231.5 382 230.4Z" fill="#faf7ef" stroke="#241c10" stroke-width="0.8" stroke-linecap="round" stroke-linejoin="round"/><path d="M379.9 229.6L380.9 231.1" fill="none" stroke="#241c10" stroke-width="0.4" stroke-opacity="0.8" stroke-linecap="butt"/><path d="M379.7 230.8q0.8 -1 0.6 -1.8M380.1 231.4q1 -0.6 1 -1.4" fill="none" stroke="#241c10" stroke-width="0.45" stroke-linecap="round" stroke-linejoin="round"/><path d="M227.8 231.3V229.8M226.9 231.3q0.9 -0.4 1.8 0" fill="none" stroke="#241c10" stroke-width="0.9" stroke-linecap="round" stroke-linejoin="round"/><path d="M229.8 228.9Q230 227.7 228.9 227.3Q228 226.8 227 227.6Q225.7 227.9 225.8 228.9Q225.6 230 226.8 230.4Q227.8 231 228.7 230.3Q230 229.9 229.8 228.9Z" fill="#faf7ef" stroke="#241c10" stroke-width="0.8" stroke-linecap="round" stroke-linejoin="round"/><path d="" fill="none" stroke="#241c10" stroke-width="0.4" stroke-opacity="0.8" stroke-linecap="butt"/><path d="M227.6 229.2q0.7 -0.9 0.5 -1.6M228 229.8q0.9 -0.5 0.9 -1.3" fill="none" stroke="#241c10" stroke-width="0.45" stroke-linecap="round" stroke-linejoin="round"/><path d="M417.7 218.4V217.2M417.1 218.4q0.7 -0.3 1.3 0" fill="none" stroke="#241c10" stroke-width="0.9" stroke-linecap="round" stroke-linejoin="round"/><path d="M419.2 216.6Q419.2 215.9 418.4 215.6Q417.7 215.1 417.1 215.5Q416.2 215.8 416.3 216.6Q416.3 217.3 417.1 217.6Q417.8 218.1 418.4 217.7Q419.3 217.4 419.2 216.6Z" fill="#faf7ef" stroke="#241c10" stroke-width="0.8" stroke-linecap="round" stroke-linejoin="round"/><path d="M417.1 216.2L417.7 217.1" fill="none" stroke="#241c10" stroke-width="0.4" stroke-opacity="0.8" stroke-linecap="butt"/><path d="M417.6 216.9q0.5 -0.7 0.4 -1.2M417.9 217.2q0.7 -0.4 0.7 -0.9" fill="none" stroke="#241c10" stroke-width="0.45" stroke-linecap="round" stroke-linejoin="round"/><path d="M278 233.5V231.8M277 233.5q1 -0.4 2 0" fill="none" stroke="#241c10" stroke-width="0.9" stroke-linecap="round" stroke-linejoin="round"/><path d="M279.9 230.8Q280.2 229.5 279.2 229Q278 228.1 276.8 228.9Q275.5 229.4 275.7 230.8Q275.6 231.9 277 232.3Q278 233 279 232.3Q280.1 231.9 279.9 230.8Z" fill="#faf7ef" stroke="#241c10" stroke-width="0.8" stroke-linecap="round" stroke-linejoin="round"/><path d="M278.9 229.4L279.8 230.7" fill="none" stroke="#241c10" stroke-width="0.4" stroke-opacity="0.8" stroke-linecap="butt"/><path d="M277.8 231.2q0.8 -1 0.6 -1.8M278.2 231.8q1 -0.6 1 -1.4" fill="none" stroke="#241c10" stroke-width="0.45" stroke-linecap="round" stroke-linejoin="round"/><path d="M365 228.8V227.4M364.2 228.8q0.8 -0.3 1.6 0" fill="none" stroke="#241c10" stroke-width="0.9" stroke-linecap="round" stroke-linejoin="round"/><path d="M366.5 226.6Q366.7 225.6 365.9 225.2Q365.1 224.8 364.3 225.5Q363.3 225.8 363.4 226.6Q363.3 227.5 364.3 227.8Q365 228.3 365.8 227.8Q366.6 227.5 366.5 226.6Z" fill="#faf7ef" stroke="#241c10" stroke-width="0.8" stroke-linecap="round" stroke-linejoin="round"/><path d="M364.3 225.5L365 226.5" fill="none" stroke="#241c10" stroke-width="0.4" stroke-opacity="0.8" stroke-linecap="butt"/><path d="M364.9 226.9q0.6 -0.8 0.5 -1.5M365.2 227.4q0.8 -0.5 0.8 -1.1" fill="none" stroke="#241c10" stroke-width="0.45" stroke-linecap="round" stroke-linejoin="round"/><path d="M259.1 229.5V228.1M258.3 229.5q0.8 -0.3 1.6 0" fill="none" stroke="#241c10" stroke-width="0.9" stroke-linecap="round" stroke-linejoin="round"/><path d="M260.6 227.3Q260.7 226.4 259.9 226.1Q259.1 225.5 258.3 226.1Q257.4 226.4 257.5 227.3Q257.4 228.3 258.3 228.6Q259.1 229.3 260 228.7Q260.8 228.3 260.6 227.3Z" fill="#faf7ef" stroke="#241c10" stroke-width="0.8" stroke-linecap="round" stroke-linejoin="round"/><path d="M258.3 226.4L259.1 227.5" fill="none" stroke="#241c10" stroke-width="0.4" stroke-opacity="0.8" stroke-linecap="butt"/><path d="M258.9 227.7q0.6 -0.8 0.5 -1.4M259.2 228.1q0.8 -0.5 0.8 -1.1" fill="none" stroke="#241c10" stroke-width="0.45" stroke-linecap="round" stroke-linejoin="round"/><path d="M329.9 233.3V231.6M328.9 233.3q1 -0.4 2 0" fill="none" stroke="#241c10" stroke-width="0.9" stroke-linecap="round" stroke-linejoin="round"/><path d="M331.9 230.6Q332.2 229.3 331 228.9Q329.9 228.1 328.8 228.8Q327.7 229.3 328 230.6Q327.7 231.8 328.8 232.3Q329.9 233 331 232.3Q332.2 231.8 331.9 230.6Z" fill="#faf7ef" stroke="#241c10" stroke-width="0.8" stroke-linecap="round" stroke-linejoin="round"/><path d="M329.9 229.9L331 231.4" fill="none" stroke="#241c10" stroke-width="0.4" stroke-opacity="0.8" stroke-linecap="butt"/><path d="M329.7 231q0.8 -1 0.6 -1.8M330.1 231.6q1 -0.6 1 -1.4" fill="none" stroke="#241c10" stroke-width="0.45" stroke-linecap="round" stroke-linejoin="round"/><path d="M437.4 234V232.1M436.2 234q1.1 -0.5 2.3 0" fill="none" stroke="#241c10" stroke-width="0.9" stroke-linecap="round" stroke-linejoin="round"/><path d="M439.9 230.9Q440.1 229.6 438.6 229Q437.4 228.3 436.3 229.2Q435 229.7 435.2 230.9Q435 232.1 436.3 232.6Q437.4 233.4 438.5 232.6Q440 232.2 439.9 230.9Z" fill="#faf7ef" stroke="#241c10" stroke-width="0.8" stroke-linecap="round" stroke-linejoin="round"/><path d="M437.4 229.9L438.5 231.5M437.4 231.6L438.2 232.7" fill="none" stroke="#241c10" stroke-width="0.4" stroke-opacity="0.8" stroke-linecap="butt"/><path d="M437.1 231.4q0.9 -1.1 0.7 -2M437.6 232.1q1.1 -0.7 1.1 -1.6" fill="none" stroke="#241c10" stroke-width="0.45" stroke-linecap="round" stroke-linejoin="round"/><path d="M237.9 229.9V228.5M237 229.9q0.9 -0.3 1.7 0" fill="none" stroke="#241c10" stroke-width="0.9" stroke-linecap="round" stroke-linejoin="round"/><path d="M239.8 227.6Q240 226.6 238.8 226.2Q237.8 225.5 236.9 226.1Q235.9 226.5 236.2 227.6Q236 228.7 237 229.1Q237.8 229.6 238.7 228.9Q239.9 228.6 239.8 227.6Z" fill="#faf7ef" stroke="#241c10" stroke-width="0.8" stroke-linecap="round" stroke-linejoin="round"/><path d="M236.9 226.1L237.9 227.4M236.9 227.8L237.8 229" fill="none" stroke="#241c10" stroke-width="0.4" stroke-opacity="0.8" stroke-linecap="butt"/><path d="M237.7 228q0.7 -0.9 0.5 -1.5M238.1 228.5q0.9 -0.5 0.9 -1.2" fill="none" stroke="#241c10" stroke-width="0.45" stroke-linecap="round" stroke-linejoin="round"/><path d="M441.4 215V214M440.8 215q0.6 -0.2 1.2 0" fill="none" stroke="#241c10" stroke-width="0.9" stroke-linecap="round" stroke-linejoin="round"/><path d="M442.7 213.4Q442.7 212.7 442 212.5Q441.4 212.1 440.8 212.4Q440.1 212.7 440.2 213.4Q440.2 214 440.9 214.2Q441.5 214.7 442.1 214.4Q442.8 214.1 442.7 213.4Z" fill="#faf7ef" stroke="#241c10" stroke-width="0.8" stroke-linecap="round" stroke-linejoin="round"/><path d="" fill="none" stroke="#241c10" stroke-width="0.4" stroke-opacity="0.8" stroke-linecap="butt"/><path d="M441.3 213.6q0.5 -0.6 0.4 -1.1M441.5 214q0.6 -0.4 0.6 -0.8" fill="none" stroke="#241c10" stroke-width="0.45" stroke-linecap="round" stroke-linejoin="round"/><path d="M450.3 234V232M449.2 234q1.1 -0.5 2.3 0" fill="none" stroke="#241c10" stroke-width="0.9" stroke-linecap="round" stroke-linejoin="round"/><path d="M452.6 230.9Q452.9 229.5 451.5 229Q450.3 228.2 449.1 229.1Q447.7 229.6 447.9 230.9Q447.8 232.1 449.3 232.5Q450.3 233.2 451.3 232.5Q452.7 232.1 452.6 230.9Z" fill="#faf7ef" stroke="#241c10" stroke-width="0.8" stroke-linecap="round" stroke-linejoin="round"/><path d="M450.3 229.8L451.4 231.3M450.3 231.5L451.1 232.6" fill="none" stroke="#241c10" stroke-width="0.4" stroke-opacity="0.8" stroke-linecap="butt"/><path d="M450.1 231.4q0.9 -1.1 0.7 -2M450.5 232q1.1 -0.7 1.1 -1.6" fill="none" stroke="#241c10" stroke-width="0.45" stroke-linecap="round" stroke-linejoin="round"/><path d="M418.4 218.7V217.6M417.8 218.7q0.7 -0.3 1.3 0" fill="none" stroke="#241c10" stroke-width="0.9" stroke-linecap="round" stroke-linejoin="round"/><path d="M419.7 216.9Q419.8 216.2 419.1 215.9Q418.4 215.4 417.7 215.8Q416.9 216.1 417 216.9Q416.9 217.6 417.8 217.9Q418.4 218.3 419.1 217.9Q419.8 217.6 419.7 216.9Z" fill="#faf7ef" stroke="#241c10" stroke-width="0.8" stroke-linecap="round" stroke-linejoin="round"/><path d="M417.8 216.5L418.4 217.5" fill="none" stroke="#241c10" stroke-width="0.4" stroke-opacity="0.8" stroke-linecap="butt"/><path d="M418.3 217.2q0.5 -0.7 0.4 -1.2M418.6 217.6q0.7 -0.4 0.7 -0.9" fill="none" stroke="#241c10" stroke-width="0.45" stroke-linecap="round" stroke-linejoin="round"/><path d="M334.4 223.5V222.4M333.8 223.5q0.6 -0.2 1.2 0" fill="none" stroke="#241c10" stroke-width="0.9" stroke-linecap="round" stroke-linejoin="round"/><path d="M335.5 221.8Q335.6 221.2 335 220.9Q334.4 220.5 333.8 221Q333 221.2 333 221.8Q332.9 222.5 333.8 222.8Q334.4 223.3 335 222.9Q335.7 222.6 335.5 221.8Z" fill="#faf7ef" stroke="#241c10" stroke-width="0.8" stroke-linecap="round" stroke-linejoin="round"/><path d="" fill="none" stroke="#241c10" stroke-width="0.4" stroke-opacity="0.8" stroke-linecap="butt"/><path d="M334.3 222.1q0.5 -0.6 0.4 -1.1M334.5 222.4q0.6 -0.4 0.6 -0.8" fill="none" stroke="#241c10" stroke-width="0.45" stroke-linecap="round" stroke-linejoin="round"/><path d="M238 227.9V226.6M237.2 227.9q0.8 -0.3 1.6 0" fill="none" stroke="#241c10" stroke-width="0.9" stroke-linecap="round" stroke-linejoin="round"/><path d="M239.6 225.8Q239.7 225 238.7 224.7Q238 224.1 237.2 224.6Q236.2 224.9 236.3 225.8Q236.2 226.7 237.2 227Q238 227.5 238.8 227Q239.7 226.7 239.6 225.8Z" fill="#faf7ef" stroke="#241c10" stroke-width="0.8" stroke-linecap="round" stroke-linejoin="round"/><path d="M237.2 225.1L238 226.1" fill="none" stroke="#241c10" stroke-width="0.4" stroke-opacity="0.8" stroke-linecap="butt"/><path d="M237.8 226.1q0.6 -0.8 0.5 -1.4M238.2 226.6q0.8 -0.5 0.8 -1.1" fill="none" stroke="#241c10" stroke-width="0.45" stroke-linecap="round" stroke-linejoin="round"/><path d="M320.1 233.5V231.8M319.1 233.5q1 -0.4 2 0" fill="none" stroke="#241c10" stroke-width="0.9" stroke-linecap="round" stroke-linejoin="round"/><path d="M322.1 230.8Q322.4 229.5 321.3 229Q320.1 228.2 319 229Q317.6 229.5 317.8 230.8Q317.7 232 319.1 232.4Q320 233 321.1 232.2Q322.2 231.8 322.1 230.8Z" fill="#faf7ef" stroke="#241c10" stroke-width="0.8" stroke-linecap="round" stroke-linejoin="round"/><path d="M320.1 230L321.1 231.4" fill="none" stroke="#241c10" stroke-width="0.4" stroke-opacity="0.8" stroke-linecap="butt"/><path d="M319.9 231.2q0.8 -1 0.6 -1.8M320.3 231.8q1 -0.6 1 -1.4" fill="none" stroke="#241c10" stroke-width="0.45" stroke-linecap="round" stroke-linejoin="round"/><path d="M301.1 231.3V230M300.3 231.3q0.8 -0.3 1.6 0" fill="none" stroke="#241c10" stroke-width="0.9" stroke-linecap="round" stroke-linejoin="round"/><path d="M302.7 229.2Q302.9 228.2 302 227.8Q301.1 227.2 300.2 227.8Q299.3 228.2 299.4 229.2Q299.3 230.1 300.2 230.5Q301 231 301.8 230.4Q302.8 230.1 302.7 229.2Z" fill="#faf7ef" stroke="#241c10" stroke-width="0.8" stroke-linecap="round" stroke-linejoin="round"/><path d="M300.2 227.9L301.1 229.1M300.2 229.6L300.8 230.4" fill="none" stroke="#241c10" stroke-width="0.4" stroke-opacity="0.8" stroke-linecap="butt"/><path d="M300.9 229.5q0.6 -0.8 0.5 -1.4M301.2 230q0.8 -0.5 0.8 -1.1" fill="none" stroke="#241c10" stroke-width="0.45" stroke-linecap="round" stroke-linejoin="round"/><path d="M98.4 221.1V219.9M97.7 221.1q0.7 -0.3 1.3 0" fill="none" stroke="#241c10" stroke-width="0.9" stroke-linecap="round" stroke-linejoin="round"/><path d="M99.8 219.3Q99.8 218.6 99 218.3Q98.3 217.8 97.7 218.2Q96.8 218.5 96.9 219.3Q96.9 219.9 97.8 220.2Q98.5 220.8 99.1 220.4Q99.9 220.1 99.8 219.3Z" fill="#faf7ef" stroke="#241c10" stroke-width="0.8" stroke-linecap="round" stroke-linejoin="round"/><path d="M97.7 218.9L98.4 219.8" fill="none" stroke="#241c10" stroke-width="0.4" stroke-opacity="0.8" stroke-linecap="butt"/><path d="M98.2 219.5q0.5 -0.7 0.4 -1.2M98.5 219.9q0.7 -0.4 0.7 -0.9" fill="none" stroke="#241c10" stroke-width="0.45" stroke-linecap="round" stroke-linejoin="round"/><path d="M232.5 218.3V217.3M231.9 218.3q0.6 -0.2 1.1 0" fill="none" stroke="#241c10" stroke-width="0.9" stroke-linecap="round" stroke-linejoin="round"/><path d="M233.8 216.7Q233.8 216 233.1 215.8Q232.5 215.4 231.9 215.8Q231.3 216 231.4 216.7Q231.3 217.4 231.9 217.7Q232.5 218.1 233.1 217.7Q233.9 217.4 233.8 216.7Z" fill="#faf7ef" stroke="#241c10" stroke-width="0.8" stroke-linecap="round" stroke-linejoin="round"/><path d="M231.9 216.6L232.5 217.5" fill="none" stroke="#241c10" stroke-width="0.4" stroke-opacity="0.8" stroke-linecap="butt"/><path d="M232.4 217q0.5 -0.6 0.3 -1M232.6 217.3q0.6 -0.3 0.6 -0.8" fill="none" stroke="#241c10" stroke-width="0.45" stroke-linecap="round" stroke-linejoin="round"/><path d="M357.3 224.4V223.3M356.6 224.4q0.7 -0.3 1.3 0" fill="none" stroke="#241c10" stroke-width="0.9" stroke-linecap="round" stroke-linejoin="round"/><path d="M358.6 222.6Q358.7 221.9 357.9 221.6Q357.2 221 356.5 221.5Q355.7 221.8 355.8 222.6Q355.8 223.3 356.6 223.6Q357.3 224.1 358 223.7Q358.7 223.4 358.6 222.6Z" fill="#faf7ef" stroke="#241c10" stroke-width="0.8" stroke-linecap="round" stroke-linejoin="round"/><path d="M356.6 222.2L357.3 223.2" fill="none" stroke="#241c10" stroke-width="0.4" stroke-opacity="0.8" stroke-linecap="butt"/><path d="M357.1 222.9q0.5 -0.7 0.4 -1.2M357.4 223.3q0.7 -0.4 0.7 -0.9" fill="none" stroke="#241c10" stroke-width="0.45" stroke-linecap="round" stroke-linejoin="round"/><path d="M98.4 232.6V230.9M97.4 232.6q1 -0.4 2 0" fill="none" stroke="#241c10" stroke-width="0.9" stroke-linecap="round" stroke-linejoin="round"/><path d="M100.3 229.9Q100.5 228.9 99.4 228.5Q98.4 227.8 97.5 228.5Q96.3 228.9 96.4 229.9Q96.3 231 97.5 231.3Q98.5 232.2 99.5 231.6Q100.5 231.1 100.3 229.9Z" fill="#faf7ef" stroke="#241c10" stroke-width="0.8" stroke-linecap="round" stroke-linejoin="round"/><path d="M97.6 228.5L98.4 229.7M97.5 230.1L98.4 231.4" fill="none" stroke="#241c10" stroke-width="0.4" stroke-opacity="0.8" stroke-linecap="butt"/><path d="M98.2 230.3q0.8 -1 0.6 -1.8M98.6 230.9q1 -0.6 1 -1.4" fill="none" stroke="#241c10" stroke-width="0.45" stroke-linecap="round" stroke-linejoin="round"/><path d="M132.8 233.9V232.1M131.7 233.9q1.1 -0.4 2.2 0" fill="none" stroke="#241c10" stroke-width="0.9" stroke-linecap="round" stroke-linejoin="round"/><path d="M134.8 231Q134.9 229.8 133.8 229.4Q132.6 228.5 131.6 229.1Q130.1 229.6 130.3 231Q130.1 232.3 131.6 232.8Q132.8 233.7 134 232.9Q135.1 232.4 134.8 231Z" fill="#faf7ef" stroke="#241c10" stroke-width="0.8" stroke-linecap="round" stroke-linejoin="round"/><path d="M133.1 229.2L133.8 230.3M132.8 230.5L134 232.2" fill="none" stroke="#241c10" stroke-width="0.4" stroke-opacity="0.8" stroke-linecap="butt"/><path d="M132.5 231.4q0.9 -1.1 0.7 -2M133 232.1q1.1 -0.7 1.1 -1.6" fill="none" stroke="#241c10" stroke-width="0.45" stroke-linecap="round" stroke-linejoin="round"/><path d="M127 233.9V232M125.9 233.9q1.1 -0.4 2.2 0" fill="none" stroke="#241c10" stroke-width="0.9" stroke-linecap="round" stroke-linejoin="round"/><path d="M129.1 230.9Q129.3 229.6 128.2 229.1Q127 228.3 125.8 229.1Q124.6 229.6 124.9 230.9Q124.7 232.2 125.8 232.7Q126.9 233.4 128 232.6Q129.2 232.1 129.1 230.9Z" fill="#faf7ef" stroke="#241c10" stroke-width="0.8" stroke-linecap="round" stroke-linejoin="round"/><path d="M127 230L128.1 231.5M127 231.7L127.7 232.7" fill="none" stroke="#241c10" stroke-width="0.4" stroke-opacity="0.8" stroke-linecap="butt"/><path d="M126.7 231.4q0.9 -1.1 0.7 -2M127.2 232q1.1 -0.7 1.1 -1.5" fill="none" stroke="#241c10" stroke-width="0.45" stroke-linecap="round" stroke-linejoin="round"/><path d="M373.3 233.6V231.8M372.3 233.6q1.1 -0.4 2.1 0" fill="none" stroke="#241c10" stroke-width="0.9" stroke-linecap="round" stroke-linejoin="round"/><path d="M375.6 230.7Q375.8 229.5 374.4 229Q373.3 228.2 372.2 229Q370.9 229.5 371.1 230.7Q370.9 231.9 372.2 232.4Q373.2 233 374.3 232.2Q375.7 231.8 375.6 230.7Z" fill="#faf7ef" stroke="#241c10" stroke-width="0.8" stroke-linecap="round" stroke-linejoin="round"/><path d="M373.3 230L374.3 231.4" fill="none" stroke="#241c10" stroke-width="0.4" stroke-opacity="0.8" stroke-linecap="butt"/><path d="M373.1 231.1q0.8 -1.1 0.6 -1.9M373.5 231.8q1.1 -0.6 1.1 -1.5" fill="none" stroke="#241c10" stroke-width="0.45" stroke-linecap="round" stroke-linejoin="round"/><path d="M169.4 223.8V222.8M168.8 223.8q0.6 -0.2 1.2 0" fill="none" stroke="#241c10" stroke-width="0.9" stroke-linecap="round" stroke-linejoin="round"/><path d="M170.5 222.3Q170.7 221.5 170 221.2Q169.4 220.8 168.7 221.2Q168 221.5 168.1 222.3Q168 223 168.7 223.3Q169.3 223.7 170 223.2Q170.6 223 170.5 222.3Z" fill="#faf7ef" stroke="#241c10" stroke-width="0.8" stroke-linecap="round" stroke-linejoin="round"/><path d="M168.7 221.9L169.4 222.8" fill="none" stroke="#241c10" stroke-width="0.4" stroke-opacity="0.8" stroke-linecap="butt"/><path d="M169.3 222.5q0.5 -0.6 0.4 -1.1M169.5 222.8q0.6 -0.4 0.6 -0.8" fill="none" stroke="#241c10" stroke-width="0.45" stroke-linecap="round" stroke-linejoin="round"/><path d="M267.6 228.3V227.1M266.9 228.3q0.7 -0.3 1.4 0" fill="none" stroke="#241c10" stroke-width="0.9" stroke-linecap="round" stroke-linejoin="round"/><path d="M269.1 226.4Q269.2 225.5 268.4 225.2Q267.7 224.8 267 225.3Q266.1 225.6 266.2 226.4Q266.1 227.1 267 227.4Q267.7 227.9 268.4 227.5Q269.3 227.2 269.1 226.4Z" fill="#faf7ef" stroke="#241c10" stroke-width="0.8" stroke-linecap="round" stroke-linejoin="round"/><path d="M267 225.8L267.6 226.8" fill="none" stroke="#241c10" stroke-width="0.4" stroke-opacity="0.8" stroke-linecap="butt"/><path d="M267.5 226.6q0.6 -0.7 0.4 -1.3M267.8 227.1q0.7 -0.4 0.7 -1" fill="none" stroke="#241c10" stroke-width="0.45" stroke-linecap="round" stroke-linejoin="round"/><path d="M29 232L37 232L45 232L53 232L61 232L69 232L77 232L85 232L93 232L101 232L109 232L117 232L125 232L133 232L141 232L149 232L157 232L165 232L173 232L181 232L189 232L197 232L205 232L213 232L221 232L229 232L237 232L245 232L253 232L261 232L269 232L277 232L285 232L293 232L301 232L309 232L317 232L325 232L333 232L341 232L349 232L357 232L365 232L373 232L381 232L389 232L397 232L405 232L413 232L421 232L429 232L437 232L445 232L453 232L461 232L469 232L477 232L485 232" fill="none" stroke="#241c10" stroke-width="1.1" stroke-linecap="round" stroke-linejoin="round"/><path d="M233.3 224V212.7H255.6V224Z" fill="#faf7ef" stroke="#241c10" stroke-width="0.8" stroke-linecap="round" stroke-linejoin="round"/><path d="M255 212.7L255.6 216.5M254.8 212.7L255.6 218M254.5 212.7L255.6 219.5M254.3 212.7L255.6 221M254 212.7L255.6 222.5M253.8 212.7L255.6 224M253.5 212.7L255.4 224M253.3 212.7L255.1 224M253 212.7L254.9 224M252.8 212.7L254.6 224M252.5 212.7L254.4 224M252.3 212.7L254.1 224M252 212.7L253.9 224M251.8 212.7L253.6 224M251.5 212.7L253.4 224M251.3 212.7L253.1 224M251 212.7L252.9 224M250.8 212.7L252.6 224M250.5 212.7L252.4 224M250.3 212.7L252.1 224M250 212.7L251.9 224M249.8 212.7L251.6 224M249.5 212.7L251.4 224M249.3 212.7L251.1 224M249 212.7L250.9 224M248.9 213.8L250.6 224M248.9 215.3L250.4 224M248.9 216.8L250.1 224M248.9 218.3L249.9 224M248.9 219.8L249.6 224" fill="none" stroke="#241c10" stroke-width="0.42" stroke-opacity="0.9" stroke-linecap="butt"/><path d="M232.7 212.7L244.5 207.6L256.2 212.7Z" fill="#faf7ef" stroke="#241c10" stroke-width="0.8" stroke-linecap="round" stroke-linejoin="round"/><path d="M244.5 208.3L245.3 208M244.5 209.7L246.9 208.7M244.5 211.1L248.4 209.4M244.5 212.5L250 210M247.2 212.7L251.6 210.7M250.3 212.7L253.2 211.4M253.3 212.7L254.8 212.1" fill="none" stroke="#241c10" stroke-width="0.4" stroke-opacity="0.85" stroke-linecap="butt"/><rect x="236.3" y="215.9" width="1.4" height="2.4" fill="#241c10"/><rect x="243.8" y="215.9" width="1.4" height="2.4" fill="#241c10"/><rect x="251.2" y="215.9" width="1.4" height="2.4" fill="#241c10"/><path d="M247.6 224V215H267V224Z" fill="#faf7ef" stroke="#241c10" stroke-width="0.8" stroke-linecap="round" stroke-linejoin="round"/><path d="M266.4 215L267 218.8M266.2 215L267 220.3M265.9 215L267 221.8M265.7 215L267 223.3M265.4 215L266.9 224M265.2 215L266.7 224M264.9 215L266.4 224M264.7 215L266.2 224M264.4 215L265.9 224M264.2 215L265.7 224M263.9 215L265.4 224M263.7 215L265.2 224M263.4 215L264.9 224M263.2 215L264.7 224M262.9 215L264.4 224M262.7 215L264.2 224M262.4 215L263.9 224M262.2 215L263.7 224M261.9 215L263.4 224M261.7 215L263.2 224M261.4 215L262.9 224M261.2 215.3L262.7 224M261.2 216.8L262.4 224M261.2 218.3L262.2 224M261.2 219.8L261.9 224" fill="none" stroke="#241c10" stroke-width="0.42" stroke-opacity="0.9" stroke-linecap="butt"/><path d="M247 215L257.3 211L267.6 215Z" fill="#faf7ef" stroke="#241c10" stroke-width="0.8" stroke-linecap="round" stroke-linejoin="round"/><path d="M257.3 211.7L258.2 211.3M257.3 213.1L259.9 212M257.3 214.5L261.7 212.7M259.4 215L263.4 213.4M262.8 215L265.1 214.1M266.2 215L266.9 214.7" fill="none" stroke="#241c10" stroke-width="0.4" stroke-opacity="0.85" stroke-linecap="butt"/><rect x="251.8" y="217.5" width="1.4" height="2.4" fill="#241c10"/><rect x="261.5" y="217.5" width="1.4" height="2.4" fill="#241c10"/><path d="M264.9 224V214.3H280.9V224Z" fill="#faf7ef" stroke="#241c10" stroke-width="0.8" stroke-linecap="round" stroke-linejoin="round"/><path d="M280.3 214.3L280.9 218M280 214.3L280.9 219.5M279.8 214.3L280.9 221M279.5 214.3L280.9 222.5M279.3 214.3L280.9 224M279 214.3L280.6 224M278.8 214.3L280.4 224M278.5 214.3L280.1 224M278.3 214.3L279.9 224M278 214.3L279.6 224M277.8 214.3L279.4 224M277.5 214.3L279.1 224M277.3 214.3L278.9 224M277 214.3L278.6 224M276.8 214.3L278.4 224M276.5 214.3L278.1 224M276.3 214.3L277.9 224M276.1 214.7L277.6 224M276.1 216.2L277.4 224M276.1 217.7L277.1 224M276.1 219.2L276.9 224" fill="none" stroke="#241c10" stroke-width="0.42" stroke-opacity="0.9" stroke-linecap="butt"/><path d="M264.3 214.3L268.4 210.4L277.4 210.4L281.5 214.3Z" fill="#faf7ef" stroke="#241c10" stroke-width="0.8" stroke-linecap="round" stroke-linejoin="round"/><path d="M267.7 211L278.1 211M266.3 212.3L279.4 212.3M265 213.6L280.8 213.6" fill="none" stroke="#241c10" stroke-width="0.35" stroke-opacity="0.8" stroke-linecap="butt"/><path d="M276.9 211.6L277.7 210.7M276.1 213.9L278.4 211.4M277 214.3L279.1 212M278.3 214.3L279.8 212.6M279.5 214.3L280.4 213.3" fill="none" stroke="#241c10" stroke-width="0.4" stroke-opacity="0.85" stroke-linecap="butt"/><rect x="268.2" y="217" width="1.4" height="2.4" fill="#241c10"/><rect x="276.2" y="217" width="1.4" height="2.4" fill="#241c10"/><path d="M278.2 224V211H298.7V224Z" fill="#faf7ef" stroke="#241c10" stroke-width="0.8" stroke-linecap="round" stroke-linejoin="round"/><path d="M298 211L298.7 214.8M297.8 211L298.7 216.3M297.5 211L298.7 217.8M297.3 211L298.7 219.3M297 211L298.7 220.8M296.8 211L298.7 222.3M296.5 211L298.7 223.8M296.3 211L298.5 224M296 211L298.2 224M295.8 211L298 224M295.5 211L297.7 224M295.3 211L297.5 224M295 211L297.2 224M294.8 211L297 224M294.5 211L296.7 224M294.3 211L296.5 224M294 211L296.2 224M293.8 211L296 224M293.5 211L295.7 224M293.3 211L295.5 224M293 211L295.2 224M292.8 211L295 224M292.5 211L294.7 224M292.5 212.4L294.5 224M292.5 213.9L294.2 224M292.5 215.4L294 224M292.5 216.9L293.7 224M292.5 218.4L293.5 224M292.5 219.9L293.2 224" fill="none" stroke="#241c10" stroke-width="0.42" stroke-opacity="0.9" stroke-linecap="butt"/><path d="M277.6 211L282.7 205.8L294.2 205.8L299.3 211Z" fill="#faf7ef" stroke="#241c10" stroke-width="0.8" stroke-linecap="round" stroke-linejoin="round"/><path d="M282.1 206.5L294.8 206.5M280.8 207.8L296.1 207.8M279.5 209.1L297.4 209.1M278.2 210.4L298.6 210.4" fill="none" stroke="#241c10" stroke-width="0.35" stroke-opacity="0.8" stroke-linecap="butt"/><path d="M293.8 207L294.5 206.1M293 209.3L295.1 206.8M292.7 211L295.8 207.5M293.9 211L296.4 208.1M295.1 211L297.1 208.8M296.3 211L297.7 209.4M297.6 211L298.4 210.1" fill="none" stroke="#241c10" stroke-width="0.4" stroke-opacity="0.85" stroke-linecap="butt"/><path d="M290.9 202.4h2.6v6.5" fill="#faf7ef" stroke="#241c10" stroke-width="0.6" stroke-linecap="round" stroke-linejoin="round"/><rect x="282.6" y="214.6" width="1.4" height="2.4" fill="#241c10"/><rect x="292.9" y="214.6" width="1.4" height="2.4" fill="#241c10"/><path d="M285.3 224V221Q286.8 219.5 288.3 221V224Z" fill="#241c10"/><path d="M210.1 232V219.4H237.7V232Z" fill="#faf7ef" stroke="#241c10" stroke-width="1" stroke-linecap="round" stroke-linejoin="round"/><path d="M237.1 219.4L237.7 223.2M236.8 219.4L237.7 224.7M236.6 219.4L237.7 226.2M236.3 219.4L237.7 227.7M236.1 219.4L237.7 229.2M235.8 219.4L237.7 230.7M235.6 219.4L237.7 232M235.3 219.4L237.4 232M235.1 219.4L237.2 232M234.8 219.4L236.9 232M234.6 219.4L236.7 232M234.3 219.4L236.4 232M234.1 219.4L236.2 232M233.8 219.4L235.9 232M233.6 219.4L235.7 232M233.3 219.4L235.4 232M233.1 219.4L235.2 232M232.8 219.4L234.9 232M232.6 219.4L234.7 232M232.3 219.4L234.4 232M232.1 219.4L234.2 232M231.8 219.4L233.9 232M231.6 219.4L233.7 232M231.3 219.4L233.4 232M231.1 219.4L233.2 232M230.8 219.4L232.9 232M230.6 219.4L232.7 232M230.3 219.4L232.4 232M230.1 219.4L232.2 232M229.8 219.4L231.9 232M229.6 219.4L231.7 232M229.4 220L231.4 232M229.4 221.5L231.2 232M229.4 223L230.9 232M229.4 224.5L230.7 232M229.4 226L230.4 232M229.4 227.5L230.2 232" fill="none" stroke="#241c10" stroke-width="0.42" stroke-opacity="0.9" stroke-linecap="butt"/><path d="M209.5 219.4L216.2 214.4L231.6 214.4L238.3 219.4Z" fill="#faf7ef" stroke="#241c10" stroke-width="1" stroke-linecap="round" stroke-linejoin="round"/><path d="M215.3 215.1L232.5 215.1M213.6 216.4L234.2 216.4M211.8 217.7L235.9 217.7M210.1 219L237.7 219" fill="none" stroke="#241c10" stroke-width="0.35" stroke-opacity="0.8" stroke-linecap="butt"/><path d="M231.1 215.6L232.1 214.8M229.9 217.9L232.9 215.4M229.8 219.4L233.8 216.1M231.5 219.4L234.7 216.8M233.2 219.4L235.6 217.4M234.9 219.4L236.5 218.1M236.6 219.4L237.4 218.8" fill="none" stroke="#241c10" stroke-width="0.4" stroke-opacity="0.85" stroke-linecap="butt"/><path d="M227.2 211h2.6v6.4" fill="#faf7ef" stroke="#241c10" stroke-width="0.6" stroke-linecap="round" stroke-linejoin="round"/><rect x="214" y="223" width="1.4" height="2.4" fill="#241c10"/><rect x="223.2" y="223" width="1.4" height="2.4" fill="#241c10"/><rect x="232.4" y="223" width="1.4" height="2.4" fill="#241c10"/><path d="M220.2 232V229Q221.7 227.5 223.2 229V232Z" fill="#241c10"/><path d="M231.6 232V215H255.9V232Z" fill="#faf7ef" stroke="#241c10" stroke-width="1" stroke-linecap="round" stroke-linejoin="round"/><path d="M255.3 215L255.9 218.7M255 215L255.9 220.2M254.8 215L255.9 221.7M254.5 215L255.9 223.2M254.3 215L255.9 224.7M254 215L255.9 226.2M253.8 215L255.9 227.7M253.5 215L255.9 229.2M253.3 215L255.9 230.7M253 215L255.9 232M252.8 215L255.6 232M252.5 215L255.4 232M252.3 215L255.1 232M252 215L254.9 232M251.8 215L254.6 232M251.5 215L254.4 232M251.3 215L254.1 232M251 215L253.9 232M250.8 215L253.6 232M250.5 215L253.4 232M250.3 215L253.1 232M250 215L252.9 232M249.8 215L252.6 232M249.5 215L252.4 232M249.3 215L252.1 232M249 215L251.9 232M248.8 215L251.6 232M248.6 215.5L251.4 232M248.6 217L251.1 232M248.6 218.5L250.9 232M248.6 220L250.6 232M248.6 221.5L250.4 232M248.6 223L250.1 232M248.6 224.5L249.9 232M248.6 226L249.6 232M248.6 227.5L249.4 232" fill="none" stroke="#241c10" stroke-width="0.42" stroke-opacity="0.9" stroke-linecap="butt"/><path d="M231 215L243.8 207.3L256.5 215Z" fill="#faf7ef" stroke="#241c10" stroke-width="1" stroke-linecap="round" stroke-linejoin="round"/><path d="M243.8 209.4L245.5 208.3M243.8 210.8L246.6 209M243.8 212.2L247.8 209.7M243.8 213.6L248.9 210.4M243.8 215L250 211.1M246.1 215L251.2 211.8M248.3 215L252.3 212.4M250.5 215L253.4 213.1M252.7 215L254.6 213.8M254.9 215L255.7 214.5" fill="none" stroke="#241c10" stroke-width="0.4" stroke-opacity="0.85" stroke-linecap="butt"/><rect x="235" y="219.7" width="1.4" height="2.4" fill="#241c10"/><rect x="243.1" y="219.7" width="1.4" height="2.4" fill="#241c10"/><rect x="251.2" y="219.7" width="1.4" height="2.4" fill="#241c10"/><path d="M240.3 232V229Q241.8 227.5 243.3 229V232Z" fill="#241c10"/><path d="M248.8 232V217.6H266.8V232Z" fill="#faf7ef" stroke="#241c10" stroke-width="1" stroke-linecap="round" stroke-linejoin="round"/><path d="M266.2 217.6L266.8 221.3M265.9 217.6L266.8 222.8M265.7 217.6L266.8 224.3M265.4 217.6L266.8 225.8M265.2 217.6L266.8 227.3M264.9 217.6L266.8 228.8M264.7 217.6L266.8 230.3M264.4 217.6L266.8 231.8M264.2 217.6L266.6 232M263.9 217.6L266.3 232M263.7 217.6L266.1 232M263.4 217.6L265.8 232M263.2 217.6L265.6 232M262.9 217.6L265.3 232M262.7 217.6L265.1 232M262.4 217.6L264.8 232M262.2 217.6L264.6 232M261.9 217.6L264.3 232M261.7 217.6L264.1 232M261.4 217.6L263.8 232M261.4 218.9L263.6 232M261.4 220.4L263.3 232M261.4 221.9L263.1 232M261.4 223.4L262.8 232M261.4 224.9L262.6 232M261.4 226.4L262.3 232M261.4 227.9L262.1 232" fill="none" stroke="#241c10" stroke-width="0.42" stroke-opacity="0.9" stroke-linecap="butt"/><path d="M248.2 217.6L252.7 211.8L262.8 211.8L267.4 217.6Z" fill="#faf7ef" stroke="#241c10" stroke-width="1" stroke-linecap="round" stroke-linejoin="round"/><path d="M252.2 212.5L263.3 212.5M251.2 213.8L264.4 213.8M250.2 215.1L265.4 215.1M249.1 216.4L266.4 216.4" fill="none" stroke="#241c10" stroke-width="0.35" stroke-opacity="0.8" stroke-linecap="butt"/><path d="M261.9 215.3L263.6 212.8M261.3 217.6L264.1 213.4M262.2 217.6L264.6 214.1M263.2 217.6L265.1 214.7M264.2 217.6L265.7 215.4M265.1 217.6L266.2 216M266.1 217.6L266.7 216.7" fill="none" stroke="#241c10" stroke-width="0.4" stroke-opacity="0.85" stroke-linecap="butt"/><path d="M259.9 208.4h2.6v6.9" fill="#faf7ef" stroke="#241c10" stroke-width="0.6" stroke-linecap="round" stroke-linejoin="round"/><rect x="252.6" y="221.6" width="1.4" height="2.4" fill="#241c10"/><rect x="261.6" y="221.6" width="1.4" height="2.4" fill="#241c10"/><path d="M254.8 232V229Q256.3 227.5 257.8 229V232Z" fill="#241c10"/><path d="M260 232V217.6H285.3V232Z" fill="#faf7ef" stroke="#241c10" stroke-width="1" stroke-linecap="round" stroke-linejoin="round"/><path d="M284.7 217.6L285.3 221.4M284.4 217.6L285.3 222.9M284.2 217.6L285.3 224.4M283.9 217.6L285.3 225.9M283.7 217.6L285.3 227.4M283.4 217.6L285.3 228.9M283.2 217.6L285.3 230.4M282.9 217.6L285.3 231.9M282.7 217.6L285.1 232M282.4 217.6L284.8 232M282.2 217.6L284.6 232M281.9 217.6L284.3 232M281.7 217.6L284.1 232M281.4 217.6L283.8 232M281.2 217.6L283.6 232M280.9 217.6L283.3 232M280.7 217.6L283.1 232M280.4 217.6L282.8 232M280.2 217.6L282.6 232M279.9 217.6L282.3 232M279.7 217.6L282.1 232M279.4 217.6L281.8 232M279.2 217.6L281.6 232M278.9 217.6L281.3 232M278.7 217.6L281.1 232M278.4 217.6L280.8 232M278.2 217.6L280.6 232M277.9 217.6L280.3 232M277.7 217.9L280.1 232M277.7 219.4L279.8 232M277.7 220.9L279.6 232M277.7 222.4L279.3 232M277.7 223.9L279.1 232M277.7 225.4L278.8 232M277.7 226.9L278.6 232" fill="none" stroke="#241c10" stroke-width="0.42" stroke-opacity="0.9" stroke-linecap="butt"/><path d="M259.4 217.6L265.6 211.9L279.7 211.9L285.9 217.6Z" fill="#faf7ef" stroke="#241c10" stroke-width="1" stroke-linecap="round" stroke-linejoin="round"/><path d="M264.9 212.5L280.4 212.5M263.5 213.8L281.8 213.8M262.1 215.1L283.2 215.1M260.7 216.4L284.6 216.4" fill="none" stroke="#241c10" stroke-width="0.35" stroke-opacity="0.8" stroke-linecap="butt"/><path d="M279.3 213L280.1 212.2M278.4 215.4L280.8 212.9M277.6 217.6L281.5 213.5M278.9 217.6L282.2 214.2M280.3 217.6L282.9 214.9M281.6 217.6L283.7 215.5M283 217.6L284.4 216.2M284.3 217.6L285.1 216.9" fill="none" stroke="#241c10" stroke-width="0.4" stroke-opacity="0.85" stroke-linecap="butt"/><path d="M275.7 208.5h2.6v6.8" fill="#faf7ef" stroke="#241c10" stroke-width="0.6" stroke-linecap="round" stroke-linejoin="round"/><rect x="263.6" y="221.7" width="1.4" height="2.4" fill="#241c10"/><rect x="272" y="221.7" width="1.4" height="2.4" fill="#241c10"/><rect x="280.4" y="221.7" width="1.4" height="2.4" fill="#241c10"/><path d="M269.2 232V229Q270.7 227.5 272.2 229V232Z" fill="#241c10"/><path d="M280.2 232V218H300.9V232Z" fill="#faf7ef" stroke="#241c10" stroke-width="1" stroke-linecap="round" stroke-linejoin="round"/><path d="M300.2 218L300.9 221.7M300 218L300.9 223.2M299.7 218L300.9 224.7M299.5 218L300.9 226.2M299.2 218L300.9 227.7M299 218L300.9 229.2M298.7 218L300.9 230.7M298.5 218L300.8 232M298.2 218L300.6 232M298 218L300.3 232M297.7 218L300.1 232M297.5 218L299.8 232M297.2 218L299.6 232M297 218L299.3 232M296.7 218L299.1 232M296.5 218L298.8 232M296.2 218L298.6 232M296 218L298.3 232M295.7 218L298.1 232M295.5 218L297.8 232M295.2 218L297.6 232M295 218L297.3 232M294.7 218L297.1 232M294.7 219.1L296.8 232M294.7 220.6L296.6 232M294.7 222.1L296.3 232M294.7 223.6L296.1 232M294.7 225.1L295.8 232M294.7 226.6L295.6 232M294.7 228.1L295.3 232" fill="none" stroke="#241c10" stroke-width="0.42" stroke-opacity="0.9" stroke-linecap="butt"/><path d="M279.6 218L284.7 212.4L296.3 212.4L301.5 218Z" fill="#faf7ef" stroke="#241c10" stroke-width="1" stroke-linecap="round" stroke-linejoin="round"/><path d="M284.2 213L296.9 213M283 214.3L298.1 214.3M281.8 215.6L299.3 215.6M280.6 216.9L300.5 216.9" fill="none" stroke="#241c10" stroke-width="0.35" stroke-opacity="0.8" stroke-linecap="butt"/><path d="M295.9 213.6L296.6 212.7M295.2 215.9L297.2 213.4M294.6 218L297.8 214M295.7 218L298.4 214.7M296.9 218L299 215.3M298 218L299.6 216M299.1 218L300.2 216.7" fill="none" stroke="#241c10" stroke-width="0.4" stroke-opacity="0.85" stroke-linecap="butt"/><path d="M293 209h2.6v6.8" fill="#faf7ef" stroke="#241c10" stroke-width="0.6" stroke-linecap="round" stroke-linejoin="round"/><rect x="284.7" y="221.9" width="1.4" height="2.4" fill="#241c10"/><rect x="295" y="221.9" width="1.4" height="2.4" fill="#241c10"/><path d="M287.4 232V229Q288.9 227.5 290.4 229V232Z" fill="#241c10"/><path d="M294.2 232V218.3H309.9V232Z" fill="#faf7ef" stroke="#241c10" stroke-width="1" stroke-linecap="round" stroke-linejoin="round"/><path d="M309.3 218.3L309.9 222M309 218.3L309.9 223.5M308.8 218.3L309.9 225M308.5 218.3L309.9 226.5M308.3 218.3L309.9 228M308 218.3L309.9 229.5M307.8 218.3L309.9 231M307.5 218.3L309.8 232M307.3 218.3L309.6 232M307 218.3L309.3 232M306.8 218.3L309.1 232M306.5 218.3L308.8 232M306.3 218.3L308.6 232M306 218.3L308.3 232M305.8 218.3L308.1 232M305.5 218.3L307.8 232M305.3 218.3L307.6 232M305.2 219.3L307.3 232M305.2 220.8L307.1 232M305.2 222.3L306.8 232M305.2 223.8L306.6 232M305.2 225.3L306.3 232M305.2 226.8L306.1 232M305.2 228.3L305.8 232" fill="none" stroke="#241c10" stroke-width="0.42" stroke-opacity="0.9" stroke-linecap="butt"/><path d="M293.6 218.3L302.1 212.1L310.5 218.3Z" fill="#faf7ef" stroke="#241c10" stroke-width="1" stroke-linecap="round" stroke-linejoin="round"/><path d="M302.1 214.2L303.5 213.1M302.1 215.6L304.4 213.8M302.1 217L305.3 214.4M302.2 218.3L306.2 215.1M304 218.3L307.1 215.8M305.8 218.3L308.1 216.4M307.5 218.3L309 217.1" fill="none" stroke="#241c10" stroke-width="0.4" stroke-opacity="0.85" stroke-linecap="butt"/><rect x="297.5" y="222.1" width="1.4" height="2.4" fill="#241c10"/><rect x="305.3" y="222.1" width="1.4" height="2.4" fill="#241c10"/><path d="M299.3 232V229Q300.8 227.5 302.3 229V232Z" fill="#241c10"/><path d="M297.4 232V202.8H308.9V232Z" fill="#faf7ef" stroke="#241c10" stroke-width="1" stroke-linecap="round" stroke-linejoin="round"/><path d="M298.2 206H308.1M298.2 209.2H308.1M298.2 212.4H308.1M298.2 215.6H308.1M298.2 218.8H308.1M298.2 222H308.1M298.2 225.2H308.1M298.2 228.4H308.1" fill="none" stroke="#241c10" stroke-width="0.3" stroke-opacity="0.55"/><path d="M308.3 202.8L308.9 206.6M308 202.8L308.9 208.1M307.8 202.8L308.9 209.6M307.5 202.8L308.9 211.1M307.3 202.8L308.9 212.6M307 202.8L308.9 214.1M306.8 202.8L308.9 215.6M306.5 202.8L308.9 217.1M306.3 202.8L308.9 218.6M306 202.8L308.9 220.1M305.8 202.8L308.9 221.6M305.5 202.8L308.9 223.1M305.5 203.8L308.9 224.6M305.5 205.3L308.9 226.1M305.5 206.8L308.9 227.6M305.5 208.3L308.9 229.1M305.5 209.8L308.9 230.6M305.5 211.3L308.9 232M305.5 212.8L308.6 232M305.5 214.3L308.4 232M305.5 215.8L308.1 232M305.5 217.3L307.9 232M305.5 218.8L307.6 232M305.5 220.3L307.4 232M305.5 221.8L307.1 232M305.5 223.3L306.9 232M305.5 224.8L306.6 232M305.5 226.3L306.4 232M305.5 227.8L306.1 232" fill="none" stroke="#241c10" stroke-width="0.42" stroke-opacity="0.9" stroke-linecap="butt"/><path d="M296.8 202.8L303.1 186.8L309.5 202.8Z" fill="#faf7ef" stroke="#241c10" stroke-width="1" stroke-linecap="round" stroke-linejoin="round"/><path d="M303.1 190L303.8 188.4M303.1 191.3L304 189.1M303.1 192.6L304.3 189.7M303.1 193.9L304.6 190.4M303.1 195.2L304.8 191M303.1 196.5L305.1 191.7M303.1 197.8L305.3 192.3M303.1 199.1L305.6 193M303.1 200.4L305.9 193.6M303.1 201.7L306.1 194.3M303.2 202.8L306.4 194.9M303.7 202.8L306.6 195.6M304.3 202.8L306.9 196.2M304.8 202.8L307.1 196.9M305.3 202.8L307.4 197.5M305.8 202.8L307.7 198.2M306.3 202.8L307.9 198.8M306.8 202.8L308.2 199.5M307.4 202.8L308.4 200.1M307.9 202.8L308.7 200.8" fill="none" stroke="#241c10" stroke-width="0.4" stroke-opacity="0.85" stroke-linecap="butt"/><path d="M303.1 185.8V182.2M301.3 183.6H304.9" fill="none" stroke="#241c10" stroke-width="0.8" stroke-linecap="round" stroke-linejoin="round"/><path d="M301.7 205.8v3.4q1.4 -1.2 2.8 0v-3.4Z" fill="#241c10"/><rect x="302.5" y="211.6" width="1.2" height="3" fill="#241c10"/></g><path d="M28.6 279.2H57.9M63.6 279.2H104.2M111.1 279.2H158.4M163.7 279.2H198.8M203.4 279.2H241.4M245.1 279.2H296.9M299 279.2H337.6M340.7 279.2H382.1M384.3 279.2H430.4M435.7 279.2H454.5M459.2 279.2H492.4M27.6 281.8H74.1M77 281.8H123.3M126.5 281.8H151.9M156.8 281.8H182.8M185.4 281.8H235.3M237.9 281.8H283.7M285.9 281.8H325.6M331.1 281.8H360.6M364.6 281.8H391.1M393.8 281.8H438.1M444.4 281.8H470.3M473.9 281.8H497M23.5 284.3H45M49.8 284.3H88.5M92.1 284.3H125.8M131.4 284.3H162.6M168 284.3H196.5M199.2 284.3H233.4M237.7 284.3H272.9M276.2 284.3H316.1M321.8 284.3H345.5M351.5 284.3H402.6M405.6 284.3H442.4M445.4 284.3H479.9M481.9 284.3H497M25.4 286.8H58M64.2 286.8H115.3M121.5 286.8H160.8M165.6 286.8H188M192.1 286.8H214.5M217.8 286.8H236.8M241.1 286.8H259.6M263 286.8H295.3M298.9 286.8H347.3M352.6 286.8H400.4M405.7 286.8H445.9M449 286.8H484.9M492.2 286.8H497M26.2 289.2H60.1M65.3 289.2H115.3M117.9 289.2H146.4M151.5 289.2H203.5M209.9 289.2H234.3M239.4 289.2H275.4M280.4 289.2H302.1M309.5 289.2H357.4M363.6 289.2H395.5M403.3 289.2H444.2M448.1 289.2H487.4M491.1 289.2H497M24.1 291.6H54.6M59.8 291.6H77.8M83.9 291.6H101.3M105.3 291.6H159.2M164.9 291.6H187.3M190.4 291.6H221.6M224.1 291.6H241.9M246 291.6H277.8M284.1 291.6H325.4M329 291.6H377.9M380.7 291.6H416.8M422.4 291.6H469.2M471.5 291.6H497M25.6 293.9H67.1M74.4 293.9H94.7M99.2 293.9H125.8M131.7 293.9H157.2M161.7 293.9H204M210.6 293.9H247.1M251.1 293.9H282.6M285.1 293.9H328.8M336.3 293.9H373.6M378.7 293.9H402.3M406.7 293.9H441.1M447.8 293.9H492M24.2 296.1H59.4M65.8 296.1H116.9M124.6 296.1H175.1M178.7 296.1H214.6M217.9 296.1H262.7M269.1 296.1H311.6M317.6 296.1H351.6M358.7 296.1H383M387.6 296.1H421.7M427.6 296.1H478.1M485.3 296.1H497M27.1 298.3H74.2M76.4 298.3H129.8M132.5 298.3H175.7M179.4 298.3H196.2M203.6 298.3H252M258 298.3H301.1M305.5 298.3H321.6M326.6 298.3H378.4M383.9 298.3H436.9M444 298.3H469.9M477.7 298.3H497M26 300.4H70.1M72.6 300.4H104.9M109.7 300.4H137M144.3 300.4H185M190 300.4H216M222.9 300.4H245.8M252.8 300.4H281.5M285.1 300.4H320.5M328.5 300.4H381.1M384.9 300.4H402.3M409 300.4H451.6M457.6 300.4H497M24.2 302.5H77.2M80.9 302.5H97.7M102.9 302.5H151.9M158 302.5H206.3M211.2 302.5H262.4M268.8 302.5H302.4M305.6 302.5H332.7M338.7 302.5H367.5M373.2 302.5H423.5M431.5 302.5H450.1M457.2 302.5H482.2M490 302.5H497M26.2 304.5H76.2M80.2 304.5H116.9M124 304.5H160.9M166.7 304.5H181.8M187.8 304.5H222.8M228.3 304.5H278.4M284.3 304.5H330.2M333.4 304.5H381.1M386.3 304.5H414.5M417.6 304.5H456M458.8 304.5H483.4M486.9 304.5H497M23.7 306.4H76.9M79.4 306.4H112.1M118.1 306.4H159.7M165.9 306.4H212.6M217.3 306.4H240.6M245.1 306.4H273.2M275.3 306.4H318.8M321.3 306.4H346.4M353.6 306.4H403.1M406.6 306.4H439.5M447.2 306.4H489.6M495.2 306.4H497M24.3 308.3H44.9M47.5 308.3H91M94 308.3H130.9M138.7 308.3H174.9M179.1 308.3H204.4M209.1 308.3H244.5M251.4 308.3H277.3M280.9 308.3H308.1M313.8 308.3H332.1M339.7 308.3H356.1M361.4 308.3H380M384.7 308.3H433.1M439.9 308.3H474.5M479.5 308.3H497M26.3 310.1H76.2M82.3 310.1H100.7M103 310.1H150.6M158.1 310.1H184.6M189 310.1H216.8M224.3 310.1H244.5M248 310.1H266.9M270.7 310.1H303.3M308.6 310.1H348.1M353.1 310.1H388.8M391.2 310.1H430.7M437.1 310.1H467.9M474 310.1H497M25.9 311.9H40.9M43.6 311.9H88.2M94.1 311.9H118.9M124.5 311.9H175.7M181.2 311.9H208.2M213.3 311.9H260.5M262.7 311.9H289.9M296.3 311.9H324.4M328.9 311.9H368.6M375.9 311.9H395.6M402.2 311.9H419.8M422.9 311.9H470.9M477.9 311.9H497M25.8 313.6H79.4M84.2 313.6H123.2M128.3 313.6H168.4M175.6 313.6H215.9M219.6 313.6H251.2M256.3 313.6H303.8M308.5 313.6H358M365.1 313.6H390.8M396 313.6H432.4M435.1 313.6H463.2M467.7 313.6H486.8M493.5 313.6H497M28.8 315.2H63.7M69.9 315.2H88.9M92.7 315.2H128.4M136 315.2H187.3M192.6 315.2H233.3M238.7 315.2H255.7M260.5 315.2H288M295.2 315.2H341.9M345.5 315.2H383.6M388.6 315.2H431.8M436.2 315.2H476.7M481.6 315.2H497M24.5 316.8H52.8M58.2 316.8H77.3M84.4 316.8H104M107.5 316.8H123.2M129.4 316.8H166.6M173 316.8H226.9M229.1 316.8H267M271.6 316.8H290.4M295.2 316.8H317.5M321.8 316.8H367.9M375.5 316.8H428.1M435.7 316.8H450.2M455.1 316.8H497M23.6 318.3H49.6M52.1 318.3H73.3M76 318.3H111.7M115 318.3H158M165.2 318.3H188.3M192.1 318.3H223.6M231.4 318.3H251.1M258.1 318.3H286.2M293.6 318.3H338.8M344.2 318.3H364.5M369.7 318.3H388.3M390.8 318.3H433.5M437.6 318.3H475.2M483.2 318.3H497M23.8 319.8H74.5M79.8 319.8H114.6M117.7 319.8H138.1M141 319.8H188.7M193.1 319.8H224.9M231.2 319.8H273.4M278.2 319.8H324.1M330.6 319.8H351.2M353.7 319.8H396.1M400.1 319.8H449.7M454.9 319.8H497M26.1 321.3H58.7M63.9 321.3H79.3M87 321.3H117.3M120.7 321.3H138.2M140.5 321.3H166.2M172.3 321.3H190.2M197.3 321.3H246.1M252 321.3H287M293 321.3H322.8M325.9 321.3H347.9M351.8 321.3H384.6M391.8 321.3H412.4M419.7 321.3H444.9M448.4 321.3H473M477.8 321.3H493.1M26.7 322.8H46.3M51.9 322.8H85.1M89.7 322.8H114.8M122.2 322.8H172.8M180.3 322.8H204.2M208.9 322.8H245.9M250 322.8H265.8M273.1 322.8H312.5M315.2 322.8H340.6M344.2 322.8H372.2M376.7 322.8H402.3M407.2 322.8H447.9M450 322.8H474.8M478.2 322.8H497M27.7 324.3H74.5M82.2 324.3H99.8M107.3 324.3H136.6M144.5 324.3H182.5M186.2 324.3H228.1M233 324.3H261.3M264.9 324.3H309.2M316.4 324.3H347M353.2 324.3H392.7M398.7 324.3H422.2M425 324.3H452.6M456.2 324.3H473.3M480.5 324.3H497M25.8 325.8H56M59.5 325.8H86.8M94.6 325.8H113.7M119.4 325.8H168.9M176.5 325.8H198.4M202.5 325.8H250.4M252.9 325.8H295M298.8 325.8H334M341.9 325.8H357.2M359.9 325.8H385.4M391.9 325.8H445.9M453.7 325.8H468.9M471.3 325.8H497M27.1 327.3H70.6M76.3 327.3H101.2M106.8 327.3H147.1M150.8 327.3H185.4M189.3 327.3H221.8M228.6 327.3H267.5M275.5 327.3H305.2M311.3 327.3H329.2M335.8 327.3H361.1M364.3 327.3H388.6M395.6 327.3H426.5M431.6 327.3H478.8M483.5 327.3H497M24 328.8H71.3M77.5 328.8H128M132 328.8H146.4M150.5 328.8H173.1M180.1 328.8H233.4M236.8 328.8H261.5M267.9 328.8H298.5M305.4 328.8H344.6M350.7 328.8H386.6M390.5 328.8H426.4M430.8 328.8H484.5M489.5 328.8H497M26.4 330.3H52.8M57.3 330.3H84.3M89.7 330.3H120.5M124.7 330.3H174.6M177.7 330.3H227.7M230.8 330.3H278.7M282.5 330.3H312.9M317.4 330.3H343.8M350.2 330.3H372.7M379.7 330.3H431.4M433.8 330.3H467.5M470.4 330.3H493.7M496.1 330.3H497M24.9 331.8H48.5M56.2 331.8H100.6M106.6 331.8H158.1M165.8 331.8H203.2M210.7 331.8H234.5M241.8 331.8H289.7M295.7 331.8H344.7M347.1 331.8H363.2M366.6 331.8H417.1M421.3 331.8H446.2M453.9 331.8H471.4M478.5 331.8H497M24.7 333.3H73.7M81.4 333.3H114.4M119.3 333.3H134.5M142.2 333.3H189.4M194.6 333.3H216.1M224 333.3H251.3M256 333.3H287.3M294 333.3H324.2M326.8 333.3H374.3M377 333.3H395.3M399.1 333.3H437.9M441.5 333.3H465.9M472.3 333.3H497M27.4 334.8H56.8M61.7 334.8H109.8M113.2 334.8H137.4M141.5 334.8H160.8M165.9 334.8H213.1M217.2 334.8H235M238.7 334.8H274.6M279.2 334.8H302.9M309.2 334.8H356M364 334.8H378.7M381.4 334.8H396.5M400.4 334.8H451.7M454.8 334.8H474.3M478.2 334.8H497M27 336.3H45.2M51 336.3H93.4M95.5 336.3H129.9M136.1 336.3H178.9M186.7 336.3H205M209.7 336.3H260.3M263.2 336.3H287.3M293.6 336.3H318.6M321.7 336.3H346.5M354.2 336.3H371M378.7 336.3H426.3M429.9 336.3H464.9M471 336.3H497M27.6 337.8H71.5M75.4 337.8H94.9M98.8 337.8H134.7M142.5 337.8H164.6M169.7 337.8H186.2M190.4 337.8H210.6M212.7 337.8H231.3M235.8 337.8H271.3M274.8 337.8H319.6M323 337.8H362.3M368.9 337.8H417.1M420.6 337.8H473.7M481.2 337.8H497M23.4 339.3H72.9M76.6 339.3H122.7M127.4 339.3H181.2M183.5 339.3H229M231.9 339.3H253.9M257.7 339.3H310.4M314.1 339.3H360.3M365.9 339.3H380.8M384 339.3H400.6M405.2 339.3H458.3M461.6 339.3H497M25.7 340.8H73.8M77.1 340.8H103.7M105.7 340.8H121.1M123.7 340.8H150.8M157.7 340.8H184.3M189.3 340.8H239.5M242.9 340.8H292.6M297.3 340.8H341.2M348.3 340.8H380.7M383.6 340.8H413.2M416.2 340.8H456.3M462.2 340.8H479.8M482.7 340.8H497M23.6 342.3H76.7M84.5 342.3H116.8M124.1 342.3H145.2M149.6 342.3H186.6M192.7 342.3H241.9M245.9 342.3H270M274.1 342.3H322.4M325.3 342.3H373.1M376.8 342.3H423.2M425.2 342.3H445.7M452.5 342.3H485.4M492.1 342.3H497M24.5 343.8H58.2M63.9 343.8H104.9M108.5 343.8H147.8M150.1 343.8H173.8M176.1 343.8H225.8M230.2 343.8H256.3M259.8 343.8H301.9M306.8 343.8H345.8M353.3 343.8H378.4M382 343.8H416.9M423.5 343.8H438.2M444.9 343.8H473.6M480.5 343.8H497M23.9 345.3H48.6M53.1 345.3H75M78.5 345.3H95.7M99.7 345.3H142.8M146.8 345.3H189.9M194 345.3H215.8M221.6 345.3H273M278.6 345.3H320.3M326.5 345.3H363.9M367.7 345.3H416.1M422.1 345.3H454.8M458.7 345.3H473.4M478.6 345.3H497" fill="none" stroke="#241c10" stroke-width="0.38" stroke-opacity="0.72" stroke-linecap="butt"/><path d="M23 278H497" fill="none" stroke="#241c10" stroke-width="1" stroke-linecap="round" stroke-linejoin="round"/><g transform="translate(0 40)"><g transform="rotate(-7 200 236)"><path d="M189 236q11 5.5 22 0l-2.5 -3h-17Z" fill="#faf7ef" stroke="#241c10" stroke-width="1" stroke-linecap="round" stroke-linejoin="round"/><path d="M190.4 234.2L209.6 234.2M191.2 235.5L208.8 235.5M192 236.8L208 236.8M192.8 238.1L207.2 238.1" fill="none" stroke="#241c10" stroke-width="0.35" stroke-opacity="1" stroke-linecap="butt"/></g><g transform="rotate(5 294 236)"><path d="M283 236q11 5.5 22 0l-2.5 -3h-17Z" fill="#faf7ef" stroke="#241c10" stroke-width="1" stroke-linecap="round" stroke-linejoin="round"/><path d="M284.4 234.2L303.6 234.2M285.2 235.5L302.8 235.5M286 236.8L302 236.8M286.8 238.1L301.2 238.1" fill="none" stroke="#241c10" stroke-width="0.35" stroke-opacity="1" stroke-linecap="butt"/></g><path d="M340 237L404 244" fill="none" stroke="#241c10" stroke-width="1.2" stroke-linecap="round" stroke-linejoin="round"/><path d="M350 238.5v6M366 240.1v6M382 241.7v6M398 243.3v6" fill="none" stroke="#241c10" stroke-width="0.9" stroke-linecap="round" stroke-linejoin="round"/><path d="M138 222h16M140 222v12M146 222v12M152 222v12M138 227h16M138 231.4h16" fill="none" stroke="#241c10" stroke-width="0.5" stroke-opacity="0.85"/><g opacity="0.85"><path d="M79.4 262q3.9 -7.1 7.7 0" fill="#faf7ef" stroke="#241c10" stroke-width="1.1" stroke-linecap="round" stroke-linejoin="round"/><path d="M89.3 262q3.9 -8.8 7.7 0" fill="#faf7ef" stroke="#241c10" stroke-width="1.1" stroke-linecap="round" stroke-linejoin="round"/><path d="M99.2 262q1.1 -6.6 4.4 -7.1q3.9 -0.8 3.9 2.2q0 1.9 -2.7 1.4l1.1 1.3" fill="#faf7ef" stroke="#241c10" stroke-width="1.1" stroke-linecap="round" stroke-linejoin="round"/><circle cx="105" cy="256.3" r="0.8" fill="#241c10"/><path d="M77 265h5.6m3.5 0h7m2.8 0h4.9" fill="none" stroke="#5a5246" stroke-width="0.8" stroke-opacity="0.55"/></g><path d="M225.7 88.1q0.9 -1.2 1.9 -0.2q0.9 -1 1.9 0.2M232.2 88.7q1 -1.4 2 -0.3q1 -1.1 2 0.3M236 87.5q0.9 -1.2 1.8 -0.2q0.9 -1 1.8 0.2M242.3 88.8q0.8 -1.1 1.7 -0.2q0.8 -0.9 1.7 0.2" fill="none" stroke="#241c10" stroke-width="0.6" stroke-linecap="round" stroke-linejoin="round"/><path d="M378.5 88.2q1.1 -1.5 2.2 -0.3q1.1 -1.2 2.2 0.3M380.2 90.1q1.2 -1.5 2.3 -0.3q1.2 -1.2 2.3 0.3M387.1 87.7q0.9 -1.2 1.8 -0.2q0.9 -0.9 1.8 0.2M390.8 89q0.8 -1 1.5 -0.2q0.8 -0.8 1.5 0.2" fill="none" stroke="#241c10" stroke-width="0.6" stroke-linecap="round" stroke-linejoin="round"/></g><path d="M203 38.4q9 -10.8 14.4 -1.8L302.6 36.6q5.4 -12.6 14.4 -1.8q5.4 8.1 -1.8 12.6L311.6 51.4q5.4 12.6 -5.4 10.8q-7.2 -5.4 -10.8 -8.1L220.1 54.1q-8.1 8.1 -13.5 1.8q-3.6 -9 3.6 -11.7Z" fill="#faf7ef" stroke="#241c10" stroke-width="0.9" stroke-linecap="round" stroke-linejoin="round"/><rect x="212" y="33" width="96" height="22" fill="#faf7ef" stroke="#241c10" stroke-width="0.6" stroke-linecap="round" stroke-linejoin="round"/><rect x="213.6" y="34.6" width="92.8" height="18.8" fill="none" stroke="#241c10" stroke-width="0.35" stroke-opacity="0.7"/><circle cx="209.3" cy="44" r="1.3" fill="#faf7ef" stroke="#241c10" stroke-width="0.6" stroke-linecap="round" stroke-linejoin="round"/><circle cx="310.7" cy="44" r="1.3" fill="#faf7ef" stroke="#241c10" stroke-width="0.6" stroke-linecap="round" stroke-linejoin="round"/><text x="260" y="48.7" text-anchor="middle" font-family="&apos;Iowan Old Style&apos;, &apos;Palatino&apos;, &apos;Georgia&apos;, serif" font-size="13" letter-spacing="2.4" fill="#241c10">LOKAI</text><path d="M154.7 64.5L138.7 67.5L144.7 72L138.7 78.5L154.7 75.5Z" fill="#faf7ef" stroke="#241c10" stroke-width="0.7" stroke-linecap="round" stroke-linejoin="round"/><path d="M365.4 64.5L381.4 67.5L375.4 72L381.4 78.5L365.4 75.5Z" fill="#faf7ef" stroke="#241c10" stroke-width="0.7" stroke-linecap="round" stroke-linejoin="round"/><path d="M148.7 64.5q111.4 -3 222.7 0L371.4 75.5q-111.3 3 -222.7 0Z" fill="#faf7ef" stroke="#241c10" stroke-width="0.8" stroke-linecap="round" stroke-linejoin="round"/><path d="M148.7 64.5l6 2.4M371.4 64.5l-6 2.4" fill="none" stroke="#241c10" stroke-width="0.5"/><text x="260" y="72.8" text-anchor="middle" font-family="&apos;Iowan Old Style&apos;, &apos;Palatino&apos;, &apos;Georgia&apos;, serif" font-size="8.2" font-style="italic" fill="#241c10">a fisher village of the strand, founded An. 885</text><circle cx="64" cy="60" r="22" fill="#faf7ef" stroke="#241c10" stroke-width="0.5" stroke-opacity="0.6"/><path d="M86 60q2.4 -3 0.6 -6.4q-2 -3 -0.6 6.4M83.8 60q-2.4 -3 -0.6 -6.4M79 75q3.7 -0.4 4.8 -4q0.7 -3.4 -4.8 4M77.5 73.5q0.4 -3.7 4 -4.8M75 79.1q3.8 0.6 5.8 -2.7q1.6 -3.2 -5.8 2.7M73.9 77.1q1.4 -3.6 5.2 -3.7M58.5 80.5q-3.4 1.5 -6.1 -1q-2.3 -2.6 6.1 1M59.1 78.5q-2.2 -3 -5.8 -2.2M53 79.1q-3.8 0.6 -5.8 -2.7q-1.6 -3.2 5.8 2.7M54.1 77.1q-1.4 -3.6 -5.2 -3.7M43.5 65.5q-3 -2.2 -2.2 -5.8q1.1 -3.3 2.2 5.8M45.5 65q1.5 -3.4 -1 -6.1M42 60q-2.4 -3 -0.6 -6.4q2 -3 0.6 6.4M44.2 60q2.4 -3 0.6 -6.4M49 45q0.4 -3.7 4 -4.8q3.4 -0.7 -4 4.8M50.5 46.5q3.7 -0.4 4.8 -4M53 40.9q1.4 -3.6 5.2 -3.7q3.6 0.2 -5.2 3.7M54.1 42.9q3.8 0.6 5.8 -2.7M69.5 39.5q-2.2 -3 -5.8 -2.2q-3.3 1.1 5.8 2.2M69 41.5q-3.4 1.5 -6.1 -1M75 40.9q-1.4 -3.6 -5.2 -3.7q-3.6 0.2 5.2 3.7M73.9 42.9q-3.8 0.6 -5.8 -2.7M84.5 54.5q1.5 -3.4 -1 -6.1q-2.6 -2.3 1 6.1M82.5 55.1q-3 -2.2 -2.2 -5.8M86 60q2.4 -3 0.6 -6.4q-2 -3 -0.6 6.4M83.8 60q-2.4 -3 -0.6 -6.4M79 75q3.7 -0.4 4.8 -4q0.7 -3.4 -4.8 4M77.5 73.5q0.4 -3.7 4 -4.8M75 79.1q3.8 0.6 5.8 -2.7q1.6 -3.2 -5.8 2.7M73.9 77.1q1.4 -3.6 5.2 -3.7M58.5 80.5q-3.4 1.5 -6.1 -1q-2.3 -2.6 6.1 1M59.1 78.5q-2.2 -3 -5.8 -2.2M53 79.1q-3.8 0.6 -5.8 -2.7q-1.6 -3.2 5.8 2.7M54.1 77.1q-1.4 -3.6 -5.2 -3.7M43.5 65.5q-3 -2.2 -2.2 -5.8q1.1 -3.3 2.2 5.8M45.5 65q1.5 -3.4 -1 -6.1M42 60q-2.4 -3 -0.6 -6.4q2 -3 0.6 6.4M44.2 60q2.4 -3 0.6 -6.4M49 45q0.4 -3.7 4 -4.8q3.4 -0.7 -4 4.8M50.5 46.5q3.7 -0.4 4.8 -4M53 40.9q1.4 -3.6 5.2 -3.7q3.6 0.2 -5.2 3.7M54.1 42.9q3.8 0.6 5.8 -2.7M69.5 39.5q-2.2 -3 -5.8 -2.2q-3.3 1.1 5.8 2.2M69 41.5q-3.4 1.5 -6.1 -1M75 40.9q-1.4 -3.6 -5.2 -3.7q-3.6 0.2 5.2 3.7M73.9 42.9q-3.8 0.6 -5.8 -2.7M84.5 54.5q1.5 -3.4 -1 -6.1q-2.6 -2.3 1 6.1M82.5 55.1q-3 -2.2 -2.2 -5.8" fill="#faf7ef" stroke="#241c10" stroke-width="0.5" stroke-linejoin="round"/><path d="M61 85q3 -4 6 0q-3 2 -6 0M64 83l-3 7M64 83l3 7" fill="none" stroke="#241c10" stroke-width="0.6"/><g class="vellum-arms"><defs><pattern id="hatch-argent-d-ink-42-10-wreath" patternUnits="userSpaceOnUse" width="3.12" height="3.12"><rect x="0" y="0" width="3.12" height="3.12" fill="#faf7ef"/></pattern></defs><clipPath id="vellum-arms-d-ink-42-10-wreath"><path d="M52 46.84L76 46.84L76 59.87Q76 70.06 64 75.16Q52 70.06 52 59.87Z"/></clipPath><g clip-path="url(#vellum-arms-d-ink-42-10-wreath)"><rect x="52" y="46.84" width="24" height="28.32" fill="url(#hatch-argent-d-ink-42-10-wreath)"/><path d="M64 46.84L64 75.16" fill="none" stroke="#665f56" stroke-width="4.8" stroke-linejoin="round"/></g><path d="M52 46.84L76 46.84L76 59.87Q76 70.06 64 75.16Q52 70.06 52 59.87Z" fill="none" stroke="#241c10" stroke-width="1.08" stroke-linejoin="round"/></g><circle cx="456" cy="60" r="22" fill="#faf7ef" stroke="#241c10" stroke-width="0.5" stroke-opacity="0.6"/><path d="M478 60q2.4 -3 0.6 -6.4q-2 -3 -0.6 6.4M475.8 60q-2.4 -3 -0.6 -6.4M471 75q3.7 -0.4 4.8 -4q0.7 -3.4 -4.8 4M469.5 73.5q0.4 -3.7 4 -4.8M467 79.1q3.8 0.6 5.8 -2.7q1.6 -3.2 -5.8 2.7M465.9 77.1q1.4 -3.6 5.2 -3.7M450.5 80.5q-3.4 1.5 -6.1 -1q-2.3 -2.6 6.1 1M451.1 78.5q-2.2 -3 -5.8 -2.2M445 79.1q-3.8 0.6 -5.8 -2.7q-1.6 -3.2 5.8 2.7M446.1 77.1q-1.4 -3.6 -5.2 -3.7M435.5 65.5q-3 -2.2 -2.2 -5.8q1.1 -3.3 2.2 5.8M437.5 65q1.5 -3.4 -1 -6.1M434 60q-2.4 -3 -0.6 -6.4q2 -3 0.6 6.4M436.2 60q2.4 -3 0.6 -6.4M441 45q0.4 -3.7 4 -4.8q3.4 -0.7 -4 4.8M442.5 46.5q3.7 -0.4 4.8 -4M445 40.9q1.4 -3.6 5.2 -3.7q3.6 0.2 -5.2 3.7M446.1 42.9q3.8 0.6 5.8 -2.7M461.5 39.5q-2.2 -3 -5.8 -2.2q-3.3 1.1 5.8 2.2M461 41.5q-3.4 1.5 -6.1 -1M467 40.9q-1.4 -3.6 -5.2 -3.7q-3.6 0.2 5.2 3.7M465.9 42.9q-3.8 0.6 -5.8 -2.7M476.5 54.5q1.5 -3.4 -1 -6.1q-2.6 -2.3 1 6.1M474.5 55.1q-3 -2.2 -2.2 -5.8M478 60q2.4 -3 0.6 -6.4q-2 -3 -0.6 6.4M475.8 60q-2.4 -3 -0.6 -6.4M471 75q3.7 -0.4 4.8 -4q0.7 -3.4 -4.8 4M469.5 73.5q0.4 -3.7 4 -4.8M467 79.1q3.8 0.6 5.8 -2.7q1.6 -3.2 -5.8 2.7M465.9 77.1q1.4 -3.6 5.2 -3.7M450.5 80.5q-3.4 1.5 -6.1 -1q-2.3 -2.6 6.1 1M451.1 78.5q-2.2 -3 -5.8 -2.2M445 79.1q-3.8 0.6 -5.8 -2.7q-1.6 -3.2 5.8 2.7M446.1 77.1q-1.4 -3.6 -5.2 -3.7M435.5 65.5q-3 -2.2 -2.2 -5.8q1.1 -3.3 2.2 5.8M437.5 65q1.5 -3.4 -1 -6.1M434 60q-2.4 -3 -0.6 -6.4q2 -3 0.6 6.4M436.2 60q2.4 -3 0.6 -6.4M441 45q0.4 -3.7 4 -4.8q3.4 -0.7 -4 4.8M442.5 46.5q3.7 -0.4 4.8 -4M445 40.9q1.4 -3.6 5.2 -3.7q3.6 0.2 -5.2 3.7M446.1 42.9q3.8 0.6 5.8 -2.7M461.5 39.5q-2.2 -3 -5.8 -2.2q-3.3 1.1 5.8 2.2M461 41.5q-3.4 1.5 -6.1 -1M467 40.9q-1.4 -3.6 -5.2 -3.7q-3.6 0.2 5.2 3.7M465.9 42.9q-3.8 0.6 -5.8 -2.7M476.5 54.5q1.5 -3.4 -1 -6.1q-2.6 -2.3 1 6.1M474.5 55.1q-3 -2.2 -2.2 -5.8" fill="#faf7ef" stroke="#241c10" stroke-width="0.5" stroke-linejoin="round"/><path d="M453 85q3 -4 6 0q-3 2 -6 0M456 83l-3 7M456 83l3 7" fill="none" stroke="#241c10" stroke-width="0.6"/><text x="456" y="56" text-anchor="middle" font-family="&apos;Iowan Old Style&apos;, &apos;Palatino&apos;, &apos;Georgia&apos;, serif" font-size="7" letter-spacing="1.4" fill="#241c10">CHART</text><text x="456" y="67" text-anchor="middle" font-family="&apos;Iowan Old Style&apos;, &apos;Palatino&apos;, &apos;Georgia&apos;, serif" font-size="10.5" fill="#241c10">№ 42</text><text x="456" y="75" text-anchor="middle" font-family="&apos;Iowan Old Style&apos;, &apos;Palatino&apos;, &apos;Georgia&apos;, serif" font-size="5.6" font-style="italic" fill="#5a5246">An. 1059</text><path d="M16 313q9 -10.8 14.4 -1.8L121.6 311.2q5.4 -12.6 14.4 -1.8q5.4 8.1 -1.8 12.6L130.6 348.4q5.4 12.6 -5.4 10.8q-7.2 -5.4 -10.8 -8.1L33.1 351.1q-8.1 8.1 -13.5 1.8q-3.6 -9 3.6 -11.7Z" fill="#faf7ef" stroke="#241c10" stroke-width="0.9" stroke-linecap="round" stroke-linejoin="round"/><rect x="25" y="307.6" width="102" height="44.4" fill="#faf7ef" stroke="#241c10" stroke-width="0.6" stroke-linecap="round" stroke-linejoin="round"/><rect x="26.6" y="309.2" width="98.8" height="41.2" fill="none" stroke="#241c10" stroke-width="0.35" stroke-opacity="0.7"/><circle cx="22.3" cy="329.8" r="1.3" fill="#faf7ef" stroke="#241c10" stroke-width="0.6" stroke-linecap="round" stroke-linejoin="round"/><circle cx="129.7" cy="329.8" r="1.3" fill="#faf7ef" stroke="#241c10" stroke-width="0.6" stroke-linecap="round" stroke-linejoin="round"/><text x="31" y="316.6" font-family="&apos;Iowan Old Style&apos;, &apos;Palatino&apos;, &apos;Georgia&apos;, serif" font-size="6.6" font-style="italic" fill="#241c10">1. The Jetty</text><text x="31" y="325.2" font-family="&apos;Iowan Old Style&apos;, &apos;Palatino&apos;, &apos;Georgia&apos;, serif" font-size="6.6" font-style="italic" fill="#241c10">2. The Great Woaku</text><text x="31" y="333.8" font-family="&apos;Iowan Old Style&apos;, &apos;Palatino&apos;, &apos;Georgia&apos;, serif" font-size="6.6" font-style="italic" fill="#241c10">3. River Naikai</text><text x="31" y="342.4" font-family="&apos;Iowan Old Style&apos;, &apos;Palatino&apos;, &apos;Georgia&apos;, serif" font-size="6.6" font-style="italic" fill="#241c10">4. In the Chiefdom of Rekekoa</text><text x="372" y="265" text-anchor="middle" font-family="&apos;Iowan Old Style&apos;, &apos;Palatino&apos;, &apos;Georgia&apos;, serif" font-size="8" font-style="italic" fill="#faf7ef" stroke="#faf7ef" stroke-width="2.4">1</text><text x="372" y="265" text-anchor="middle" font-family="&apos;Iowan Old Style&apos;, &apos;Palatino&apos;, &apos;Georgia&apos;, serif" font-size="8" font-style="italic" fill="#241c10">1</text><text x="27" y="21" text-anchor="start" font-family="&apos;Iowan Old Style&apos;, &apos;Palatino&apos;, &apos;Georgia&apos;, serif" font-size="6.2" font-style="italic" fill="#5a5246">Septentrio</text><text x="493" y="21" text-anchor="end" font-family="&apos;Iowan Old Style&apos;, &apos;Palatino&apos;, &apos;Georgia&apos;, serif" font-size="6.2" font-style="italic" fill="#5a5246">Meridies</text><text x="260" y="21" text-anchor="middle" font-family="&apos;Iowan Old Style&apos;, &apos;Palatino&apos;, &apos;Georgia&apos;, serif" font-size="6.2" font-style="italic" fill="#5a5246">Oriens</text><text x="27" y="369" text-anchor="start" font-family="&apos;Iowan Old Style&apos;, &apos;Palatino&apos;, &apos;Georgia&apos;, serif" font-size="6.2" font-style="italic" fill="#5a5246">Occidens</text><text x="260" y="369" text-anchor="middle" font-family="&apos;Iowan Old Style&apos;, &apos;Palatino&apos;, &apos;Georgia&apos;, serif" font-size="7.4" letter-spacing="2" fill="#5a5246">FOUNDED AN. 885  ·  VELLUM  ·  CHART № 42</text><rect x="10" y="10" width="500" height="364" fill="none" stroke="#241c10" stroke-width="2"/><rect x="14" y="14" width="492" height="356" fill="none" stroke="#241c10" stroke-width="0.7"/></svg>